<svg width="80" height="80" viewBox="0 0 80 80" fill="none" xmlns="http://www.w3.org/2000/svg">
<path fill-rule="evenodd" clip-rule="evenodd" d="M60.6892 59.5652C59.9704 59.5652 59.3879 58.9827 59.3879 58.2639V40.3615C59.3879 29.6927 50.7083 21.0152 40.0416 21.0152C29.3729 21.0152 20.6954 29.6948 20.6954 40.3615V58.2639C20.6954 58.9827 20.1129 59.5652 19.3941 59.5652C18.6753 59.5652 18.0928 58.9827 18.0928 58.2639V40.3615C18.0928 28.2592 27.9394 18.4126 40.0416 18.4126C52.1439 18.4126 61.9905 28.2592 61.9905 40.3615V58.2639C61.9905 58.9827 61.408 59.5652 60.6892 59.5652Z" fill="#CBFF46"/>
<path fill-rule="evenodd" clip-rule="evenodd" d="M24.876 41.6607C24.1572 41.6607 23.5747 41.0782 23.5747 40.3593C23.5747 31.2791 30.9612 23.8925 40.0415 23.8925C40.7603 23.8925 41.3428 24.475 41.3428 25.1938C41.3428 25.9127 40.7603 26.4952 40.0415 26.4952C32.3968 26.4952 26.1753 32.7146 26.1753 40.3614C26.1773 41.0782 25.5948 41.6607 24.876 41.6607ZM40.0436 13.2651C39.3247 13.2651 38.7423 12.6826 38.7423 11.9638V6.48174C38.7423 5.76291 39.3247 5.18042 40.0436 5.18042C40.7624 5.18042 41.3449 5.76291 41.3449 6.48174V11.9638C41.3428 12.6826 40.7603 13.2651 40.0436 13.2651ZM53.5607 16.8881C52.939 16.5287 52.7262 15.7335 53.0857 15.1117L55.8267 10.365C56.1861 9.74329 56.9813 9.53054 57.6031 9.88995C58.2248 10.2494 58.4376 11.0446 58.0782 11.6663L55.3371 16.4131C54.9819 17.0286 54.1887 17.2496 53.5607 16.8881ZM64.5868 27.435C64.1365 27.435 63.7007 27.2016 63.459 26.7843C63.0996 26.1626 63.3124 25.3674 63.9341 25.0079L68.6808 22.2669C69.3025 21.9075 70.0978 22.1203 70.4572 22.742C70.8166 23.3637 70.6039 24.159 69.9821 24.5184L65.2354 27.2594C65.0309 27.3792 64.8078 27.435 64.5868 27.435ZM73.8633 41.6049H68.3813C67.6625 41.6049 67.08 41.0224 67.08 40.3036C67.08 39.5848 67.6625 39.0023 68.3813 39.0023H73.8633C74.5822 39.0023 75.1647 39.5848 75.1647 40.3036C75.1647 41.0224 74.5822 41.6049 73.8633 41.6049ZM11.7038 41.6049H6.22173C5.5029 41.6049 4.92041 41.0224 4.92041 40.3036C4.92041 39.5848 5.5029 39.0023 6.22173 39.0023H11.7038C12.4226 39.0023 13.0051 39.5848 13.0051 40.3036C13.003 41.0224 12.4205 41.6049 11.7038 41.6049ZM14.8497 27.2594L10.103 24.5184C9.48122 24.159 9.26846 23.3637 9.62787 22.742C9.98728 22.1203 10.7825 21.9075 11.4043 22.2669L16.151 25.0079C16.7727 25.3674 16.9855 26.1626 16.6261 26.7843C16.2667 27.4061 15.4735 27.6188 14.8497 27.2594ZM24.7459 16.411L22.0048 11.6643C21.6454 11.0425 21.8582 10.2473 22.4799 9.88788C23.1017 9.52847 23.8969 9.74123 24.2563 10.363L26.9974 15.1097C27.3568 15.7314 27.144 16.5267 26.5223 16.8861C25.9005 17.2476 25.1053 17.0327 24.7459 16.411ZM64.12 67.3131C63.4012 67.3131 62.8187 66.7306 62.8187 66.0118V59.5651H17.2643V66.0118C17.2643 66.7306 16.6818 67.3131 15.963 67.3131C15.2442 67.3131 14.6617 66.7306 14.6617 66.0118V58.2659C14.6617 57.5471 15.2442 56.9646 15.963 56.9646H64.1179C64.8368 56.9646 65.4193 57.5471 65.4193 58.2659V66.0118C65.4213 66.7306 64.8388 67.3131 64.12 67.3131Z" fill="#CBFF46"/>
<path fill-rule="evenodd" clip-rule="evenodd" d="M66.7927 75.059H13.292C12.5732 75.059 11.9907 74.4765 11.9907 73.7577V66.0118C11.9907 65.2929 12.5732 64.7104 13.292 64.7104H66.7927C67.5115 64.7104 68.094 65.2929 68.094 66.0118V73.7577C68.094 74.4765 67.5115 75.059 66.7927 75.059ZM14.5934 72.4564H65.4934V67.311H14.5934V72.4564Z" fill="#CBFF46"/>
</svg>
