<svg width="80" height="80" viewBox="0 0 80 80" fill="none" xmlns="http://www.w3.org/2000/svg">
<path d="M12.8625 54.65C13.65 55.25 14.35 55.75 15 56.1625C16.7 57.25 18.5 58.1625 20.3375 58.85C20.6 58.9501 20.875 59.0625 21.15 59.15C23.4 59.95 25.7625 60.4625 28.15 60.6875H28.2C28.4 60.7125 28.6 60.725 28.8375 60.7375C29.5125 60.8 30.25 60.825 31.025 60.825C32.1125 60.825 33.2 60.7625 34.3375 60.6375C36.7365 60.3786 39.0929 59.8158 41.35 58.9625C42.5375 58.525 43.725 58 44.8375 57.4C45.7125 56.95 46.5875 56.4375 47.5 55.825C48.0375 55.4625 48.5375 55.1 49.0125 54.7375L53.1875 58.9125L52.1625 59.9375C51.9321 60.1647 51.8014 60.474 51.7991 60.7975C51.7967 61.1209 51.923 61.4321 52.15 61.6625L67.45 76.9625C68.6375 78.15 70.2 78.75 71.7625 78.75C73.325 78.75 74.8875 78.15 76.075 76.9625L76.9 76.1375C79.275 73.7626 79.275 69.8875 76.9 67.5125L61.6 52.2125C61.3732 51.9896 61.068 51.8647 60.75 51.8647C60.432 51.8647 60.1268 51.9896 59.9 52.2125L59.0125 53.1L54.8 48.8875C58.65 43.775 60.7875 37.4875 60.7875 31.0375C60.7875 14.6125 47.425 1.23755 31 1.23755C14.575 1.23755 1.25 14.6125 1.25 31.05C1.25 40.3625 5.4875 48.9625 12.8625 54.65ZM16.8625 54.4625V41.175H20.3625V56.25C19.1625 55.75 17.9875 55.15 16.8625 54.4625ZM29.5375 58.375V44.3H33.0375V58.35C31.8375 58.4375 30.7 58.45 29.5375 58.375ZM43.775 55.275C43.2625 55.55 42.725 55.8125 42.1875 56.05V38.05H45.675V54.1875C45.025 54.5875 44.4 54.95 43.7625 55.275H43.775ZM75.2625 69.2375C75.6042 69.5788 75.8752 69.9842 76.0602 70.4303C76.2451 70.8764 76.3403 71.3546 76.3403 71.8375C76.3403 72.3205 76.2451 72.7987 76.0602 73.2448C75.8752 73.6909 75.6042 74.0962 75.2625 74.4375L74.4375 75.2625C74.0962 75.6042 73.6909 75.8753 73.2448 76.0602C72.7986 76.2451 72.3204 76.3403 71.8375 76.3403C71.3546 76.3403 70.8764 76.2451 70.4302 76.0602C69.9841 75.8753 69.5788 75.6042 69.2375 75.2625L54.8 60.825L55.8125 59.8125C55.8125 59.8125 55.825 59.8125 55.8375 59.8L59.5375 56.0875L60.825 54.8L75.2625 69.2375ZM54.975 57.2125L50.9625 53.2001L51.1125 53.05C51.55 52.65 51.9875 52.25 52.3875 51.825C52.7125 51.4875 53.025 51.15 53.3375 50.8L57.35 54.8125L54.9625 57.2L54.975 57.2125ZM31.05 3.67505C46.1375 3.67505 58.4125 15.95 58.4125 31.05C58.4125 37.3125 56.25 43.425 52.2875 48.2875C52.1875 48.425 52.0875 48.55 51.9375 48.7125C51.525 49.2 51.1125 49.675 50.6625 50.1375C50.05 50.775 49.4 51.375 48.675 51.975C48.6 52.0375 48.525 52.1125 48.4125 52.2C48.3125 52.2875 48.2125 52.3625 48.1125 52.45V37.8876C48.1125 36.6376 47.1 35.625 45.8625 35.625H42.025C40.7875 35.625 39.775 36.6376 39.775 37.8876V57C38.55 57.4125 37.275 57.75 35.9625 57.9875C35.8 58.0125 35.6375 58.05 35.4625 58.075V44.1376C35.4625 42.8876 34.45 41.875 33.2 41.875H29.3625C28.125 41.875 27.1125 42.8876 27.1125 44.1376V58.1375C25.65 57.925 24.2 57.6 22.7875 57.15V41.0126C22.7875 39.7626 21.775 38.75 20.5375 38.75H16.7C15.45 38.75 14.4375 39.7626 14.4375 41.0126V52.8125C14.4375 52.8125 14.375 52.7625 14.3375 52.7375C7.5625 47.5125 3.6625 39.6125 3.6625 31.0625C3.675 15.95 15.95 3.67505 31.05 3.67505Z" fill="#CBFF46"/>
<path d="M18.4126 35.6625C20.1376 35.6625 21.6126 34.6625 22.3501 33.225L26.8876 34.1125C27.0876 36.375 28.9626 38.175 31.2876 38.175C31.9499 38.1751 32.6039 38.0268 33.2015 37.7412C33.7991 37.4555 34.3251 37.0397 34.7411 36.5243C35.157 36.0088 35.4523 35.4068 35.6053 34.7624C35.7583 34.1179 35.765 33.4474 35.6251 32.8L39.5376 30.725C40.3501 31.5625 41.4751 32.0875 42.7126 32.0875C43.6305 32.0875 44.5258 31.8028 45.2752 31.2727C46.0246 30.7426 46.5911 29.9931 46.8967 29.1276C47.2024 28.2621 47.2321 27.323 46.9817 26.4399C46.7314 25.5568 46.2134 24.773 45.4991 24.1966C44.7847 23.6202 43.9092 23.2795 42.9931 23.2214C42.077 23.1634 41.1655 23.3908 40.3841 23.8724C39.6027 24.3541 38.9899 25.0662 38.63 25.9106C38.2702 26.7551 38.1812 27.6903 38.3751 28.5875L34.4626 30.6625C34.0527 30.2329 33.5601 29.8908 33.0144 29.6566C32.4688 29.4224 31.8814 29.3012 31.2876 29.3C29.5626 29.3 28.0876 30.3 27.3501 31.725L22.8126 30.8375C22.6126 28.575 20.7376 26.7875 18.4126 26.7875C17.2357 26.7875 16.107 27.255 15.2748 28.0872C14.4426 28.9194 13.9751 30.0481 13.9751 31.225C13.9751 32.4019 14.4426 33.5306 15.2748 34.3628C16.107 35.195 17.2357 35.6625 18.4126 35.6625ZM42.6876 25.625C43.2213 25.625 43.7332 25.8371 44.1106 26.2145C44.4881 26.5919 44.7001 27.1038 44.7001 27.6375C44.7001 28.1713 44.4881 28.6832 44.1106 29.0606C43.7332 29.438 43.2213 29.65 42.6876 29.65C42.1539 29.65 41.642 29.438 41.2645 29.0606C40.8871 28.6832 40.6751 28.1713 40.6751 27.6375C40.6751 27.1038 40.8871 26.5919 41.2645 26.2145C41.642 25.8371 42.1539 25.625 42.6876 25.625ZM31.2751 31.725C31.8088 31.725 32.3207 31.9371 32.6981 32.3145C33.0756 32.6919 33.2876 33.2038 33.2876 33.7375C33.2876 34.2713 33.0756 34.7832 32.6981 35.1606C32.3207 35.538 31.8088 35.75 31.2751 35.75C30.7414 35.75 30.2295 35.538 29.852 35.1606C29.4746 34.7832 29.2626 34.2713 29.2626 33.7375C29.2626 33.2038 29.4746 32.6919 29.852 32.3145C30.2295 31.9371 30.7414 31.725 31.2751 31.725ZM18.4126 29.225C18.6769 29.225 18.9386 29.2771 19.1827 29.3782C19.4269 29.4794 19.6488 29.6276 19.8356 29.8145C20.0225 30.0014 20.1708 30.2232 20.2719 30.4674C20.373 30.7115 20.4251 30.9732 20.4251 31.2375C20.4251 31.5018 20.373 31.7635 20.2719 32.0077C20.1708 32.2518 20.0225 32.4737 19.8356 32.6606C19.6488 32.8475 19.4269 32.9957 19.1827 33.0968C18.9386 33.198 18.6769 33.25 18.4126 33.25C18.1483 33.25 17.8866 33.198 17.6424 33.0968C17.3983 32.9957 17.1764 32.8475 16.9895 32.6606C16.8027 32.4737 16.6544 32.2518 16.5533 32.0077C16.4522 31.7635 16.4001 31.5018 16.4001 31.2375C16.4001 30.9732 16.4522 30.7115 16.5533 30.4674C16.6544 30.2232 16.8027 30.0014 16.9895 29.8145C17.1764 29.6276 17.3983 29.4794 17.6424 29.3782C17.8866 29.2771 18.1483 29.225 18.4126 29.225Z" fill="#CBFF46"/>
</svg>
