<svg width="80" height="80" viewBox="0 0 80 80" fill="none" xmlns="http://www.w3.org/2000/svg">
<path d="M69.76 51.76C67.44 51.76 65.52 53.36 64.96 55.52H60V46.4H60.72C68.88 46.4 76 39.28 76 31.2C76 24.16 71.92 18.64 65.28 16.64C64.64 11.52 61.28 7.35997 56.4 5.51997C51.52 3.67997 46.16 4.71997 42.32 8.07997C38.56 6.39997 33.92 6.39997 29.76 8.15997C26.16 9.67997 23.44 12.4 22.16 15.68C19.76 15.52 17.36 16.32 15.52 18C13.68 19.68 12.64 21.92 12.64 24.32C7.6 25.52 4 29.92 4 35.28C4 41.36 9.12 46.48 15.2 46.48H20V55.52H15.04C14.48 53.36 12.56 51.76 10.24 51.76C7.52 51.76 5.28 54 5.28 56.72C5.28 59.44 7.52 61.68 10.24 61.68C12.56 61.68 14.48 60.08 15.04 57.92H21.2C21.84 57.92 22.4 57.36 22.4 56.72V46.4H29.44V58.8L24.8 63.44C24.08 62.96 23.2 62.72 22.24 62.72C19.52 62.72 17.28 64.96 17.28 67.68C17.28 70.4 19.52 72.64 22.24 72.64C24.96 72.64 27.2 70.4 27.2 67.68C27.2 66.72 26.96 65.92 26.48 65.12L31.36 60.24C31.6 60 31.68 59.68 31.68 59.36V46.4H38.72V65.68C36.56 66.24 34.96 68.16 34.96 70.48C34.96 73.2 37.2 75.44 39.92 75.44C42.64 75.44 44.88 73.2 44.88 70.48C44.88 68.16 43.28 66.24 41.12 65.68V46.4H48.16V59.36C48.16 59.68 48.32 60 48.48 60.24L53.36 65.12C52.88 65.84 52.64 66.72 52.64 67.68C52.64 70.4 54.88 72.64 57.6 72.64C60.32 72.64 62.56 70.4 62.56 67.68C62.56 64.96 60.32 62.72 57.6 62.72C56.64 62.72 55.84 62.96 55.04 63.44L50.48 58.88V46.4H57.6V56.64C57.6 57.28 58.16 57.84 58.8 57.84H64.96C65.52 60 67.44 61.6 69.76 61.6C72.48 61.6 74.72 59.36 74.72 56.64C74.72 53.92 72.48 51.76 69.76 51.76ZM10.24 59.2C8.88 59.2 7.68 58.08 7.68 56.64C7.68 55.28 8.8 54.08 10.24 54.08C11.6 54.08 12.8 55.2 12.8 56.64C12.8 58.08 11.6 59.2 10.24 59.2ZM22.32 70.16C20.96 70.16 19.76 69.04 19.76 67.6C19.76 66.24 20.88 65.04 22.32 65.04C23.68 65.04 24.88 66.16 24.88 67.6C24.8 69.04 23.68 70.16 22.32 70.16ZM42.56 70.48C42.56 71.84 41.44 73.04 40 73.04C38.64 73.04 37.44 71.92 37.44 70.48C37.44 69.12 38.56 67.92 40 67.92C41.36 67.92 42.56 69.04 42.56 70.48ZM60.24 67.6C60.24 68.96 59.12 70.16 57.68 70.16C56.32 70.16 55.12 69.04 55.12 67.6C55.12 66.24 56.24 65.04 57.68 65.04C59.12 65.12 60.24 66.24 60.24 67.6ZM6.4 35.28C6.4 30.72 9.52 27.12 14.08 26.56C14.72 26.48 15.2 25.92 15.12 25.28C14.96 23.2 15.68 21.28 17.2 19.84C18.4 18.72 20 18.08 21.6 18.08C22 18.08 22.4 18.08 22.8 18.16C23.44 18.24 24 17.92 24.16 17.28C24.96 14.32 27.36 11.76 30.72 10.32C34.48 8.71997 38.8 8.79997 42 10.48C42.48 10.72 43.04 10.64 43.44 10.24C46.64 7.03997 51.28 5.99997 55.6 7.59997C59.84 9.19997 62.72 12.96 63.04 17.52C63.04 18 63.44 18.48 63.92 18.56C69.92 20.24 73.6 25.04 73.6 31.2C73.6 38 67.6 44 60.72 44H15.2C10.4 44 6.4 40 6.4 35.28ZM69.76 59.2C68.4 59.2 67.2 58.08 67.2 56.64C67.2 55.28 68.32 54.08 69.76 54.08C71.12 54.08 72.32 55.2 72.32 56.64C72.32 58.08 71.2 59.2 69.76 59.2Z" fill="#CBFF46"/>
</svg>
