<svg width="80" height="80" viewBox="0 0 80 80" fill="none" xmlns="http://www.w3.org/2000/svg">
<g clip-path="url(#clip0_2041_112)">
<path d="M39.9998 44.222C33.7836 44.2267 27.6762 42.5914 22.294 39.4813C22.0982 39.3679 21.9356 39.2049 21.8226 39.0088C21.7095 38.8126 21.6501 38.5903 21.6501 38.3639V5.85681C21.6501 5.39616 21.8953 4.971 22.294 4.73939C33.216 -1.58061 46.785 -1.58061 57.7069 4.73939C58.1056 4.97036 58.3508 5.39616 58.3508 5.85681V38.3639C58.3508 38.8246 58.1056 39.2497 57.7069 39.4813C52.3242 42.5914 46.2164 44.2266 39.9998 44.222ZM24.2301 37.611C34.0243 42.9858 45.976 42.9858 55.7689 37.611V6.61165C45.9747 1.23681 34.0237 1.23681 24.2295 6.61165L24.2301 37.611Z" fill="#CBFF46"/>
<path d="M40 38.4465C36.0994 38.4465 32.2639 37.4433 28.9084 35.5452C28.7096 35.4327 28.5441 35.2695 28.429 35.0721C28.3138 34.8748 28.2531 34.6505 28.2529 34.422V18.1362C28.253 17.9077 28.3136 17.6833 28.4288 17.486C28.544 17.2886 28.7095 17.1254 28.9084 17.013C32.2639 15.1149 36.0994 14.1117 40 14.1117C43.9007 14.1117 47.7362 15.1149 51.0916 17.013C51.2905 17.1255 51.4559 17.2888 51.5711 17.4861C51.6862 17.6834 51.747 17.9077 51.7471 18.1362V21.4188C51.7471 21.761 51.6112 22.0892 51.3692 22.3312C51.1272 22.5732 50.799 22.7091 50.4568 22.7091C50.1146 22.7091 49.7864 22.5732 49.5444 22.3312C49.3024 22.0892 49.1665 21.761 49.1665 21.4188V18.9046C46.3336 17.4362 43.2536 16.693 40 16.693C36.7465 16.693 33.6671 17.4369 30.8336 18.9046V33.6536C33.6665 35.122 36.7465 35.8652 40 35.8652C43.2536 35.8652 46.3329 35.1214 49.1665 33.6536V30.2646C49.1665 29.9224 49.3024 29.5942 49.5444 29.3522C49.7864 29.1102 50.1146 28.9743 50.4568 28.9743C50.799 28.9743 51.1272 29.1102 51.3692 29.3522C51.6112 29.5942 51.7471 29.9224 51.7471 30.2646V34.4214C51.7471 34.6499 51.6864 34.8743 51.5712 35.0716C51.4561 35.269 51.2906 35.4322 51.0916 35.5446C47.7362 37.4433 43.9007 38.4465 40 38.4465Z" fill="#CBFF46"/>
<path d="M50.4567 27.6097C50.1145 27.6097 49.7863 27.4737 49.5443 27.2317C49.3023 26.9898 49.1664 26.6616 49.1664 26.3193V24.8987C49.1664 24.5565 49.3023 24.2283 49.5443 23.9863C49.7863 23.7443 50.1145 23.6084 50.4567 23.6084C50.7989 23.6084 51.1271 23.7443 51.3691 23.9863C51.6111 24.2283 51.747 24.5565 51.747 24.8987V26.3193C51.747 26.6616 51.6111 26.9898 51.3691 27.2317C51.1271 27.4737 50.7989 27.6097 50.4567 27.6097ZM39.7128 11.8355C39.3706 11.8355 39.0424 11.6995 38.8004 11.4576C38.5585 11.2156 38.4225 10.8874 38.4225 10.5452V7.06645C38.4225 6.72423 38.5585 6.39603 38.8004 6.15405C39.0424 5.91207 39.3706 5.77612 39.7128 5.77612C40.055 5.77612 40.3832 5.91207 40.6252 6.15405C40.8672 6.39603 41.0032 6.72423 41.0032 7.06645V10.5452C41.0032 10.8874 40.8672 11.2156 40.6252 11.4576C40.3832 11.6995 40.055 11.8355 39.7128 11.8355ZM39.9993 80C30.1354 80 20.8664 75.9226 13.8986 68.5181C13.664 68.2688 13.5379 67.9366 13.5482 67.5944C13.5585 67.2523 13.7043 66.9282 13.9535 66.6935C14.2027 66.4589 14.5349 66.3328 14.8771 66.3431C15.2193 66.3534 15.5433 66.4992 15.778 66.7484C22.2522 73.6297 30.8541 77.4187 39.9986 77.4187C49.1438 77.4187 57.7464 73.629 64.2206 66.7471C64.4552 66.4979 64.7793 66.3521 65.1215 66.3418C65.4636 66.3315 65.7959 66.4576 66.0451 66.6922C66.2943 66.9269 66.4401 67.251 66.4504 67.5931C66.4607 67.9353 66.3346 68.2675 66.0999 68.5168C59.1335 75.9219 49.8638 80 39.9993 80Z" fill="#CBFF46"/>
<path d="M39.9992 67.9922C32.7753 67.9922 25.9882 65.0071 20.8876 59.5871C20.6609 59.3365 20.5415 59.007 20.555 58.6693C20.5685 58.3317 20.7139 58.0128 20.9599 57.7811C21.2059 57.5495 21.533 57.4235 21.8708 57.4303C22.2087 57.4371 22.5304 57.576 22.7669 57.8174C27.374 62.7142 33.494 65.4109 39.9985 65.4109C46.5037 65.4109 52.6237 62.7142 57.2314 57.8167C57.468 57.5754 57.7897 57.4364 58.1276 57.4296C58.4654 57.4229 58.7924 57.5488 59.0385 57.7805C59.2845 58.0121 59.4299 58.331 59.4434 58.6687C59.4569 59.0063 59.3375 59.3358 59.1108 59.5864C54.0108 65.0064 47.2237 67.9922 39.9992 67.9922ZM39.9992 55.9838C35.4153 55.9838 31.1102 54.0916 27.8766 50.6555C27.6499 50.4049 27.5305 50.0754 27.544 49.7377C27.5575 49.4001 27.7029 49.0812 27.9489 48.8495C28.195 48.6179 28.522 48.4919 28.8599 48.4987C29.1977 48.5055 29.5194 48.6444 29.756 48.8858C32.4966 51.7987 36.134 53.4026 39.9985 53.4026C43.8643 53.4026 47.5031 51.798 50.2437 48.8845C50.3594 48.7593 50.4987 48.6582 50.6536 48.5872C50.8085 48.5161 50.976 48.4765 51.1463 48.4705C51.3167 48.4646 51.4865 48.4924 51.646 48.5524C51.8056 48.6125 51.9516 48.7035 52.0757 48.8203C52.1999 48.9371 52.2996 49.0774 52.3693 49.2329C52.4389 49.3885 52.477 49.5564 52.4814 49.7267C52.4858 49.8971 52.4564 50.0667 52.3949 50.2257C52.3334 50.3846 52.241 50.5298 52.1231 50.6529C48.8902 54.0909 44.5843 55.9838 39.9992 55.9838Z" fill="#CBFF46"/>
</g>
<defs>
<clipPath id="clip0_2041_112">
<rect width="80" height="80" fill="white"/>
</clipPath>
</defs>
</svg>
