<svg width="80" height="80" viewBox="0 0 80 80" fill="none" xmlns="http://www.w3.org/2000/svg">
<path d="M20.8335 57.4107L16.3535 58.408C13.9787 58.9233 11.853 60.2387 10.3323 62.1342C8.81161 64.0296 7.98827 66.39 8.00013 68.82V70.9773C8.00218 72.4388 8.48328 73.8593 9.36974 75.0213C10.2562 76.1832 11.4991 77.0226 12.9081 77.4107C17.2348 78.5907 25.4468 80 40.0001 80C54.5535 80 62.7655 78.5907 67.0921 77.4107C68.5011 77.0226 69.7441 76.1832 70.6305 75.0213C71.517 73.8593 71.9981 72.4388 72.0001 70.9773V68.82C72.012 66.39 71.1887 64.0296 69.668 62.1342C68.1473 60.2387 66.0216 58.9233 63.6468 58.408L59.1668 57.4107L53.0548 53.7453L50.5975 48.012L51.3975 47.0907L51.9988 47.252C52.628 47.4184 53.276 47.5031 53.9268 47.504C55.8929 47.4998 57.777 46.7157 59.1656 45.3238C60.5541 43.932 61.3338 42.0461 61.3335 40.08V38.48C62.4754 38.1852 63.4875 37.5201 64.2112 36.5889C64.935 35.6576 65.3296 34.5127 65.3335 33.3333V28C65.329 26.821 64.9341 25.6768 64.2104 24.7461C63.4867 23.8154 62.475 23.1507 61.3335 22.856V21.3333C61.3335 15.6754 59.0859 10.2492 55.0851 6.24839C51.0843 2.24761 45.6581 0 40.0001 0C34.3422 0 28.916 2.24761 24.9152 6.24839C20.9144 10.2492 18.6668 15.6754 18.6668 21.3333V22.856C17.5253 23.1507 16.5136 23.8154 15.7899 24.7461C15.0661 25.6768 14.6712 26.821 14.6668 28V33.3333C14.6668 34.7478 15.2287 36.1044 16.2289 37.1046C17.2291 38.1048 18.5856 38.6667 20.0001 38.6667H22.6668C23.122 38.6622 23.5731 38.5793 24.0001 38.4213V38.8813C23.9994 40.7849 24.6902 42.6238 25.9441 44.056L29.4108 48.0093L26.9521 53.7427L20.8335 57.4107ZM27.6215 56.4493C30.0331 59.6271 33.3353 62.0159 37.1081 63.312C35.8224 64.5711 34.7542 66.0344 33.9468 67.6427C29.7495 65.6834 26.0895 62.7362 23.2801 59.0533L27.6215 56.4493ZM69.3335 68.82V70.9773C69.334 71.8553 69.0462 72.7092 68.5144 73.4078C67.9825 74.1063 67.236 74.6109 66.3895 74.844C62.2201 75.976 54.2575 77.3333 40.0001 77.3333C25.7428 77.3333 17.7801 75.976 13.6108 74.8373C12.7654 74.6046 12.0197 74.101 11.4879 73.4038C10.9562 72.7065 10.6677 71.8542 10.6668 70.9773V68.82C10.6577 66.9973 11.2753 65.2268 12.4162 63.8053C13.5571 62.3837 15.152 61.3976 16.9335 61.012L20.7655 60.16C22.2681 62.1773 26.8241 67.7147 33.2748 70.2453C33.8267 70.4575 34.4385 70.4524 34.9869 70.2312C35.5352 70.01 35.9793 69.5891 36.2295 69.0533C37.1041 67.2027 38.3946 65.5791 40.0001 64.3093C41.6061 65.5788 42.8974 67.2018 43.7735 69.052C43.9624 69.4545 44.2619 69.795 44.6371 70.0336C45.0122 70.2723 45.4475 70.3994 45.8921 70.4C46.1787 70.4003 46.4628 70.3465 46.7295 70.2413C53.1788 67.708 57.7348 62.1733 59.2375 60.156L63.0695 61.008C64.8511 61.3942 66.4459 62.3812 67.5864 63.8035C68.7268 65.2258 69.3437 66.997 69.3335 68.82ZM46.0535 67.6427C45.2467 66.034 44.1784 64.5706 42.8921 63.312C46.6649 62.0159 49.9671 59.6271 52.3788 56.4493L56.7201 59.0533C53.9105 62.7359 50.2506 65.6831 46.0535 67.6427ZM56.8135 43.8467C55.8463 44.5831 54.632 44.9175 53.4241 44.78L54.0561 44.0573C55.3099 42.6246 56.0007 40.7852 56.0001 38.8813V38.4213C56.4271 38.5793 56.8782 38.6622 57.3335 38.6667H58.6668V40.08C58.6694 40.8083 58.5035 41.5273 58.1819 42.1807C57.8604 42.8342 57.392 43.4044 56.8135 43.8467ZM53.3335 22.6467C41.0841 22.2787 38.5881 16.8773 38.5721 16.8387C38.4732 16.591 38.3023 16.3788 38.0815 16.2293C37.8607 16.0798 37.6001 15.9999 37.3335 16C33.4541 16.0061 29.7221 17.4865 26.8935 20.1413C28.0868 13.524 33.7975 8 40.0001 8C43.5352 8.00388 46.9243 9.40989 49.4239 11.9095C51.9236 14.4092 53.3296 17.7983 53.3335 21.3333V22.6467ZM62.6668 28V33.3333C62.6668 34.0406 62.3858 34.7189 61.8858 35.219C61.3857 35.719 60.7074 36 60.0001 36H57.3335C56.9798 36 56.6407 35.8595 56.3907 35.6095C56.1406 35.3594 56.0001 35.0203 56.0001 34.6667V26.6667C56.0001 26.313 56.1406 25.9739 56.3907 25.7239C56.6407 25.4738 56.9798 25.3333 57.3335 25.3333H60.0001C60.7074 25.3333 61.3857 25.6143 61.8858 26.1144C62.3858 26.6145 62.6668 27.2928 62.6668 28ZM40.0001 2.66667C44.9492 2.67196 49.6941 4.64032 53.1936 8.13985C56.6931 11.6394 58.6615 16.3843 58.6668 21.3333V22.6667H57.3335C56.8782 22.6711 56.4271 22.7541 56.0001 22.912V21.3333C55.9955 17.0913 54.3084 13.0243 51.3088 10.0247C48.3092 7.0251 44.2422 5.33792 40.0001 5.33333C31.4761 5.33333 24.0001 13.4333 24.0001 22.6667V22.912C23.5731 22.7541 23.122 22.6711 22.6668 22.6667H21.3335V21.3333C21.3388 16.3843 23.3071 11.6394 26.8067 8.13985C30.3062 4.64032 35.051 2.67196 40.0001 2.66667ZM22.6668 36H20.0001C19.2929 36 18.6146 35.719 18.1145 35.219C17.6144 34.7189 17.3335 34.0406 17.3335 33.3333V28C17.3335 27.2928 17.6144 26.6145 18.1145 26.1144C18.6146 25.6143 19.2929 25.3333 20.0001 25.3333H22.6668C23.0204 25.3333 23.3596 25.4738 23.6096 25.7239C23.8597 25.9739 24.0001 26.313 24.0001 26.6667V34.6667C24.0001 35.0203 23.8597 35.3594 23.6096 35.6095C23.3596 35.8595 23.0204 36 22.6668 36ZM26.6668 38.8813V24.4C27.7908 22.7734 29.2626 21.4173 30.9756 20.43C32.6887 19.4428 34.5999 18.8491 36.5708 18.692C37.8295 20.5973 41.9735 24.9787 53.3335 25.304V38.8813C53.3336 40.1394 52.8769 41.3548 52.0481 42.3013L50.4881 44.084L46.7548 43.0867L46.7948 42.9213C46.8764 42.5806 46.89 42.2271 46.8349 41.8811C46.7798 41.5351 46.657 41.2034 46.4736 40.9048C46.2902 40.6063 46.0498 40.3468 45.7661 40.1412C45.4824 39.9356 45.1609 39.788 44.8201 39.7067L40.9308 38.7733C39.8986 38.5262 38.8104 38.6991 37.9058 39.2542C37.0011 39.8094 36.354 40.7011 36.1068 41.7333C35.8596 42.7656 36.0326 43.8537 36.5877 44.7584C37.1428 45.663 38.0346 46.3102 39.0668 46.5573L42.9561 47.4907C43.1614 47.5399 43.3717 47.5649 43.5828 47.5653C44.1517 47.5657 44.7056 47.3824 45.162 47.0427C45.6185 46.703 45.9531 46.2251 46.1161 45.68L48.5281 46.3253L46.5335 48.6C45.9659 49.249 45.2661 49.7692 44.481 50.1257C43.6959 50.4821 42.8437 50.6666 41.9815 50.6667H38.0188C37.1567 50.6661 36.3046 50.4815 35.5195 50.1251C34.7345 49.7687 34.0347 49.2487 33.4668 48.6L27.9548 42.3C27.1251 41.3544 26.6673 40.1394 26.6668 38.8813ZM44.2001 42.3013L43.5815 44.8933L39.6908 43.96C39.5185 43.9213 39.3555 43.8487 39.2115 43.7465C39.0674 43.6443 38.9451 43.5145 38.8517 43.3646C38.7582 43.2147 38.6954 43.0478 38.667 42.8734C38.6387 42.6991 38.6452 42.5209 38.6863 42.3491C38.7273 42.1773 38.8021 42.0154 38.9063 41.8727C39.0105 41.7301 39.1419 41.6095 39.2931 41.5181C39.4442 41.4267 39.612 41.3663 39.7867 41.3403C39.9615 41.3143 40.1396 41.3232 40.3108 41.3667L44.2001 42.3013ZM31.4561 50.356C32.2744 51.2916 33.2834 52.0413 34.4153 52.5548C35.5472 53.0683 36.7759 53.3338 38.0188 53.3333H41.9815C43.2244 53.3337 44.453 53.0682 45.5849 52.5547C46.7168 52.0412 47.7258 51.2915 48.5441 50.356L48.6508 50.2347L50.4868 54.5213C47.9571 58.0102 44.2185 60.4317 40.0001 61.3133C35.7818 60.4317 32.0431 58.0102 29.5135 54.5213L31.3508 50.2347L31.4561 50.356Z" fill="#CBFF46"/>
</svg>
