<svg width="80" height="80" viewBox="0 0 80 80" fill="none" xmlns="http://www.w3.org/2000/svg">
    <path
        d="M27.2241 49.757H22.533C21.0717 49.757 19.8828 48.5687 19.8828 47.107V44.4922C19.8828 44.3378 19.7734 44.2041 19.6119 44.1595C17.9819 43.7149 16.4153 43.0641 14.95 42.223C14.8169 42.1466 14.66 42.1619 14.5605 42.2614L12.6928 44.1291C12.4473 44.3759 12.1553 44.5715 11.8337 44.7047C11.512 44.8378 11.1672 44.9059 10.8191 44.9048C10.1117 44.9048 9.44578 44.6295 8.94531 44.1291L5.62813 40.8119C5.38124 40.5664 5.18549 40.2743 5.05219 39.9527C4.9189 39.631 4.85071 39.2861 4.85156 38.938C4.85156 38.23 5.1275 37.5641 5.62813 37.0642L7.49516 35.1966C7.59516 35.097 7.61047 34.9403 7.53359 34.8072C6.69287 33.3418 6.04232 31.7752 5.59766 30.1453C5.55297 29.9836 5.41937 29.8742 5.26484 29.8742H2.65016C1.18891 29.8742 0 28.6852 0 27.2242V22.5328C0 21.0716 1.18906 19.8827 2.65 19.8827H5.26484C5.41937 19.8827 5.55297 19.7741 5.59766 19.6117C6.04246 17.9819 6.69317 16.4153 7.53406 14.95C7.61031 14.8169 7.595 14.66 7.49563 14.5606L5.62813 12.6928C5.38116 12.4474 5.18536 12.1554 5.05205 11.8338C4.91875 11.5121 4.85061 11.1672 4.85156 10.8191C4.85156 10.1117 5.1275 9.44578 5.62813 8.94531L8.94531 5.62813C9.44578 5.1275 10.1109 4.85234 10.8191 4.85234C11.5272 4.85234 12.193 5.1275 12.6934 5.62859L14.5606 7.49578C14.66 7.59516 14.8162 7.61047 14.95 7.53422C16.4152 6.69325 17.9815 6.04244 19.6112 5.5975C19.7742 5.55297 19.8828 5.41937 19.8828 5.26484V2.65016C19.8828 1.18891 21.0719 0 22.5328 0H27.2241C28.6853 0 29.8742 1.18906 29.8742 2.65V5.26484C29.8742 5.41937 29.983 5.55297 30.1453 5.59688C31.775 6.04214 33.3414 6.69316 34.8066 7.53422C34.9402 7.61047 35.0964 7.59516 35.1966 7.49578L37.0636 5.62813C38.0994 4.59297 39.7761 4.59219 40.8117 5.62859L41.1627 5.97969C42.2583 7.07453 40.6023 8.73359 39.5056 7.63672C39.2895 7.45 39.0125 6.99406 38.7212 7.28578L36.8536 9.15297C36.0089 9.9975 34.6875 10.1678 33.6402 9.56672C32.3477 8.82514 30.9661 8.25105 29.5287 7.85828C28.3522 7.53797 27.5298 6.47094 27.5298 5.26422V2.65016C27.5298 2.48109 27.3927 2.34375 27.2236 2.34375H22.5323C22.4512 2.34392 22.3735 2.37625 22.3161 2.43366C22.2588 2.49107 22.2266 2.56887 22.2266 2.65V5.26484C22.2266 6.47156 21.4044 7.53781 20.2277 7.85891C18.7901 8.25135 17.4084 8.82524 16.1158 9.56672C15.0689 10.1678 13.7475 9.9975 12.9028 9.15281L11.0356 7.28562C11.0074 7.25693 10.9737 7.23421 10.9365 7.21883C10.8992 7.20344 10.8593 7.19571 10.8191 7.19609C10.7612 7.19609 10.6769 7.21125 10.603 7.28578L7.28516 10.603C7.25654 10.6312 7.23387 10.6648 7.21846 10.7019C7.20306 10.7391 7.19524 10.7789 7.19547 10.8191C7.19547 10.877 7.21125 10.9619 7.28516 11.0358L9.15281 12.9034C9.9975 13.7481 10.1678 15.0691 9.56672 16.1164C8.82514 17.409 8.25105 18.7907 7.85828 20.2283C7.53797 21.405 6.47094 22.2266 5.26484 22.2266H2.65016C2.48109 22.2266 2.34375 22.3645 2.34375 22.5328V27.2241C2.34375 27.3931 2.48109 27.5305 2.65 27.5305H5.26484C6.47109 27.5305 7.53781 28.352 7.85891 29.5289C8.24953 30.9638 8.82453 32.3469 9.56672 33.6408C10.1678 34.6881 9.9975 36.0089 9.15281 36.8536L7.28562 38.7212C7.25686 38.7495 7.23411 38.7832 7.21872 38.8205C7.20334 38.8577 7.19564 38.8977 7.19609 38.938C7.19609 38.9953 7.21188 39.0802 7.28578 39.1547L10.603 42.4713C10.7227 42.5909 10.9167 42.5916 11.0364 42.4713L12.9034 40.6042C13.7481 39.7595 15.0695 39.5892 16.1169 40.1905C17.4093 40.9321 18.7909 41.5061 20.2283 41.8988C21.405 42.2192 22.2272 43.2863 22.2272 44.4928V47.1069C22.2272 47.2759 22.3645 47.4133 22.533 47.4133H27.2241C27.3931 47.4133 27.5305 47.2759 27.5305 47.107V44.4928C27.5305 43.2861 28.3527 42.2194 29.5294 41.8988C31.0266 41.4911 31.6406 43.7525 30.1459 44.1597C29.9834 44.2041 29.8742 44.3378 29.8742 44.4928V47.1069C29.8742 48.5681 28.6852 49.757 27.2242 49.757H27.2241Z"
        fill="#CBFF46" />
    <path
        d="M13.8335 24.8785C13.8335 17.1295 21.6252 11.8176 28.8054 14.5532C30.2526 15.1056 29.4207 17.296 27.9705 16.7438C22.304 14.5837 16.1768 18.7903 16.1768 24.8785C16.1768 29.8309 20.3479 33.8604 25.3979 33.5645C26.9421 33.471 27.0866 35.8129 25.5358 35.9045C19.168 36.2793 13.8335 31.2012 13.8335 24.8785Z"
        fill="#CBFF46" />
    <path
        d="M64.8501 52.039L52.9762 49.7301V46.7962C56.3105 44.5214 58.1159 41.3 58.509 37.6819C60.2399 37.5445 61.6059 36.0925 61.6059 34.3273V31.9189C64.4276 30.6922 64.0466 26.574 61.0615 25.8795V24.9498C61.0615 16.5923 54.286 9.81702 45.929 9.81702H44.6602C36.3024 9.81702 29.5277 16.5923 29.5277 24.9494V25.8795C26.5437 26.5734 26.1604 30.692 28.9832 31.9189V34.3273C28.9832 36.0925 30.3491 37.5445 32.0801 37.682C32.4232 40.8386 33.9027 43.728 36.2366 45.7373C36.6752 46.1159 37.1347 46.4694 37.613 46.7962V49.7301L25.7391 52.0392C19.4746 53.2575 14.5918 56.7889 14.5918 63.305V75.2247C14.5918 77.8619 16.7298 80 19.3671 80H71.222C73.8595 80 75.9974 77.8619 75.9974 75.2245V63.305C75.9974 56.8103 71.1445 53.2628 64.8499 52.0392L64.8501 52.039ZM55.0959 52.5298C53.9122 54.2508 52.7267 55.9706 51.5395 57.6892C50.967 58.5187 49.9396 58.6242 49.538 58.3837L47.6868 57.2736C49.4923 56.2073 51.9904 54.3762 52.7485 52.0734L55.0959 52.5298ZM45.2943 55.907C43.5146 55.0109 39.9665 52.7972 39.9568 50.705V48.0901C41.6421 48.8184 43.4587 49.194 45.2946 49.194C47.1306 49.194 48.9471 48.8184 50.6324 48.0901V50.6958C50.6324 52.7917 47.0759 55.0103 45.2943 55.907ZM31.8715 24.9492C31.8715 20.1422 34.5374 15.9461 38.4687 13.7622V15.2312C38.4687 16.7805 40.8124 16.7828 40.8124 15.2312V12.752C41.8852 12.4131 42.9983 12.2182 44.1224 12.1723V17.9669C44.1224 19.5159 46.4662 19.5184 46.4662 17.9669V12.1722C47.5905 12.2181 48.7037 12.4131 49.7766 12.752V15.2312C49.7766 16.7805 52.1204 16.7828 52.1204 15.2312V13.7622C56.0516 15.9461 58.7177 20.1422 58.7177 24.9494V25.7965H31.8715V24.9492ZM30.2515 28.1403H60.3376C61.4607 28.1403 61.4595 29.8376 60.3376 29.8376H30.2516C29.1279 29.8376 29.1291 28.1403 30.2516 28.1403H30.2515ZM34.3495 36.4953C34.3429 36.1889 34.2166 35.8972 33.9975 35.6828C33.7784 35.4684 33.4841 35.3484 33.1776 35.3484C32.9823 35.3003 31.3263 35.6531 31.3263 34.3273V32.182H59.2623V34.3273C59.2623 35.6508 57.5623 35.3112 57.411 35.3484C57.1046 35.3486 56.8103 35.4686 56.5913 35.683C56.3723 35.8973 56.2459 36.1889 56.2391 36.4953C56.1762 39.425 54.9312 42.1459 52.8235 43.9612C48.3479 47.815 42.2413 47.8156 37.7657 43.9612C35.6574 42.1459 34.4123 39.425 34.3495 36.4953ZM37.8401 52.0734C38.5987 54.3762 41.0963 56.2073 42.9023 57.2734C41.0468 58.2672 41.178 58.5645 40.3351 58.465C39.8109 58.402 39.3402 58.1103 39.0399 57.6758C37.8561 55.9614 36.6737 54.2461 35.4926 52.5298L37.8401 52.0734ZM24.3188 77.6562H19.3663C18.0237 77.6562 16.9348 76.5673 16.9348 75.2245V63.305C16.9348 59.7931 18.5301 57.3651 22.0301 55.6878C22.1715 56.3117 24.3188 62.1398 24.3188 70.2837V77.6562ZM44.1223 77.6562H26.6626V70.2837C26.6626 61.46 24.4348 55.7781 24.2157 54.8162C25.584 54.3615 24.5677 54.7119 32.984 53.0176C35.4027 56.5326 39.9168 63.0908 42.578 66.8731C43.5888 68.3094 44.1223 69.9964 44.1223 71.7523V77.6562ZM45.2941 66.8512C45.0592 66.3909 44.7923 65.9477 44.4952 65.5248C43.5956 64.2467 42.428 62.5695 41.2096 60.8111C41.5788 60.7292 41.9323 60.5883 42.2565 60.3937L45.294 58.5719L48.3324 60.3937C48.6566 60.5884 49.0101 60.7293 49.3793 60.8111C48.1609 62.5684 46.9934 64.2455 46.0937 65.5248C45.7962 65.9476 45.529 66.3908 45.2941 66.8512ZM73.6535 75.2247C73.6535 76.5673 72.5652 77.6562 71.2218 77.6562H66.2695V73.2348C66.2695 71.6858 63.9257 71.6833 63.9257 73.2348V77.6562H46.4662V71.7523C46.4662 69.9964 47.0002 68.3094 48.0104 66.8737C49.524 64.7222 55.7563 55.7287 57.6051 53.0175C66.017 54.7112 65.0026 54.3609 66.3727 54.8162C66.2024 55.537 64.2305 60.8965 63.9582 68.499C63.902 70.0519 66.2446 70.1281 66.3001 68.5834C66.5638 61.2262 68.3687 56.4923 68.5584 55.6878C72.0582 57.3651 73.6537 59.7931 73.6537 63.3044L73.6535 75.2247Z"
        fill="#CBFF46" />
</svg>