<svg width="80" height="80" viewBox="0 0 80 80" fill="none" xmlns="http://www.w3.org/2000/svg">
<path fill-rule="evenodd" clip-rule="evenodd" d="M14.0862 37.1143H2.49119C2.31509 37.1143 2.14097 37.0772 1.98014 37.0055C1.81932 36.9338 1.67538 36.829 1.5577 36.698C1.44002 36.567 1.35123 36.4127 1.2971 36.2452C1.24296 36.0776 1.2247 35.9005 1.2435 35.7254C1.91691 29.455 6.21715 24.2698 12.004 22.313C9.83879 20.729 8.42844 18.1694 8.42844 15.2914C8.42844 10.5038 12.3313 6.59713 17.1188 6.59713C21.9106 6.59713 25.8131 10.5039 25.8131 15.2914C25.8131 18.1694 24.4027 20.7294 22.2364 22.3134C23.5819 22.7685 24.8603 23.4018 26.0375 24.1963C27.9517 20.7545 31.1004 18.0938 34.8851 16.8141C32.7199 15.2301 31.3095 12.6704 31.3095 9.79242C31.3095 5.00481 35.2124 1.09814 39.9999 1.09814C44.7917 1.09814 48.6942 5.00513 48.6942 9.79242C48.6942 12.6705 47.2838 15.2304 45.1175 16.8144C48.8162 18.0649 51.9069 20.6334 53.8311 23.9607C55.045 23.1234 56.3693 22.4588 57.7662 21.9861C55.601 20.4021 54.1906 17.8425 54.1906 14.9645C54.1906 10.1769 58.0935 6.27022 62.881 6.27022C67.6728 6.27022 71.5753 10.1772 71.5753 14.9645C71.5753 17.8426 70.1649 20.4025 67.9986 21.9865C73.7872 23.9435 78.0863 29.1289 78.7563 35.3992C78.775 35.5742 78.7567 35.7512 78.7025 35.9187C78.6484 36.0862 78.5596 36.2405 78.4419 36.3714C78.3242 36.5023 78.1803 36.607 78.0195 36.6787C77.8587 36.7504 77.6846 36.7874 77.5086 36.7874H65.8612L66.5472 38.5919L72.743 38.8966C74.3679 38.9697 75.0198 41.0163 73.7641 42.017L68.9227 45.9102L70.5495 51.8938C70.9825 53.4448 69.2545 54.7094 67.9036 53.8332L67.8993 53.8305L62.7009 50.4283L57.5077 53.8302L57.503 53.8332C57.0179 54.1479 56.4838 54.1857 56.0184 54.0332C52.4366 59.01 46.5935 62.2509 39.9946 62.2509C33.4049 62.2509 27.5731 59.0194 23.9931 54.0545C23.5439 54.1824 23.0368 54.1334 22.5739 53.8332L22.5696 53.8305L17.3712 50.4283L12.1779 53.8302L12.1732 53.8332C10.8272 54.7065 9.1017 53.4478 9.52005 51.9016L9.52036 51.9002L11.1489 45.9102L6.31173 42.0205C5.05197 41.0163 5.70373 38.9697 7.32334 38.8969L13.5244 38.5919L14.0862 37.1143ZM17.1188 23.9855C10.6619 23.9855 5.26656 28.5352 3.96209 34.6045H15.0402L15.7298 32.7905C16.2986 31.2828 18.4435 31.2828 19.0123 32.7905L19.7019 34.6045H28.4545C28.7111 34.0627 29.2374 33.6461 29.9524 33.6139L30.0228 33.6105C29.82 32.9259 29.5625 32.2587 29.2529 31.6153H25.3723C25.1962 31.6153 25.0221 31.5782 24.8612 31.5065C24.7004 31.4348 24.5565 31.3301 24.4388 31.1991C24.3211 31.0681 24.2323 30.9138 24.1782 30.7462C24.1241 30.5786 24.1058 30.4015 24.1246 30.2265C24.2602 28.9606 24.5474 27.7157 24.9801 26.5184C22.7688 24.9245 20.0537 23.9855 17.1188 23.9855ZM17.1188 21.4757C20.5274 21.4757 23.3033 18.6967 23.3033 15.2914C23.3033 11.8861 20.5274 9.10693 17.1188 9.10693C13.7136 9.10693 10.9382 11.8862 10.9382 15.2914C10.9382 18.6966 13.7136 21.4757 17.1188 21.4757ZM39.9999 18.4867C33.5429 18.4867 28.1477 23.0363 26.8432 29.1055H37.7513L38.3586 27.5076C38.9274 25.9998 41.0724 25.9998 41.6411 27.5076L42.2485 29.1055H53.1574C51.8559 23.0362 46.4603 18.4867 39.9999 18.4867ZM36.7972 31.6153H31.9889C32.228 32.2252 32.4291 32.8494 32.591 33.4842L36.1533 33.3091L36.7972 31.6153ZM39.9999 15.9769C43.4085 15.9769 46.1844 13.1978 46.1844 9.79242C46.1844 6.38709 43.4085 3.60795 39.9999 3.60795C36.5947 3.60795 33.8193 6.38724 33.8193 9.79242C33.8193 13.1976 36.5947 15.9769 39.9999 15.9769ZM54.9262 26.2618C55.4117 27.5372 55.7306 28.87 55.8752 30.2271C55.8939 30.4021 55.8756 30.5792 55.8214 30.7467C55.7673 30.9142 55.6785 31.0684 55.5608 31.1993C55.4431 31.3302 55.2992 31.435 55.1384 31.5066C54.9776 31.5783 54.8035 31.6153 54.6275 31.6153H50.5969C50.308 32.2591 50.0706 32.9248 49.887 33.6061L50.0422 33.6136C50.6066 33.639 51.0537 33.9025 51.344 34.2776H60.4942L61.0593 32.7905C61.6281 31.2828 63.7732 31.2828 64.3419 32.7905L64.9072 34.2776H76.0385C74.737 28.2083 69.3414 23.6588 62.881 23.6588C59.9048 23.6588 57.1544 24.6252 54.9262 26.2618ZM47.8885 31.6153H43.2026L43.8465 33.3091L47.3309 33.4804C47.4784 32.8479 47.6647 32.225 47.8885 31.6153ZM62.881 21.149C66.2896 21.149 69.0655 18.3698 69.0655 14.9645C69.0655 11.5592 66.2896 8.78003 62.881 8.78003C59.4758 8.78003 56.7004 11.5593 56.7004 14.9645C56.7004 18.3697 59.4758 21.149 62.881 21.149ZM55.2019 50.6062L56.4785 45.9102L51.6415 42.0205C50.3815 41.0163 51.0333 38.9697 52.6531 38.8969L58.854 38.5919L59.5401 36.7874H50.9972L46.222 40.6272L47.8487 46.6109C48.2818 48.1618 46.5536 49.4266 45.2029 48.5504L45.1985 48.5476L40 45.1455L34.8068 48.5472L34.8021 48.5504C33.456 49.4235 31.7306 48.1648 32.1489 46.6188L32.1494 46.6172L33.7778 40.6272L29.4091 37.1143H20.6559L21.2176 38.5919L27.4134 38.8966C29.0383 38.9697 29.6901 41.0163 28.4346 42.017L23.5931 45.9102L24.944 50.8792C27.8813 56.1643 33.5185 59.7411 39.9946 59.7411C46.5817 59.7411 52.3058 56.0409 55.2019 50.6062ZM32.0838 36.0318L35.7378 38.9701C36.2987 39.4109 36.5262 40.1002 36.3437 40.793C36.3429 40.7964 36.342 40.7997 36.3411 40.8029L35.1083 45.3377L39.0305 42.7684C39.633 42.368 40.3624 42.3672 40.9655 42.7661L44.8907 45.3349L43.6587 40.8029L43.6561 40.793C43.4736 40.1 43.7012 39.4106 44.2612 38.9708L47.916 36.0318L43.222 35.8012L43.2193 35.801C42.5077 35.7645 41.9235 35.3447 41.6688 34.6713L39.9999 30.2812L38.3318 34.6696C38.0763 35.3447 37.4921 35.7645 36.7804 35.801L36.7778 35.8012L32.0838 36.0318ZM9.45495 41.3148L13.1089 44.253C13.6699 44.6939 13.8973 45.3832 13.7149 46.076C13.7141 46.0793 13.7132 46.0826 13.7122 46.0859L12.4794 50.6205L16.4016 48.0514C17.0041 47.6509 17.7335 47.6501 18.3367 48.0489L22.2619 50.6177L21.0299 46.0859L21.0272 46.076C20.8448 45.3829 21.0724 44.6934 21.6324 44.2538L25.2871 41.3148L20.5931 41.084L20.5905 41.0839C19.8786 41.0475 19.2946 40.6277 19.0399 39.9543L17.371 35.564L15.703 39.9524C15.4474 40.6277 14.8633 41.0475 14.1516 41.0839L14.1489 41.084L9.45495 41.3148ZM51.3503 42.6699C52.0429 42.6699 52.6052 43.2323 52.6052 43.9248C52.6052 44.6174 52.0429 45.1797 51.3503 45.1797H48.824C48.1313 45.1797 47.5691 44.6174 47.5691 43.9248C47.5691 43.2323 48.1313 42.6699 48.824 42.6699H51.3503ZM31.1193 42.6699C31.8118 42.6699 32.3742 43.2323 32.3742 43.9248C32.3742 44.6174 31.8118 45.1797 31.1193 45.1797H28.6259C27.9334 45.1797 27.371 44.6174 27.371 43.9248C27.371 43.2323 27.9334 42.6699 28.6259 42.6699H31.1193ZM54.7845 41.3148L58.4385 44.253C58.9994 44.6939 59.2269 45.3832 59.0446 46.076L59.0419 46.0859L57.8091 50.6205L61.7313 48.0514C62.3339 47.6509 63.0633 47.6501 63.6662 48.0489L67.5914 50.6177L66.3594 46.0859L66.3568 46.076C66.1743 45.3829 66.4019 44.6934 66.9619 44.2538L70.6167 41.3148L65.9227 41.084L65.9201 41.0839C65.2084 41.0475 64.6244 40.6277 64.3695 39.9543L62.7006 35.564L61.0325 39.9524C60.777 40.6277 60.193 41.0475 59.4811 41.0839L59.4785 41.084L54.7845 41.3148ZM13.3505 55.7741C13.1124 55.1237 13.4468 54.4023 14.0971 54.164C14.7475 53.9258 15.4689 54.2603 15.7072 54.9107C16.301 56.5344 17.058 58.0937 17.9665 59.5647C18.0739 59.7385 18.1373 59.9359 18.1512 60.1398C18.165 60.3436 18.1288 60.5478 18.0459 60.7345L16.1127 65.0823L20.9433 69.9129L25.2917 67.9868C25.4774 67.9045 25.6804 67.8685 25.8831 67.882C26.0859 67.8955 26.2823 67.958 26.4556 68.0641C28.7894 69.4939 31.3284 70.5545 33.9991 71.1872C34.1977 71.2343 34.3817 71.329 34.5354 71.4633C34.6891 71.5975 34.8077 71.7672 34.881 71.9576L36.5878 76.3923H43.4206L45.1274 71.9576C45.2006 71.7673 45.3191 71.5977 45.4726 71.4635C45.6261 71.3293 45.81 71.2345 46.0084 71.1874C48.6694 70.5551 51.2156 69.5041 53.5398 68.0668C53.7134 67.9594 53.9105 67.8961 54.1141 67.8821C54.3176 67.8682 54.5216 67.9041 54.7081 67.9868L59.0565 69.9129L63.888 65.0814L61.9619 60.733C61.8796 60.5472 61.8437 60.3442 61.8571 60.1415C61.8706 59.9387 61.9331 59.7423 62.0393 59.569C62.9311 58.1152 63.6786 56.5776 64.2711 54.9783C64.3867 54.6662 64.6214 54.4128 64.9237 54.2738C65.226 54.1347 65.5712 54.1213 65.8833 54.2367C66.1954 54.3522 66.4488 54.5869 66.5879 54.8892C66.727 55.1916 66.7404 55.5367 66.6251 55.8489C66.053 57.3938 65.3485 58.8865 64.5196 60.3102L66.5313 64.8519C66.634 65.0835 66.6641 65.3409 66.6177 65.59C66.5713 65.8391 66.4506 66.0683 66.2714 66.2475L60.2226 72.2963C60.0435 72.4754 59.8142 72.5961 59.5651 72.6425C59.316 72.6889 59.0587 72.6588 58.827 72.5562L54.2879 70.5455C52.0812 71.8362 49.7084 72.8192 47.2355 73.4674L45.4534 78.0978C45.3623 78.3345 45.2017 78.5381 44.9926 78.6817C44.7835 78.8252 44.5359 78.9021 44.2822 78.9021H35.7262C35.4725 78.9021 35.2249 78.8252 35.0158 78.6817C34.8067 78.5381 34.6461 78.3345 34.555 78.0978L32.7731 73.4679C30.2943 72.8174 27.9246 71.8301 25.7144 70.5444L21.1728 72.5562C20.9411 72.6588 20.6838 72.6889 20.4347 72.6425C20.1856 72.5961 19.9563 72.4754 19.7771 72.2963L13.7284 66.2475C13.549 66.0681 13.4282 65.8386 13.3819 65.5891C13.3356 65.3397 13.366 65.0821 13.4691 64.8503L15.4871 60.3118C14.6413 58.8658 13.9262 57.3472 13.3505 55.7741Z" fill="#CBFF46"/>
</svg>
