<svg width="80" height="80" viewBox="0 0 80 80" fill="none" xmlns="http://www.w3.org/2000/svg">
<g clip-path="url(#clip0_2058_529)">
<path d="M77.8907 19.0704H73.1454V13.7657C73.1454 13.0751 72.586 12.5142 71.8938 12.5142H66.5454V1.2501C66.5454 0.559473 65.986 -0.00146484 65.2939 -0.00146484C64.6017 -0.00146484 64.0423 0.55791 64.0423 1.2501V12.5157H58.6939C58.0032 12.5157 57.4423 13.0751 57.4423 13.7673V19.072H22.5548V13.7657C22.5548 13.0751 21.9954 12.5142 21.3032 12.5142H15.9548V1.2501C15.9548 0.559473 15.3954 -0.00146484 14.7032 -0.00146484C14.011 -0.00146484 13.4548 0.55791 13.4548 1.2501V12.5157H8.10635C7.41572 12.5157 6.85478 13.0751 6.85478 13.7673V19.072H2.10947C1.41885 19.072 0.85791 19.6313 0.85791 20.3235V78.7501C0.85791 79.4407 1.41729 80.0017 2.10947 80.0017H77.8907C78.5814 80.0017 79.1423 79.4423 79.1423 78.7501V20.322C79.1423 19.6298 78.5829 19.0704 77.8907 19.0704ZM59.947 15.0173H70.6438V19.0704H59.947V15.0173ZM9.35635 15.0173H20.0532V19.0704H9.35635V15.0173ZM3.35947 21.572H26.1517V77.5001H3.35947V21.572ZM28.6548 77.5001V21.572H51.447V77.5001H28.6548ZM76.6407 77.5001H53.9501V21.572H76.6407V77.5001ZM33.2673 42.9657H37.3579V49.0673C37.3578 49.2317 37.3901 49.3945 37.453 49.5463C37.5159 49.6982 37.6081 49.8362 37.7243 49.9525C37.8405 50.0687 37.9785 50.1609 38.1304 50.2237C38.2823 50.2866 38.4451 50.3189 38.6095 50.3189C39.0142 50.3189 39.4017 50.122 39.6407 49.7767L47.8657 37.8313C47.9953 37.6435 48.071 37.4238 48.0845 37.1959C48.098 36.9681 48.0488 36.741 47.9423 36.5392C47.8362 36.3373 47.6769 36.1682 47.4816 36.0504C47.2863 35.9325 47.0626 35.8703 46.8345 35.8704H42.7439V29.7642C42.744 29.4972 42.6588 29.2371 42.5006 29.0221C42.3424 28.807 42.1195 28.6483 41.8646 28.569C41.6096 28.4897 41.336 28.4941 41.0838 28.5815C40.8315 28.6689 40.6138 28.8348 40.4626 29.0548L32.2376 41.0048C32.108 41.1926 32.0323 41.4124 32.0188 41.6402C32.0053 41.868 32.0545 42.0952 32.161 42.297C32.267 42.4987 32.426 42.6676 32.621 42.7855C32.816 42.9033 33.0395 42.9657 33.2673 42.9657ZM40.2407 33.7892V37.122C40.2407 37.8126 40.8001 38.3735 41.4923 38.3735H44.4532L39.8595 45.0438V41.7142C39.8595 41.0235 39.3001 40.4626 38.6079 40.4626H35.647L40.2407 33.7892ZM72.1642 58.2907H58.4251C57.7345 58.2907 57.1735 58.8501 57.1735 59.5423V70.4564C57.1735 71.147 57.7329 71.7079 58.4251 71.7079H72.1642C72.8548 71.7079 73.4157 71.1485 73.4157 70.4564V59.5423C73.4157 58.8501 72.8548 58.2907 72.1642 58.2907ZM70.9126 69.2032H59.6751V60.7923H70.9126V69.2032ZM58.4251 27.3704H72.1642C72.8548 27.3704 73.4157 27.9298 73.4157 28.622C73.4157 29.3142 72.8564 29.8735 72.1642 29.8735H58.4251C57.7345 29.8735 57.1735 29.3142 57.1735 28.622C57.1735 27.9298 57.7345 27.3704 58.4251 27.3704ZM73.4157 35.8188C73.4157 36.5095 72.8564 37.0704 72.1642 37.0704H58.4251C57.7345 37.0704 57.1735 36.511 57.1735 35.8188C57.1735 35.1267 57.7329 34.5673 58.4251 34.5673H72.1642C72.8548 34.5673 73.4157 35.1282 73.4157 35.8188ZM73.4157 43.0157C73.4157 43.7063 72.8564 44.2673 72.1642 44.2673H58.4251C57.7345 44.2673 57.1735 43.7079 57.1735 43.0157C57.1735 42.3235 57.7329 41.7642 58.4251 41.7642H72.1642C72.8548 41.7657 73.4157 42.3251 73.4157 43.0157ZM73.4157 50.2142C73.4157 50.9048 72.8564 51.4657 72.1642 51.4657H58.4251C57.7345 51.4657 57.1735 50.9063 57.1735 50.2142C57.1735 49.522 57.7329 48.9626 58.4251 48.9626H72.1642C72.8548 48.9626 73.4157 49.522 73.4157 50.2142ZM21.5751 58.2907H7.83604C7.14541 58.2907 6.58447 58.8501 6.58447 59.5423V70.4564C6.58447 71.147 7.14385 71.7079 7.83604 71.7079H21.5751C22.2657 71.7079 22.8267 71.1485 22.8267 70.4564V59.5423C22.8267 58.8501 22.2657 58.2907 21.5751 58.2907ZM20.3235 69.2032H9.0876V60.7923H20.3251V69.2032H20.3235ZM22.8267 28.622C22.8267 29.3126 22.2673 29.8735 21.5751 29.8735H7.83604C7.14541 29.8735 6.58447 29.3142 6.58447 28.622C6.58447 27.9298 7.14385 27.3704 7.83604 27.3704H21.5751C22.2657 27.3704 22.8267 27.9298 22.8267 28.622ZM22.8267 35.8188C22.8267 36.5095 22.2673 37.0704 21.5751 37.0704H7.83604C7.14541 37.0704 6.58447 36.511 6.58447 35.8188C6.58447 35.1267 7.14385 34.5673 7.83604 34.5673H21.5751C22.2657 34.5673 22.8267 35.1282 22.8267 35.8188ZM22.8267 43.0157C22.8267 43.7063 22.2673 44.2673 21.5751 44.2673H7.83604C7.14541 44.2673 6.58447 43.7079 6.58447 43.0157C6.58447 42.3235 7.14385 41.7642 7.83604 41.7642H21.5751C22.2657 41.7657 22.8267 42.3251 22.8267 43.0157ZM22.8267 50.2142C22.8267 50.9048 22.2673 51.4657 21.5751 51.4657H7.83604C7.14541 51.4657 6.58447 50.9063 6.58447 50.2142C6.58447 49.522 7.14385 48.9626 7.83604 48.9626H21.5751C22.2657 48.9626 22.8267 49.522 22.8267 50.2142ZM46.9235 58.2907H33.1845C32.4938 58.2907 31.9329 58.8501 31.9329 59.5423V70.4564C31.9329 71.147 32.4923 71.7079 33.1845 71.7079H46.9235C47.6142 71.7079 48.1751 71.1485 48.1751 70.4564V59.5423C48.1735 58.8501 47.6142 58.2907 46.9235 58.2907ZM45.672 69.2032H34.4345V60.7923H45.672V69.2032Z" fill="#CBFF46"/>
</g>
<defs>
<clipPath id="clip0_2058_529">
<rect width="80" height="80" fill="white"/>
</clipPath>
</defs>
</svg>
