<svg width="80" height="80" viewBox="0 0 80 80" fill="none" xmlns="http://www.w3.org/2000/svg">
<path d="M74.5 73.0625H60.125V70.1875H68.3647C69.1878 70.1917 69.9948 69.9591 70.6893 69.5174C71.3839 69.0757 71.9367 68.4435 72.2819 67.6963C74.6823 62.6346 75.9275 57.1027 75.9275 51.5007C75.9275 45.8987 74.6823 40.3668 72.2819 35.3051C71.9372 34.5574 71.3845 33.9248 70.6899 33.4828C69.9953 33.0408 69.1881 32.8081 68.3647 32.8125H67.3125V27.0625C67.3125 26.6813 67.161 26.3156 66.8915 26.046C66.6219 25.7764 66.2562 25.625 65.875 25.625H45.75C45.3688 25.625 45.0031 25.7764 44.7335 26.046C44.464 26.3156 44.3125 26.6813 44.3125 27.0625V32.8125H27.0625V22.75C27.0625 22.3688 26.9111 22.0031 26.6415 21.7335C26.3719 21.464 26.0062 21.3125 25.625 21.3125H15.5625C15.1813 21.3125 14.8156 21.464 14.546 21.7335C14.2765 22.0031 14.125 22.3688 14.125 22.75V32.8125H11.6353C10.8119 32.8081 10.0047 33.0408 9.3101 33.4828C8.61548 33.9248 8.06279 34.5574 7.71806 35.3051C5.31772 40.3668 4.0725 45.8987 4.0725 51.5007C4.0725 57.1027 5.31772 62.6346 7.71806 67.6963C8.06329 68.4435 8.61613 69.0757 9.31068 69.5174C10.0052 69.9591 10.8122 70.1917 11.6353 70.1875H19.875V73.0625H5.5C5.11875 73.0625 4.75312 73.214 4.48353 73.4835C4.21395 73.7531 4.0625 74.1188 4.0625 74.5C4.0625 74.8812 4.21395 75.2469 4.48353 75.5165C4.75312 75.786 5.11875 75.9375 5.5 75.9375H74.5C74.8812 75.9375 75.2469 75.786 75.5165 75.5165C75.786 75.2469 75.9375 74.8812 75.9375 74.5C75.9375 74.1188 75.786 73.7531 75.5165 73.4835C75.2469 73.214 74.8812 73.0625 74.5 73.0625ZM69.6614 36.4896C71.8859 41.1809 73.04 46.308 73.04 51.5C73.04 56.692 71.8859 61.8191 69.6614 66.5104C69.545 66.7544 69.3609 66.9598 69.131 67.102C68.901 67.2442 68.6351 67.3173 68.3647 67.3125H57.25V35.6875H68.3647C68.6351 35.6827 68.901 35.7558 69.131 35.898C69.3609 36.0402 69.545 36.2456 69.6614 36.4896ZM47.1875 28.5H64.4375V32.8125H47.1875V28.5ZM17 24.1875H24.1875V32.8125H17V24.1875ZM10.3386 66.5104C8.11406 61.8191 6.96004 56.692 6.96004 51.5C6.96004 46.308 8.11406 41.1809 10.3386 36.4896C10.455 36.2456 10.6391 36.0402 10.869 35.898C11.099 35.7558 11.3649 35.6827 11.6353 35.6875H54.375V67.3125H11.6353C11.3649 67.3173 11.099 67.2442 10.869 67.102C10.6391 66.9598 10.455 66.7544 10.3386 66.5104ZM22.75 70.1875H57.25V73.0625H22.75V70.1875ZM17 18.4375C17.3812 18.4375 17.7469 18.286 18.0165 18.0165C18.286 17.7469 18.4375 17.3812 18.4375 17C18.4386 15.8566 18.8934 14.7604 19.7019 13.9519C20.5104 13.1434 21.6066 12.6886 22.75 12.6875H37.125C39.0305 12.6852 40.8574 11.9272 42.2048 10.5798C43.5522 9.23239 44.3102 7.40554 44.3125 5.5C44.3125 5.11875 44.161 4.75312 43.8915 4.48353C43.6219 4.21395 43.2562 4.0625 42.875 4.0625C42.4938 4.0625 42.1281 4.21395 41.8585 4.48353C41.589 4.75312 41.4375 5.11875 41.4375 5.5C41.4364 6.6434 40.9816 7.73963 40.1731 8.54814C39.3646 9.35664 38.2684 9.81136 37.125 9.8125H22.75C20.8445 9.81478 19.0176 10.5728 17.6702 11.9202C16.3228 13.2676 15.5648 15.0945 15.5625 17C15.5625 17.3812 15.714 17.7469 15.9835 18.0165C16.2531 18.286 16.6188 18.4375 17 18.4375Z" fill="#CBFF46"/>
<path d="M25.625 15.5625C25.2438 15.5625 24.8781 15.714 24.6085 15.9835C24.3389 16.2531 24.1875 16.6188 24.1875 17C24.1875 17.3812 24.3389 17.7469 24.6085 18.0165C24.8781 18.286 25.2438 18.4375 25.625 18.4375H38.5625C41.9926 18.4337 45.2811 17.0694 47.7065 14.644C50.1319 12.2186 51.4962 8.93007 51.5 5.5C51.5 5.11875 51.3485 4.75312 51.079 4.48353C50.8094 4.21395 50.4437 4.0625 50.0625 4.0625C49.6813 4.0625 49.3156 4.21395 49.046 4.48353C48.7765 4.75312 48.625 5.11875 48.625 5.5C48.622 8.16781 47.5608 10.7255 45.6744 12.6119C43.788 14.4983 41.2303 15.5595 38.5625 15.5625H25.625ZM29.9375 54.375C29.9375 48.1017 22.6393 40.7317 22.3288 40.4212C22.054 40.1618 21.6904 40.0173 21.3125 40.0173C20.9346 40.0173 20.571 40.1618 20.2962 40.4212C19.9857 40.7317 12.6875 48.1017 12.6875 54.375C12.6875 56.6625 13.5962 58.8563 15.2137 60.4738C16.8312 62.0913 19.025 63 21.3125 63C23.6 63 25.7938 62.0913 27.4113 60.4738C29.0288 58.8563 29.9375 56.6625 29.9375 54.375ZM15.5625 54.375C15.5625 50.787 19.0988 46.0404 21.3125 43.542C23.5262 46.0404 27.0625 50.787 27.0625 54.375C27.0625 55.9 26.4567 57.3625 25.3784 58.4409C24.3 59.5192 22.8375 60.125 21.3125 60.125C19.7875 60.125 18.325 59.5192 17.2466 58.4409C16.1683 57.3625 15.5625 55.9 15.5625 54.375ZM41.4375 63C43.7242 62.9973 45.9164 62.0878 47.5334 60.4709C49.1503 58.8539 50.0598 56.6617 50.0625 54.375C50.0625 48.1017 42.7643 40.7317 42.4538 40.4212C42.179 40.1618 41.8154 40.0173 41.4375 40.0173C41.0596 40.0173 40.696 40.1618 40.4212 40.4212C40.1107 40.7317 32.8125 48.1017 32.8125 54.375C32.8152 56.6617 33.7247 58.8539 35.3416 60.4709C36.9586 62.0878 39.1508 62.9973 41.4375 63ZM41.4375 43.542C43.6513 46.0404 47.1875 50.787 47.1875 54.375C47.1875 55.9 46.5817 57.3625 45.5034 58.4409C44.425 59.5192 42.9625 60.125 41.4375 60.125C39.9125 60.125 38.45 59.5192 37.3716 58.4409C36.2933 57.3625 35.6875 55.9 35.6875 54.375C35.6875 50.787 39.2237 46.0404 41.4375 43.542Z" fill="#CBFF46"/>
</svg>
