<svg width="80" height="80" viewBox="0 0 80 80" fill="none" xmlns="http://www.w3.org/2000/svg">
<path d="M61.342 10.7719C60.9482 10.7719 60.5779 10.9579 60.342 11.2719C57.4623 15.1157 52.6295 22.1344 52.6295 25.9454C52.6295 30.7469 56.5373 34.6532 61.342 34.6532C66.1436 34.6532 70.0498 30.7469 70.0498 25.9454C70.0498 22.3375 65.8592 15.975 62.342 11.2719C62.2255 11.1168 62.0745 10.9908 61.9009 10.904C61.7274 10.8173 61.536 10.772 61.342 10.7719ZM67.5514 25.9469C67.5514 29.3704 64.7654 32.1563 61.342 32.1563C57.9154 32.1563 55.1279 29.3704 55.1279 25.9469C55.1279 23.9266 57.4811 19.4719 61.342 14.1297C65.2514 19.5422 67.5514 23.9016 67.5514 25.9469ZM79.8311 57.125L78.3498 54.5532C77.692 53.4172 76.517 52.7391 75.2045 52.7391C73.8936 52.7391 72.717 53.4172 72.0576 54.5563L71.2654 55.9313C70.9701 56.4422 70.4795 56.4969 70.2826 56.4969C70.0857 56.4969 69.5951 56.4422 69.3014 55.9344L68.5076 54.5547C67.8498 53.4188 66.6732 52.7407 65.3623 52.7407C64.0514 52.7407 62.8748 53.4188 62.2154 54.5579L61.4232 55.9329C61.1279 56.4438 60.6373 56.4985 60.4404 56.4985C60.3358 56.4985 60.1467 56.4829 59.9498 56.3907C59.1154 49.0579 56.2889 43.1125 51.542 38.7125C47.0936 34.5891 41.1436 31.9891 33.8436 30.975V27.1438C33.8436 26.4532 33.2842 25.8954 32.5951 25.8954H27.0982C26.4076 25.8954 25.8498 26.4547 25.8498 27.1438V27.95H12.8076V23.5938H14.8311C15.5217 23.5938 16.0795 23.0344 16.0795 22.3454V15.2672C16.0795 14.5766 15.5201 14.0188 14.8311 14.0188H1.25137C0.560742 14.0188 0.00292969 14.5782 0.00292969 15.2672V72.2172C0.00292969 72.9079 0.562305 73.4657 1.25137 73.4657H78.7483C79.4389 73.4657 79.9967 72.9063 79.9967 72.2172V57.7469C79.9967 57.5282 79.9389 57.3141 79.8311 57.125ZM56.8326 52.9797C56.4233 52.8235 55.9811 52.7375 55.5217 52.7375C54.3764 52.7375 53.3373 53.2532 52.6592 54.136C52.2123 51.3954 51.4889 49.0297 50.467 46.9688C50.1607 46.35 49.4107 46.0985 48.7936 46.4047C48.1748 46.711 47.9233 47.461 48.2295 48.0782C49.3686 50.3766 50.0998 53.136 50.4545 56.4844C50.2201 56.4547 49.8592 56.3375 49.6232 55.9282L48.8264 54.55C48.1686 53.4141 46.992 52.736 45.6811 52.736C45.4514 52.736 45.2264 52.7579 45.0061 52.7985C43.8342 45.5547 40.0873 41.1954 33.8467 39.8141V33.4954C46.2764 35.336 54.2889 42.1625 56.8326 52.9797ZM28.3498 28.3907H31.3482V42.9844H28.3498V28.3907ZM27.0998 45.4829H32.5967C33.2873 45.4829 33.8451 44.9235 33.8451 44.2344V42.386C39.0092 43.7469 41.9123 47.6625 42.6936 54.3079C42.6389 54.3875 42.5873 54.4688 42.5389 54.5516L41.7404 55.9313C41.4482 56.4391 40.9576 56.4938 40.7607 56.4938C40.5639 56.4938 40.0748 56.4391 39.7795 55.9282L38.9826 54.55C38.3248 53.4141 37.1498 52.736 35.8373 52.736C34.5217 52.736 33.3467 53.4157 32.6967 54.5516L31.8982 55.9313C31.6061 56.4391 31.1154 56.4938 30.9186 56.4938C30.7217 56.4938 30.2326 56.4391 29.9373 55.9282L29.1404 54.55C28.4826 53.4141 27.3092 52.736 25.9998 52.736C24.6889 52.736 23.5123 53.4141 22.8545 54.5516L22.0561 55.9313C21.7639 56.4391 21.2732 56.4938 21.0764 56.4938C20.8795 56.4938 20.3904 56.4391 20.0951 55.9282L19.2998 54.5547C18.6467 53.4157 17.4717 52.736 16.1561 52.736C14.8451 52.736 13.6686 53.4141 13.0107 54.5516L12.8029 54.911V43.4266H25.8467V44.2329C25.8514 44.9235 26.4107 45.4829 27.0998 45.4829ZM25.8514 30.4469V40.9313H12.8076V30.4469H25.8514ZM2.50137 18.8688V16.5172H13.5826V21.0969H2.50137V18.8688ZM2.50137 23.5938H10.3092V70.9688H2.50137V23.5938ZM77.4983 70.9688H12.8076V66.2954C13.4592 65.9844 14.0076 65.4844 14.3811 64.8391L15.1764 63.4594C15.392 63.0875 15.7311 62.8907 16.1592 62.8907C16.5857 62.8907 16.9232 63.086 17.1373 63.4563L17.9342 64.8391C18.5889 65.9719 19.7639 66.65 21.0779 66.65C22.392 66.65 23.567 65.9735 24.2217 64.8391L25.0186 63.4594C25.2342 63.0875 25.5732 62.8907 26.0014 62.8907C26.4264 62.8907 26.7654 63.0875 26.9795 63.4563L27.7764 64.8391C28.4311 65.9735 29.6061 66.65 30.9201 66.65C32.2342 66.65 33.4092 65.9735 34.0639 64.8391L34.8623 63.4547C35.0732 63.086 35.4107 62.8907 35.8389 62.8907C36.267 62.8907 36.6061 63.0875 36.8217 63.4563L37.6186 64.8391C38.2732 65.9719 39.4482 66.65 40.7623 66.65C42.0764 66.65 43.2514 65.9735 43.9061 64.8391L44.7045 63.4547C44.9154 63.086 45.2529 62.8907 45.6811 62.8907C46.1092 62.8907 46.4482 63.0875 46.6639 63.4563L47.4607 64.8391C48.1139 65.9719 49.2873 66.6485 50.5982 66.65H50.6029C51.9154 66.65 53.0904 65.9735 53.7482 64.8391L54.5467 63.4547C54.7576 63.086 55.0951 62.8907 55.5233 62.8907C55.9514 62.8907 56.2904 63.0875 56.5045 63.4547L57.2998 64.8422C57.9561 65.975 59.1326 66.65 60.4436 66.65C61.7561 66.65 62.9311 65.9735 63.5904 64.836L64.3811 63.4579C64.5967 63.086 64.9357 62.8891 65.3639 62.8891C65.792 62.8891 66.1311 63.086 66.3451 63.4532L67.1404 64.8407C67.7967 65.9735 68.9717 66.6485 70.2842 66.6485C71.5967 66.6485 72.7717 65.9719 73.4311 64.8344L74.2217 63.4563C74.4373 63.0844 74.7764 62.8875 75.2045 62.8875C75.6326 62.8875 75.9717 63.0844 76.1858 63.4532L77.4983 65.7329V70.9688ZM77.4983 61.2047C76.8639 60.6844 76.0639 60.3922 75.2045 60.3922C73.8936 60.3922 72.717 61.0704 72.0576 62.211L71.267 63.5875C70.9717 64.0954 70.4811 64.1516 70.2842 64.1516C70.0873 64.1516 69.5951 64.0969 69.3029 63.5938L68.5076 62.2079C67.8498 61.0719 66.6732 60.3938 65.3623 60.3938C64.0514 60.3938 62.8748 61.0719 62.2154 62.2125L61.4248 63.5891C61.1295 64.0969 60.6389 64.1532 60.442 64.1532C60.2451 64.1532 59.7529 64.0985 59.4607 63.5954L58.6654 62.2094C58.0076 61.0735 56.8326 60.3954 55.5201 60.3954C54.2045 60.3954 53.0295 61.075 52.3779 62.211L51.5826 63.5907C51.2873 64.0985 50.7982 64.1547 50.5998 64.1547H50.5982C50.4014 64.1547 49.9139 64.1 49.6217 63.5938L48.8232 62.2094C48.1654 61.0735 46.9889 60.3954 45.6779 60.3954C44.3623 60.3954 43.1873 61.075 42.5373 62.211L41.7404 63.5922C41.4482 64.0985 40.9576 64.1532 40.7607 64.1532C40.5639 64.1532 40.0732 64.0985 39.7811 63.5922L38.9826 62.2079C38.3248 61.0719 37.1498 60.3938 35.8373 60.3938C34.5217 60.3938 33.3467 61.0735 32.6951 62.2094L31.8982 63.5907C31.6061 64.0969 31.1154 64.1516 30.9186 64.1516C30.7217 64.1516 30.2311 64.0969 29.9389 63.5907L29.1404 62.2063C28.4826 61.0704 27.3092 60.3922 25.9998 60.3922C24.6889 60.3922 23.5123 61.0704 22.8545 62.2079L22.0576 63.5891C21.7654 64.0954 21.2748 64.15 21.0779 64.15C20.8811 64.15 20.3904 64.0954 20.0982 63.5891L19.3029 62.2094C18.6498 61.0704 17.4748 60.3907 16.1592 60.3907C14.8482 60.3907 13.6717 61.0688 13.0139 62.2063L12.8076 62.5641V58.6407C13.4607 58.3297 14.0092 57.8282 14.3811 57.1813L15.1779 55.8047C15.3936 55.4329 15.7326 55.236 16.1607 55.236C16.5873 55.236 16.9248 55.4313 17.1389 55.8032L17.9342 57.1782C18.5889 58.3141 19.7639 58.9938 21.0779 58.9938C22.392 58.9938 23.5686 58.3157 24.2201 57.1813L25.017 55.8032C25.2326 55.4313 25.5717 55.2344 25.9998 55.2344C26.4248 55.2344 26.7639 55.4313 26.9779 55.8016L27.7732 57.1766C28.4279 58.3125 29.6029 58.9922 30.917 58.9922C32.2311 58.9922 33.4076 58.3141 34.0592 57.1797L34.8592 55.7985C35.0701 55.4297 35.4076 55.2344 35.8357 55.2344C36.2639 55.2344 36.6029 55.4313 36.8186 55.8016L37.6139 57.1766C38.2686 58.3125 39.4436 58.9922 40.7576 58.9922C42.0717 58.9922 43.2482 58.3141 43.8998 57.1797L44.6998 55.7969C44.9107 55.4282 45.2482 55.2329 45.6764 55.2329C46.1045 55.2329 46.4436 55.4297 46.6592 55.8L47.4545 57.175C48.1076 58.311 49.2811 58.9891 50.5936 58.9907H50.5982C51.9107 58.9907 53.0858 58.3125 53.742 57.1782L54.542 55.7969C54.7529 55.4282 55.0904 55.2329 55.5186 55.2329C55.9467 55.2329 56.2858 55.4297 56.4998 55.7985L57.2936 57.1782C57.9498 58.3125 59.1264 58.9907 60.4389 58.9907C61.7514 58.9907 62.9279 58.3125 63.5858 57.175L64.3764 55.8C64.592 55.4282 64.9311 55.2313 65.3592 55.2313C65.7873 55.2313 66.1264 55.4282 66.3404 55.7969L67.1342 57.1766C67.7904 58.3125 68.967 58.9891 70.2795 58.9891C71.592 58.9891 72.7686 58.311 73.4264 57.1735L74.217 55.7985C74.4326 55.4266 74.7717 55.2297 75.1998 55.2297C75.6279 55.2297 75.967 55.4266 76.1811 55.7954L77.4936 58.075V61.2047H77.4983ZM60.5389 26.0547L63.4076 23.1891C63.5237 23.0731 63.6615 22.9811 63.8132 22.9184C63.9649 22.8557 64.1274 22.8235 64.2915 22.8237C64.4557 22.8238 64.6181 22.8563 64.7697 22.9193C64.9212 22.9822 65.0589 23.0745 65.1748 23.1907C65.6623 23.6782 65.6623 24.4704 65.1732 24.9563L61.4217 28.7032C61.1779 28.9469 60.8576 29.0688 60.5389 29.0688C60.2201 29.0688 59.8998 28.9469 59.6561 28.7032L57.5029 26.5547C57.0154 26.0672 57.0139 25.2766 57.5014 24.7891C57.9889 24.3016 58.7795 24.3 59.267 24.7875L60.5389 26.0547ZM37.4264 38.036C37.6654 37.3891 38.3826 37.0563 39.0295 37.2954C41.9686 38.3782 44.3451 39.7438 46.2967 41.475C46.8123 41.9329 46.8607 42.7219 46.4029 43.2375C46.2858 43.3698 46.142 43.4756 45.9809 43.5481C45.8198 43.6205 45.6452 43.6579 45.4686 43.6579C45.1732 43.6579 44.8779 43.5547 44.6404 43.3438C42.9264 41.8235 40.8092 40.6125 38.1686 39.6391C38.0143 39.5829 37.8727 39.4968 37.7519 39.3857C37.6311 39.2746 37.5334 39.1407 37.4644 38.9917C37.3954 38.8428 37.3566 38.6817 37.3501 38.5177C37.3435 38.3536 37.3695 38.1899 37.4264 38.036ZM46.4014 16.4875C48.9279 10.4407 54.792 6.53442 61.342 6.53442C68.9467 6.53442 75.4045 11.7704 77.0904 18.9954L77.7217 18.086C78.1154 17.5188 78.8936 17.3797 79.4607 17.7735C79.7326 17.9628 79.9183 18.2523 79.9769 18.5784C80.0355 18.9044 79.9622 19.2404 79.7732 19.5125L77.2936 23.0829C77.1785 23.2483 77.0253 23.3835 76.8469 23.4771C76.6684 23.5707 76.47 23.6198 76.2686 23.6204C76.0133 23.6205 75.7641 23.5426 75.5545 23.3969L71.9842 20.9125C71.8495 20.8188 71.7346 20.6995 71.6461 20.5614C71.5575 20.4232 71.4971 20.269 71.4682 20.1075C71.4394 19.946 71.4426 19.7803 71.4778 19.6201C71.513 19.4598 71.5794 19.3081 71.6732 19.1735C71.767 19.0388 71.8863 18.9239 72.0244 18.8354C72.1626 18.7468 72.3168 18.6864 72.4783 18.6575C72.6398 18.6287 72.8055 18.6319 72.9657 18.6671C73.126 18.7023 73.2777 18.7687 73.4123 18.8625L74.6998 19.7579C73.342 13.5532 67.8389 9.03599 61.3436 9.03599C55.8045 9.03599 50.8451 12.3407 48.7076 17.4547C48.442 18.0907 47.7092 18.3922 47.0732 18.125C46.4357 17.8547 46.1357 17.1235 46.4014 16.4875ZM42.8998 25.5704L45.3795 22C45.5686 21.7282 45.8576 21.5422 46.1842 21.4829C46.5107 21.4235 46.8467 21.4969 47.1186 21.686L50.6936 24.1704C51.2592 24.5641 51.3998 25.3422 51.0061 25.9094C50.6123 26.4766 49.8342 26.6157 49.267 26.2219L47.8936 25.2672C49.092 31.6922 54.6639 36.3922 61.3404 36.3922C66.8795 36.3922 71.8373 33.0891 73.9717 27.9782C74.0994 27.6724 74.3433 27.4299 74.6498 27.3039C74.9563 27.1779 75.3002 27.1788 75.6061 27.3063C75.9118 27.434 76.1543 27.6779 76.2803 27.9844C76.4063 28.2909 76.4054 28.6348 76.2779 28.9407C73.7545 34.9844 67.892 38.8907 61.342 38.8907C57.2826 38.8907 53.4014 37.3813 50.4108 34.6422C47.9264 32.3657 46.2373 29.4047 45.5326 26.1594L44.9529 26.9954C44.8379 27.161 44.6844 27.2963 44.5056 27.3896C44.3268 27.4829 44.1281 27.5316 43.9264 27.5313C43.6811 27.5313 43.4326 27.4594 43.2154 27.3079C42.6467 26.9157 42.5076 26.1375 42.8998 25.5704Z" fill="#CBFF46"/>
</svg>
