<svg width="80" height="80" viewBox="0 0 80 80" fill="none" xmlns="http://www.w3.org/2000/svg">
<path d="M70 5H10C8.67432 5.00132 7.40332 5.52853 6.46593 6.46593C5.52853 7.40332 5.00132 8.67432 5 10V70C5.00132 71.3257 5.52853 72.5967 6.46593 73.5341C7.40332 74.4715 8.67432 74.9987 10 75H70C71.3257 74.9987 72.5967 74.4715 73.5341 73.5341C74.4715 72.5967 74.9987 71.3257 75 70V10C74.9987 8.67432 74.4715 7.40332 73.5341 6.46593C72.5967 5.52853 71.3257 5.00132 70 5ZM61.875 64.375V72.5H18.125V64.375C18.1243 63.7122 17.8607 63.0767 17.392 62.608C16.9233 62.1393 16.2878 61.8757 15.625 61.875H7.5V18.125H15.625C16.2878 18.1243 16.9233 17.8607 17.392 17.392C17.8607 16.9233 18.1243 16.2878 18.125 15.625V7.5H61.875V15.625C61.8757 16.2878 62.1393 16.9233 62.608 17.392C63.0767 17.8607 63.7122 18.1243 64.375 18.125H72.5V61.875H64.375C63.7122 61.8757 63.0767 62.1393 62.608 62.608C62.1393 63.0767 61.8757 63.7122 61.875 64.375ZM72.5 10V15.625H64.375V7.5H70C70.6628 7.50066 71.2983 7.76427 71.767 8.23296C72.2357 8.70166 72.4993 9.33716 72.5 10ZM10 7.5H15.625V15.625H7.5V10C7.50066 9.33716 7.76427 8.70166 8.23296 8.23296C8.70166 7.76427 9.33716 7.50066 10 7.5ZM7.5 70V64.375H15.625V72.5H10C9.33716 72.4993 8.70166 72.2357 8.23296 71.767C7.76427 71.2983 7.50066 70.6628 7.5 70ZM70 72.5H64.375V64.375H72.5V70C72.4993 70.6628 72.2357 71.2983 71.767 71.767C71.2983 72.2357 70.6628 72.4993 70 72.5Z" fill="#CBFF46"/>
<path d="M40 10.625C32.212 10.6339 24.7456 13.7317 19.2386 19.2386C13.7317 24.7456 10.6339 32.212 10.625 40C12.2375 78.97 67.7675 78.9587 69.375 40C69.3661 32.212 66.2683 24.7456 60.7614 19.2386C55.2544 13.7317 47.788 10.6339 40 10.625ZM40 66.875C32.8747 66.8671 26.0436 64.033 21.0053 58.9947C15.967 53.9564 13.1329 47.1253 13.125 40C14.6 4.34625 65.4038 4.3575 66.875 40C66.8671 47.1253 64.033 53.9564 58.9947 58.9947C53.9564 64.033 47.1253 66.8671 40 66.875Z" fill="#CBFF46"/>
<path d="M40 38.75C39.6685 38.75 39.3505 38.8817 39.1161 39.1161C38.8817 39.3505 38.75 39.6685 38.75 40C38.75 40.3315 38.8817 40.6495 39.1161 40.8839C39.3505 41.1183 39.6685 41.25 40 41.25C40.3315 41.25 40.6495 41.1183 40.8839 40.8839C41.1183 40.6495 41.25 40.3315 41.25 40C41.25 39.6685 41.1183 39.3505 40.8839 39.1161C40.6495 38.8817 40.3315 38.75 40 38.75ZM68.4375 12.8125C68.769 12.8125 69.087 12.6808 69.3214 12.4464C69.5558 12.212 69.6875 11.894 69.6875 11.5625C69.6875 11.231 69.5558 10.913 69.3214 10.6786C69.087 10.4442 68.769 10.3125 68.4375 10.3125C68.106 10.3125 67.788 10.4442 67.5536 10.6786C67.3192 10.913 67.1875 11.231 67.1875 11.5625C67.1875 11.894 67.3192 12.212 67.5536 12.4464C67.788 12.6808 68.106 12.8125 68.4375 12.8125ZM68.4375 67.1875C68.106 67.1875 67.788 67.3192 67.5536 67.5536C67.3192 67.788 67.1875 68.106 67.1875 68.4375C67.1875 68.769 67.3192 69.087 67.5536 69.3214C67.788 69.5558 68.106 69.6875 68.4375 69.6875C68.769 69.6875 69.087 69.5558 69.3214 69.3214C69.5558 69.087 69.6875 68.769 69.6875 68.4375C69.6875 68.106 69.5558 67.788 69.3214 67.5536C69.087 67.3192 68.769 67.1875 68.4375 67.1875ZM11.5625 67.1875C11.231 67.1875 10.913 67.3192 10.6786 67.5536C10.4442 67.788 10.3125 68.106 10.3125 68.4375C10.3125 68.769 10.4442 69.087 10.6786 69.3214C10.913 69.5558 11.231 69.6875 11.5625 69.6875C11.894 69.6875 12.212 69.5558 12.4464 69.3214C12.6808 69.087 12.8125 68.769 12.8125 68.4375C12.8125 68.106 12.6808 67.788 12.4464 67.5536C12.212 67.3192 11.894 67.1875 11.5625 67.1875ZM11.5625 12.8125C11.894 12.8125 12.212 12.6808 12.4464 12.4464C12.6808 12.212 12.8125 11.894 12.8125 11.5625C12.8125 11.231 12.6808 10.913 12.4464 10.6786C12.212 10.4442 11.894 10.3125 11.5625 10.3125C11.231 10.3125 10.913 10.4442 10.6786 10.6786C10.4442 10.913 10.3125 11.231 10.3125 11.5625C10.3125 11.894 10.4442 12.212 10.6786 12.4464C10.913 12.6808 11.231 12.8125 11.5625 12.8125Z" fill="#CBFF46"/>
<path d="M63.4423 43.6339C66.7423 23.0014 43.0398 8.52136 26.2311 20.6851C9.08358 33.0076 15.2836 59.9076 36.2073 63.4176C39.2948 63.9084 42.4488 63.7859 45.4889 63.0571C48.529 62.3283 51.3956 61.0075 53.925 59.1702C56.4543 57.3328 58.5968 55.015 60.2298 52.3492C61.8629 49.6833 62.9545 46.7218 63.4423 43.6339ZM61.2136 40.7164C59.4486 39.1806 57.3295 38.1078 55.0469 37.5944C52.7643 37.0809 50.3899 37.143 48.1373 37.7751C47.7754 36.4552 47.0976 35.2432 46.1623 34.2439C47.2229 32.1927 48.8709 30.5043 50.8957 29.3941C52.9204 28.284 55.2302 27.8026 57.5298 28.0114C60.1039 31.7344 61.3969 36.1938 61.2136 40.7164ZM39.9998 45.9451C32.1436 45.6951 32.1448 34.3039 39.9998 34.0551C47.8561 34.3051 47.8548 45.6964 39.9998 45.9451ZM55.4898 25.4989C53.1581 25.665 50.904 26.4069 48.9295 27.6583C46.955 28.9096 45.3217 30.6312 44.1761 32.6689C42.9911 31.9921 41.6587 31.6149 40.2948 31.5701C39.5937 29.3701 39.5653 27.0108 40.2134 24.7945C40.8614 22.5782 42.1564 20.6059 43.9323 19.1301C48.364 19.9701 52.4125 22.201 55.4898 25.4989ZM40.7173 18.7864C39.1821 20.5514 38.1094 22.6702 37.5958 24.9525C37.0822 27.2347 37.1437 29.6088 37.7748 31.8614C36.4547 32.2236 35.2427 32.9019 34.2436 33.8376C32.1935 32.7757 30.506 31.1275 29.3961 29.1031C28.2861 27.0786 27.804 24.7696 28.0111 22.4701C31.7345 19.8958 36.1944 18.6028 40.7173 18.7864ZM25.4998 24.5076C25.6661 26.8395 26.4079 29.0938 27.659 31.0686C28.91 33.0435 30.6313 34.6773 32.6686 35.8239C31.9911 37.0091 31.6135 38.3419 31.5686 39.7064C29.3683 40.4074 27.0088 40.4354 24.7925 39.7869C22.5761 39.1384 20.6039 37.8429 19.1286 36.0664C19.9689 31.6339 22.2008 27.5848 25.4998 24.5076ZM18.7873 39.2751C20.5502 40.815 22.669 41.8915 24.9522 42.4074C27.2354 42.9233 29.6111 42.8624 31.8648 42.2301C32.2274 43.5483 32.9053 44.7585 33.8398 45.7564C32.7786 47.8073 31.1304 49.4955 29.1055 50.6056C27.0806 51.7156 24.7709 52.1972 22.4711 51.9889C19.895 48.2635 18.6019 43.8006 18.7873 39.2751ZM24.5186 54.5089C26.8493 54.3392 29.1018 53.595 31.0747 52.3425C33.0476 51.09 34.6796 49.3684 35.8248 47.3314C37.0098 48.0082 38.3422 48.3854 39.7061 48.4301C40.4072 50.6302 40.4356 52.9895 39.7875 55.2057C39.1395 57.422 37.8445 59.3944 36.0686 60.8701C31.6405 60.0307 27.5949 57.8026 24.5186 54.5089ZM39.2836 61.2139C40.8188 59.4488 41.8915 57.33 42.4051 55.0477C42.9187 52.7655 42.8572 50.3914 42.2261 48.1389C43.5462 47.7766 44.7582 47.0983 45.7573 46.1626C47.8074 47.2245 49.4949 48.8727 50.6048 50.8972C51.7148 52.9216 52.1969 55.2307 51.9898 57.5301C48.2664 60.1045 43.8065 61.3975 39.2836 61.2139ZM54.4998 55.4926C54.3336 53.1607 53.5918 50.9065 52.3407 48.9316C51.0896 46.9567 49.3684 45.3229 47.3311 44.1764C48.0085 42.9911 48.3861 41.6583 48.4311 40.2939C50.6314 39.5932 52.9908 39.5653 55.2071 40.2138C57.4233 40.8623 59.3955 42.1576 60.8711 43.9339C60.0307 48.3663 57.7989 52.4154 54.4998 55.4926Z" fill="#CBFF46"/>
</svg>
