<svg width="80" height="80" viewBox="0 0 80 80" fill="none" xmlns="http://www.w3.org/2000/svg">
<g clip-path="url(#clip0_2028_2280)">
<path d="M76.9751 3.975C76.2501 3.225 75.2876 2.8125 74.2501 2.8125H63.1876C63.2001 2.275 63.2126 1.75 63.2126 1.2125C63.2126 0.890925 63.0848 0.582521 62.8574 0.355133C62.6301 0.127745 62.3217 0 62.0001 0L18.0001 0C17.3251 0 16.7876 0.5375 16.7876 1.2125C16.7876 1.75 16.8001 2.2875 16.8126 2.8125H5.75008C4.71258 2.8125 3.75008 3.225 3.02508 3.975C2.31258 4.725 1.93758 5.7125 1.98758 6.8C2.08758 8.275 2.77508 16.0125 6.87508 23.8875C11.9251 33.575 20.1876 39.5625 30.7876 41.2125C31.6751 41.9375 32.5876 42.55 33.5251 43.0625C34.3501 51.2 32.9626 58.5375 29.5126 64.4H22.8251C22.1501 64.4 21.6126 64.9375 21.6126 65.6125V70.8875H18.6501C18.1501 70.8875 17.7126 71.1875 17.5251 71.65L14.8626 78.35C14.7126 78.725 14.7626 79.15 14.9876 79.475C15.2126 79.8125 15.5876 80.0125 15.9876 80.0125H64.0001C64.4001 80.0125 64.7751 79.8125 65.0001 79.475C65.2251 79.1375 65.2751 78.725 65.1251 78.35L62.4626 71.65C62.3733 71.4247 62.2182 71.2314 62.0175 71.0955C61.8169 70.9595 61.58 70.887 61.3376 70.8875H58.3751V65.6125C58.3751 64.9375 57.8376 64.4 57.1626 64.4H50.4876C47.0376 58.5375 45.6501 51.2 46.4751 43.0625C47.4126 42.55 48.3251 41.9375 49.2001 41.225C59.8251 39.5625 68.1001 33.575 73.1126 23.9C77.2126 16.025 77.9001 8.275 78.0001 6.75C78.0626 5.7125 77.6876 4.725 76.9751 3.975ZM62.6876 10.3375H69.9876C68.9876 15.675 65.9626 25.375 57.1251 30.5875C59.8501 24.9875 61.8126 18.0375 62.6876 10.3375ZM60.7751 2.425C60.7376 4.7 60.6126 6.925 60.4001 9.1C60.4001 9.1125 60.3876 9.125 60.3876 9.1375V9.15C59.4751 18.4 56.9876 26.55 53.5001 32.4625C53.3626 32.6 53.2751 32.7625 53.2251 32.9375C51.7251 35.3875 50.0626 37.425 48.2626 38.975C48.1001 39.05 47.9751 39.175 47.8626 39.3125C46.9376 40.0625 45.9751 40.6875 45.0001 41.1625C44.9251 41.175 44.8751 41.225 44.8126 41.25C43.2751 41.975 41.6626 42.375 40.0126 42.375C38.3501 42.375 36.7376 41.975 35.1876 41.25C35.1251 41.225 35.0751 41.1875 35.0126 41.175C34.0251 40.6875 33.0751 40.075 32.1501 39.325C32.0455 39.1903 31.9134 39.0795 31.7626 39C29.9626 37.45 28.2876 35.4 26.7876 32.95C26.7317 32.7707 26.633 32.6077 26.5001 32.475C23.0126 26.5625 20.5376 18.4125 19.6126 9.175V9.15C19.6126 9.125 19.6001 9.1125 19.6001 9.0875C19.4357 7.41221 19.3232 5.73224 19.2626 4.05C19.2501 3.5125 19.2251 2.9875 19.2251 2.45H60.7751V2.425ZM22.8626 30.5875C14.0376 25.375 11.0126 15.675 10.0126 10.3375H17.3001C18.1751 18.0375 20.1376 24.9875 22.8626 30.5875ZM9.02508 22.775C5.06258 15.175 4.46258 7.5 4.41258 6.6375C4.40008 6.2625 4.52508 5.9125 4.78758 5.65C5.03758 5.3875 5.37508 5.2375 5.75008 5.2375H16.8876C16.9376 6.1375 16.9876 7.025 17.0626 7.9125H8.57508C8.401 7.91132 8.22883 7.94883 8.07102 8.02234C7.91321 8.09584 7.7737 8.20349 7.66258 8.3375C7.42508 8.6 7.32508 8.9625 7.37508 9.3125C8.22508 15.0375 11.6501 28.8625 24.9251 34.3375C25.7751 35.7125 26.6876 36.9625 27.6376 38.1C19.4501 35.9125 13.1876 30.775 9.02508 22.775ZM62.2126 77.575H17.7751L19.4751 73.3H60.5251L62.2126 77.575ZM55.9626 70.8875H24.0376V66.825H55.9626V70.8875ZM47.7251 64.4H32.2751C35.3126 58.65 36.5876 51.725 36.0376 44.15C37.3251 44.5625 38.6501 44.8 40.0001 44.8C41.3501 44.8 42.6751 44.575 43.9626 44.15C43.4001 51.725 44.6876 58.65 47.7251 64.4ZM70.9626 22.775C66.8126 30.7625 60.5626 35.9 52.3376 38.0875C53.2876 36.9625 54.2001 35.7 55.0501 34.325C68.3251 28.8625 71.7501 15.025 72.6126 9.3C72.6626 8.95 72.5626 8.6 72.3376 8.325C72.2246 8.19313 72.0848 8.08697 71.9274 8.01367C71.77 7.94036 71.5987 7.9016 71.4251 7.9H62.9376C63.0126 7.0125 63.0626 6.125 63.1126 5.225H74.2626C74.6376 5.225 74.9751 5.375 75.2376 5.6375C75.4876 5.9 75.6251 6.25 75.6126 6.625C75.5376 7.5 74.9251 15.175 70.9626 22.775Z" fill="#CBFF46"/>
<path d="M33.575 21.6874L32.475 28.1124C32.4467 28.287 32.4565 28.4657 32.5036 28.6361C32.5507 28.8066 32.6341 28.9649 32.7481 29.1002C32.862 29.2355 33.0038 29.3446 33.1638 29.4201C33.3237 29.4955 33.4981 29.5355 33.675 29.5374C33.8625 29.5374 34.0625 29.4874 34.2375 29.3999L40 26.3499L45.7625 29.3874C46.175 29.5999 46.6625 29.5624 47.0375 29.2999C47.4125 29.0249 47.6 28.5749 47.525 28.1124L46.425 21.6874L51.0875 17.1374C51.4125 16.8124 51.5375 16.3374 51.4 15.8999C51.2625 15.4624 50.875 15.1374 50.425 15.0749L43.975 14.1374L41.0875 8.2999C40.675 7.4749 39.325 7.4749 38.9125 8.2999L36.025 14.1374L29.575 15.0749C29.1125 15.1374 28.7375 15.4624 28.6 15.8999C28.4625 16.3374 28.575 16.8249 28.9125 17.1374L33.575 21.6874ZM37 16.4499C37.1947 16.4227 37.3798 16.348 37.5389 16.2325C37.698 16.117 37.8263 15.9641 37.9125 15.7874L40 11.5749L42.075 15.7874C42.25 16.1499 42.5875 16.3874 42.9875 16.4499L47.6375 17.1249L44.275 20.3999C43.9875 20.6749 43.8625 21.0749 43.925 21.4749L44.7125 26.0999L40.5625 23.9124C40.3875 23.8249 40.1875 23.7749 40 23.7749C39.8 23.7749 39.6125 23.8249 39.4375 23.9124L35.2875 26.0999L36.0875 21.4749C36.1196 21.2808 36.1045 21.0818 36.0436 20.8947C35.9827 20.7076 35.8777 20.5379 35.7375 20.3999L32.375 17.1249L37 16.4499Z" fill="#CBFF46"/>
</g>
<defs>
<clipPath id="clip0_2028_2280">
<rect width="80" height="80" fill="white"/>
</clipPath>
</defs>
</svg>
