<svg width="80" height="80" viewBox="0 0 80 80" fill="none" xmlns="http://www.w3.org/2000/svg">
<path fill-rule="evenodd" clip-rule="evenodd" d="M73.709 0.15625H6.29119C3.99307 0.15625 2.12354 2.02578 2.12354 4.32375V75.6763C2.12354 77.9742 3.99307 79.8438 6.29119 79.8438H73.7092C76.0073 79.8438 77.8768 77.9742 77.8768 75.6763V4.32375C77.8767 2.02578 76.0071 0.15625 73.709 0.15625ZM75.2204 75.6763C75.2204 76.5094 74.5424 77.1875 73.709 77.1875H6.29119C5.45791 77.1875 4.77979 76.5094 4.77979 75.6763V4.32375C4.77979 3.49063 5.45775 2.8125 6.29119 2.8125H73.7092C74.5424 2.8125 75.2206 3.49063 75.2206 4.32375V75.6763H75.2204ZM67.3593 6.92109H12.6407C10.1813 6.92109 8.18057 8.92219 8.18057 11.3812V21.5439C8.18057 24.003 10.1813 26.0041 12.6407 26.0041H67.3592C69.8185 26.0041 71.8195 24.003 71.8195 21.5439V11.3812C71.8196 8.92219 69.8187 6.92109 67.3593 6.92109ZM69.1634 21.5439C69.1634 22.5384 68.3542 23.3478 67.3593 23.3478H12.6407C11.646 23.3478 10.8368 22.5384 10.8368 21.5439V11.3812C10.8368 10.3867 11.646 9.57734 12.6407 9.57734H67.3592C68.354 9.57734 69.1632 10.3867 69.1632 11.3812L69.1634 21.5439ZM63.5753 16.4623C63.5753 16.8146 63.4353 17.1524 63.1863 17.4015C62.9372 17.6505 62.5994 17.7905 62.2471 17.7905H44.6213C44.2691 17.7905 43.9313 17.6505 43.6822 17.4015C43.4331 17.1524 43.2932 16.8146 43.2932 16.4623C43.2932 16.1101 43.4331 15.7723 43.6822 15.5232C43.9313 15.2741 44.2691 15.1342 44.6213 15.1342H62.2471C62.9806 15.1342 63.5753 15.7291 63.5753 16.4623ZM19.0273 16.4623C19.0273 17.4844 18.1937 18.3178 17.1718 18.3178C16.1499 18.3178 15.3165 17.4844 15.3165 16.4623C15.3165 15.4403 16.1499 14.6069 17.1718 14.6069C18.1937 14.6069 19.0273 15.4403 19.0273 16.4623ZM26.0134 16.4623C26.0134 17.4844 25.1799 18.3178 24.1581 18.3178C23.136 18.3178 22.3026 17.4844 22.3026 16.4623C22.3026 15.4403 23.136 14.6069 24.1581 14.6069C25.1799 14.6069 26.0134 15.4403 26.0134 16.4623ZM32.9996 16.4623C32.9996 17.4844 32.166 18.3178 31.1442 18.3178C30.1221 18.3178 29.2887 17.4844 29.2887 16.4623C29.2887 15.4403 30.1221 14.6069 31.1442 14.6069C32.166 14.6069 32.9996 15.4403 32.9996 16.4623ZM67.3593 30.4584H12.6407C10.1813 30.4584 8.18057 32.4595 8.18057 34.9186V45.0812C8.18057 47.5406 10.1813 49.5414 12.6407 49.5414H67.3592C69.8185 49.5414 71.8195 47.5406 71.8195 45.0812V34.9186C71.8196 32.4594 69.8187 30.4584 67.3593 30.4584ZM69.1634 45.0812C69.1634 46.0761 68.3542 46.8852 67.3593 46.8852H12.6407C11.646 46.8852 10.8368 46.0761 10.8368 45.0812V34.9186C10.8368 33.9241 11.646 33.1147 12.6407 33.1147H67.3592C68.354 33.1147 69.1632 33.9241 69.1632 34.9186L69.1634 45.0812ZM63.5753 40C63.5753 40.7333 62.9806 41.3281 62.2471 41.3281H44.6213C44.2726 41.3228 43.94 41.1805 43.6953 40.932C43.4506 40.6835 43.3134 40.3488 43.3134 40C43.3134 39.6512 43.4506 39.3165 43.6953 39.068C43.94 38.8195 44.2726 38.6772 44.6213 38.6719H62.2471C62.5994 38.6719 62.9372 38.8118 63.1863 39.0609C63.4353 39.3099 63.5753 39.6478 63.5753 40ZM19.0273 40C19.0273 41.022 18.1937 41.8555 17.1718 41.8555C16.1499 41.8555 15.3165 41.022 15.3165 40C15.3165 38.978 16.1499 38.1445 17.1718 38.1445C18.1937 38.1445 19.0273 38.978 19.0273 40ZM26.0134 40C26.0134 41.022 25.1799 41.8555 24.1581 41.8555C23.136 41.8555 22.3026 41.022 22.3026 40C22.3026 38.978 23.136 38.1445 24.1581 38.1445C25.1799 38.1445 26.0134 38.978 26.0134 40ZM32.9996 40C32.9996 41.022 32.166 41.8555 31.1442 41.8555C30.1221 41.8555 29.2887 41.022 29.2887 40C29.2887 38.978 30.1221 38.1445 31.1442 38.1445C32.166 38.1445 32.9996 38.978 32.9996 40ZM67.3593 53.9959H12.6407C10.1813 53.9959 8.18057 55.997 8.18057 58.4561V68.6188C8.18057 71.0781 10.1813 73.0789 12.6407 73.0789H67.3592C69.8185 73.0789 71.8195 71.0781 71.8195 68.6188V58.4561C71.8196 55.997 69.8187 53.9959 67.3593 53.9959ZM69.1634 68.6188C69.1634 69.6136 68.3542 70.4227 67.3593 70.4227H12.6407C11.646 70.4227 10.8368 69.6136 10.8368 68.6188V58.4561C10.8368 57.4616 11.646 56.6522 12.6407 56.6522H67.3592C68.354 56.6522 69.1632 57.4616 69.1632 58.4561L69.1634 68.6188ZM63.5753 63.5377C63.5753 64.2709 62.9806 64.8658 62.2471 64.8658H44.6213C44.2726 64.8604 43.94 64.7182 43.6953 64.4697C43.4506 64.2212 43.3134 63.8864 43.3134 63.5377C43.3134 63.1889 43.4506 62.8541 43.6953 62.6056C43.94 62.3572 44.2726 62.2149 44.6213 62.2095H62.2471C62.5994 62.2095 62.9372 62.3495 63.1863 62.5985C63.4353 62.8476 63.5753 63.1854 63.5753 63.5377ZM19.0273 63.5373C19.0273 64.5594 18.1937 65.3931 17.1718 65.3931C16.1499 65.3931 15.3165 64.5594 15.3165 63.5373C15.3165 62.5156 16.1499 61.6822 17.1718 61.6822C18.1937 61.6822 19.0273 62.5156 19.0273 63.5373ZM26.0134 63.5373C26.0134 64.5594 25.1799 65.3931 24.1581 65.3931C23.136 65.3931 22.3026 64.5594 22.3026 63.5373C22.3026 62.5156 23.136 61.6822 24.1581 61.6822C25.1799 61.6822 26.0134 62.5156 26.0134 63.5373ZM32.9996 63.5373C32.9996 64.5594 32.166 65.3931 31.1442 65.3931C30.1221 65.3931 29.2887 64.5594 29.2887 63.5373C29.2887 62.5156 30.1221 61.6822 31.1442 61.6822C32.166 61.6822 32.9996 62.5156 32.9996 63.5373Z" fill="#CBFF46"/>
</svg>
