<svg width="80" height="80" viewBox="0 0 80 80" fill="none" xmlns="http://www.w3.org/2000/svg">
    <path
        d="M16.2521 2.49902C15.2591 2.50275 14.3078 2.89852 13.6053 3.60019C12.9027 4.30186 12.5058 5.25263 12.5008 6.24555V46.2479C12.5008 47.9157 15.0048 47.9157 15.0048 46.2479V15.0048H64.9947V46.2479C64.9569 47.9487 67.5365 47.9487 67.4987 46.2479V6.24555C67.4938 5.25344 67.0974 4.30338 66.3959 3.60184C65.6944 2.90031 64.7443 2.50399 63.7522 2.49902H16.2521ZM16.2521 5.00301H63.7522C64.4609 5.00301 64.9947 5.53215 64.9947 6.24555V12.5008H15.0048V6.24555C15.0048 5.53215 15.5339 4.99829 16.2473 4.99829L16.2521 5.00301ZM18.7513 7.49755C18.5869 7.49755 18.4241 7.52993 18.2722 7.59285C18.1203 7.65577 17.9823 7.74799 17.866 7.86425C17.7498 7.98051 17.6575 8.11852 17.5946 8.27042C17.5317 8.42232 17.4993 8.58513 17.4993 8.74954C17.4993 8.91395 17.5317 9.07676 17.5946 9.22866C17.6575 9.38056 17.7498 9.51858 17.866 9.63483C17.9823 9.75109 18.1203 9.84331 18.2722 9.90623C18.4241 9.96915 18.5869 10.0015 18.7513 10.0015C19.0834 10.0015 19.4018 9.86963 19.6366 9.63483C19.8714 9.40004 20.0033 9.08159 20.0033 8.74954C20.0033 8.41749 19.8714 8.09904 19.6366 7.86425C19.4018 7.62945 19.0834 7.49755 18.7513 7.49755ZM23.7498 7.49755C23.5854 7.49755 23.4226 7.52993 23.2707 7.59285C23.1188 7.65577 22.9808 7.74799 22.8645 7.86425C22.7483 7.98051 22.6561 8.11852 22.5931 8.27042C22.5302 8.42232 22.4978 8.58513 22.4978 8.74954C22.4978 8.91395 22.5302 9.07676 22.5931 9.22866C22.6561 9.38056 22.7483 9.51858 22.8645 9.63483C22.9808 9.75109 23.1188 9.84331 23.2707 9.90623C23.4226 9.96915 23.5854 10.0015 23.7498 10.0015C24.0819 10.0015 24.4003 9.86963 24.6351 9.63483C24.8699 9.40004 25.0018 9.08159 25.0018 8.74954C25.0018 8.41749 24.8699 8.09904 24.6351 7.86425C24.4003 7.62945 24.0819 7.49755 23.7498 7.49755ZM28.7484 7.49755C28.5839 7.49755 28.4211 7.52993 28.2692 7.59285C28.1173 7.65577 27.9793 7.74799 27.8631 7.86425C27.7468 7.98051 27.6546 8.11852 27.5917 8.27042C27.5288 8.42232 27.4964 8.58513 27.4964 8.74954C27.4964 8.91395 27.5288 9.07676 27.5917 9.22866C27.6546 9.38056 27.7468 9.51858 27.8631 9.63483C27.9793 9.75109 28.1173 9.84331 28.2692 9.90623C28.4211 9.96915 28.5839 10.0015 28.7484 10.0015C29.0804 10.0015 29.3989 9.86963 29.6337 9.63483C29.8684 9.40004 30.0004 9.08159 30.0004 8.74954C30.0004 8.41749 29.8684 8.09904 29.6337 7.86425C29.3989 7.62945 29.0804 7.49755 28.7484 7.49755ZM46.1865 7.49755C44.4999 7.61566 44.6132 10.0441 46.2479 10.0015H61.2529C62.8829 9.96374 62.8829 7.53534 61.2529 7.49755H46.1865ZM6.255 10.0015C5.26163 10.0052 4.30987 10.4009 3.60656 11.1024C2.90325 11.8039 2.50524 12.7547 2.49902 13.7481V58.749C2.49902 60.8041 4.19984 62.4955 6.255 62.4955H73.7492C74.7414 62.4905 75.6914 62.0942 76.393 61.3927C77.0945 60.6911 77.4908 59.7411 77.4958 58.749V13.7481C77.4908 12.756 77.0945 11.8059 76.393 11.1044C75.6914 10.4028 74.7414 10.0065 73.7492 10.0015H71.2453C69.5444 9.96374 69.5444 12.5386 71.2453 12.5008H73.7492C74.4626 12.5008 74.9918 13.0299 74.9918 13.7481V49.9992H4.99829V13.7481C4.99829 13.0299 5.5416 12.5008 6.255 12.5008H8.74482C10.4456 12.5386 10.4456 9.96374 8.74482 9.99681L6.255 10.0015ZM43.7676 19.9797C43.4996 19.9773 43.238 20.0609 43.0212 20.2182C42.8043 20.3756 42.6437 20.5983 42.5628 20.8537L35.0603 43.3518C34.5312 44.9345 36.9029 45.7282 37.4367 44.1455L44.9392 21.6427C45.0045 21.4549 45.0241 21.2543 44.9965 21.0574C44.9688 20.8605 44.8946 20.6731 44.7801 20.5105C44.6656 20.348 44.5141 20.2151 44.338 20.1228C44.1619 20.0305 43.9664 19.9814 43.7676 19.9797ZM49.2007 27.2082L55.5457 32.4996L49.2007 37.7958C47.8448 38.8541 49.5173 40.8573 50.8071 39.7139L58.2954 33.4634C58.4354 33.3459 58.5481 33.1991 58.6253 33.0334C58.7026 32.8678 58.7426 32.6872 58.7426 32.5043C58.7426 32.3215 58.7026 32.1409 58.6253 31.9752C58.5481 31.8095 58.4354 31.6628 58.2954 31.5453L50.8023 25.29C50.5606 25.0878 50.2528 24.9818 49.9378 24.9924C48.7566 25.0963 48.3314 26.5042 49.2007 27.2129V27.2082ZM29.972 24.9877C29.689 24.9969 29.4176 25.1019 29.2019 25.2853L21.7041 31.5405C21.5641 31.6581 21.4515 31.8048 21.3742 31.9705C21.2969 32.1362 21.2569 32.3168 21.2569 32.4996C21.2569 32.6824 21.2969 32.863 21.3742 33.0287C21.4515 33.1944 21.5641 33.3412 21.7041 33.4587L29.1972 39.7092C30.487 40.9092 32.2114 38.8399 30.7941 37.7911L24.4443 32.4996L30.8035 27.2129C31.006 27.0473 31.1515 26.8224 31.2197 26.5698C31.2878 26.3173 31.2751 26.0497 31.1834 25.8047C31.0916 25.5597 30.9255 25.3496 30.7082 25.2039C30.4909 25.0582 30.2335 24.9795 29.972 24.9877ZM4.99829 52.5032H74.9965V58.749C75.001 58.9136 74.972 59.0774 74.9113 59.2305C74.8505 59.3835 74.7592 59.5226 74.643 59.6393C74.5267 59.756 74.388 59.8478 74.2352 59.9091C74.0823 59.9705 73.9186 60.0001 73.754 59.9962H6.255C6.08937 60.0014 5.92441 59.9728 5.77022 59.912C5.61603 59.8513 5.47584 59.7598 5.35821 59.643C5.24059 59.5263 5.14801 59.3868 5.08612 59.2331C5.02424 59.0794 4.99435 58.9146 4.99829 58.749V52.5032ZM42.5675 55.0024H37.4414C35.8446 55.1914 35.9532 57.4497 37.4981 57.4922H42.5014C44.2164 57.6481 44.3581 55.0355 42.5675 55.0024ZM32.991 64.9003C32.7456 64.8952 32.5042 64.9624 32.2968 65.0934C32.0893 65.2245 31.9249 65.4136 31.824 65.6373C31.2193 66.9271 30.1421 68.4342 28.2806 69.998H26.2491C25.2566 70.0054 24.307 70.404 23.6065 71.1072C22.906 71.8104 22.511 72.7614 22.5073 73.754V76.2438C22.5026 76.9336 23.0601 77.4958 23.7498 77.5005H56.2497C56.4145 77.5005 56.5777 77.468 56.7299 77.4048C56.8821 77.3415 57.0203 77.2489 57.1367 77.1321C57.253 77.0154 57.3451 76.8768 57.4077 76.7243C57.4704 76.5719 57.5023 76.4086 57.5017 76.2438V73.754C57.4955 72.7605 57.0984 71.8095 56.3964 71.1066C55.6944 70.4037 54.7438 70.0054 53.7504 69.998H51.7189C49.8622 68.4389 48.7802 66.9271 48.1755 65.6373C48.1135 65.4773 48.0193 65.3318 47.8987 65.2098C47.7782 65.0878 47.6338 64.9918 47.4746 64.9279C47.3154 64.864 47.1448 64.8335 46.9733 64.8383C46.8018 64.843 46.6332 64.883 46.4778 64.9557C46.3224 65.0283 46.1836 65.1322 46.07 65.2607C45.9564 65.3892 45.8704 65.5397 45.8174 65.7029C45.7644 65.866 45.7455 66.0383 45.7619 66.2091C45.7782 66.3799 45.8295 66.5454 45.9125 66.6956C46.3991 67.735 47.1408 68.8594 48.1472 69.998H31.8524C32.854 68.8641 33.6004 67.7397 34.087 66.6908C34.1779 66.5024 34.2201 66.2942 34.2097 66.0852C34.1994 65.8763 34.1369 65.6733 34.0279 65.4947C33.9189 65.3162 33.7668 65.1678 33.5857 65.0631C33.4046 64.9584 33.2001 64.9008 32.991 64.8955V64.9003ZM26.2491 72.4973H53.7457C53.9118 72.4934 54.077 72.5232 54.2312 72.585C54.3854 72.6468 54.5255 72.7392 54.643 72.8567C54.7605 72.9742 54.8529 73.1143 54.9147 73.2685C54.9764 73.4227 55.0063 73.5879 55.0024 73.754V75.0012H25.0018V73.754C25.0018 73.0406 25.5357 72.4973 26.2491 72.4973Z"
        fill="#CBFF46" />
</svg>