<svg width="80" height="80" viewBox="0 0 80 80" fill="none" xmlns="http://www.w3.org/2000/svg">
<g clip-path="url(#clip0_2058_520)">
<path d="M25.2681 40.5055C25.5091 39.8889 26.2044 39.5844 26.8208 39.8253C27.437 40.0665 27.7414 40.7622 27.5005 41.3789L27.0616 42.5021H28.1998C28.5956 42.5023 28.9665 42.6981 29.1897 43.0252C29.4125 43.3523 29.4595 43.769 29.3155 44.1377L28.2388 46.8955C27.9978 47.512 27.3024 47.8165 26.6862 47.5757C26.0699 47.3346 25.7658 46.6398 26.0064 46.0231L26.4443 44.8999H25.3071C24.9113 44.8999 24.5406 44.7038 24.3173 44.3768C24.0942 44.0497 24.0475 43.6331 24.1914 43.2643L25.2681 40.5055Z" fill="#CBFF46"/>
<path fill-rule="evenodd" clip-rule="evenodd" d="M32.9776 35.4651C33.6393 35.4653 34.1762 36.0023 34.1762 36.6645V50.7365C34.1761 51.3986 33.6393 51.9357 32.9776 51.9359H20.5293C19.8675 51.9359 19.3309 51.3987 19.3307 50.7365V36.6645C19.3307 36.0022 19.8675 35.4651 20.5293 35.4651H32.9776ZM21.7279 49.5372H31.779V37.8638H21.7279V49.5372Z" fill="#CBFF46"/>
<path d="M48.8432 47.3786C49.5048 47.3788 50.0418 47.9158 50.0418 48.5779C50.0417 49.2399 49.5048 49.777 48.8432 49.7773H38.7717C38.1099 49.7773 37.5732 49.2401 37.5731 48.5779C37.5731 47.9156 38.1098 47.3786 38.7717 47.3786H48.8432Z" fill="#CBFF46"/>
<path d="M48.8432 42.5012C49.5048 42.5014 50.0418 43.0384 50.0418 43.7005C50.0417 44.3625 49.5048 44.8996 48.8432 44.8999H38.7717C38.1099 44.8999 37.5732 44.3627 37.5731 43.7005C37.5731 43.0382 38.1098 42.5012 38.7717 42.5012H48.8432Z" fill="#CBFF46"/>
<path d="M48.8432 37.6238C49.5048 37.624 50.0418 38.161 50.0418 38.8231C50.0417 39.4851 49.5048 40.0222 48.8432 40.0224H38.7717C38.1099 40.0224 37.5732 39.4853 37.5731 38.8231C37.5731 38.1608 38.1098 37.6238 38.7717 37.6238H48.8432Z" fill="#CBFF46"/>
<path fill-rule="evenodd" clip-rule="evenodd" d="M9.86675 0C10.384 3.0577e-05 10.8224 0.329155 10.9903 0.788504C11.158 0.329006 11.5975 8.69173e-05 12.1147 0H20.7332C22.2352 0 23.6149 0.539311 24.6849 1.43258C24.8366 1.55924 24.9476 1.71599 25.0194 1.88636C25.1901 1.9583 25.3471 2.07 25.4739 2.22206C26.3664 3.2926 26.9045 4.67263 26.9046 6.17532V9.71285C26.9046 9.87652 26.8714 10.0323 26.812 10.1744C26.8711 10.3163 26.9046 10.4717 26.9046 10.635V12.9762C28.3879 13.0221 29.5767 14.2377 29.5769 15.733V18.1727C29.5769 19.6683 28.3879 20.8826 26.9046 20.9285V23.9323H27.0919C28.4636 23.9324 29.5758 25.0453 29.5759 26.4178V29.3269H35.4762V26.086C35.4763 26.0035 35.4847 25.9208 35.5016 25.8401C35.6683 25.0446 36.1038 24.3305 36.7343 23.8181C37.3651 23.3057 38.1533 23.0255 38.9657 23.0257H43.649L46.1495 14.9464C44.8613 14.1295 44.005 12.6918 44.0049 11.0527C44.0049 8.50791 46.0669 6.44501 48.6101 6.44466C51.1535 6.44466 53.2153 8.50772 53.2153 11.0527C53.2152 13.5978 51.1534 15.6608 48.6101 15.6608C48.553 15.6608 48.4961 15.658 48.4395 15.6559L46.1583 23.0257H48.8676C50.8208 23.0258 52.4067 24.6101 52.4068 26.5671V29.3269H59.2961C59.8818 29.327 60.4314 29.4819 60.9072 29.7514C60.9644 29.7838 61.021 29.8172 61.076 29.8529C61.1116 29.876 61.1467 29.8997 61.1813 29.9241C61.2495 29.9722 61.316 30.0224 61.3802 30.0754C62.1088 30.6768 62.573 31.587 62.573 32.6058V39.4155H73.9719C77.3002 39.4156 79.9997 42.116 80 45.4463V78.8007C80 79.4628 79.4631 79.9998 78.8014 80H1.1986L1.07572 79.9941C0.471427 79.9327 0 79.4215 0 78.8007V63.5595C0.000235174 62.8974 0.536884 62.3611 1.1986 62.3611H11.0507V58.0741H10.0755C8.26586 58.0739 6.79867 56.6059 6.79857 54.7952V54.4283L1.60529 53.2465C1.06008 53.1221 0.672995 52.637 0.672933 52.0774V35.3226C0.672933 34.7627 1.0606 34.2766 1.60626 34.1526L6.79857 32.9718V32.6058C6.79857 30.795 8.26579 29.3271 10.0755 29.3269H13.5689V26.4178C13.569 25.0454 14.6814 23.9326 16.0529 23.9323H16.2411V20.9285C14.7576 20.8826 13.5689 19.6682 13.5689 18.1727V15.733C13.569 14.2378 14.7576 13.0221 16.2411 12.9762V12.093C16.2411 11.9997 16.2521 11.9089 16.2723 11.8217C16.2521 11.7345 16.2411 11.6437 16.2411 11.5504V10.6712H10.2783C9.90056 10.6712 9.56269 10.4965 9.34304 10.2232C9.12337 10.4961 8.78712 10.6712 8.40971 10.6712H1.24834C0.586478 10.6712 0.0497385 10.1341 0.0497385 9.47181V5.81327C0.0497385 5.64355 0.0866401 5.48239 0.150191 5.33607C0.0865234 5.1897 0.0497949 5.02867 0.0497385 4.85886V1.19935C0.0498651 0.537181 0.586556 0 1.24834 0H9.86675ZM74.5746 72.5092C72.9259 73.5146 71.0322 74.0461 69.1014 74.0462C67.1704 74.0462 65.276 73.5146 63.6273 72.5092C63.1306 72.2063 62.6047 71.9595 62.06 71.7705C62.0459 71.7662 62.032 71.7615 62.0181 71.7568C61.1788 71.4707 60.2949 71.3216 59.4005 71.3216C57.9096 71.3216 56.4468 71.7328 55.1737 72.5092C53.5249 73.5146 51.6312 74.0461 49.7005 74.0462C47.7694 74.0462 45.8751 73.5147 44.2263 72.5092C42.9532 71.7328 41.4905 71.3216 39.9995 71.3216C38.5088 71.3216 37.0468 71.7329 35.7737 72.5092C34.1248 73.5148 32.2305 74.0462 30.2995 74.0462C28.3685 74.0462 26.4742 73.5147 24.8254 72.5092C23.5524 71.7329 22.0903 71.3217 20.5995 71.3216C19.1086 71.3216 17.6459 71.7328 16.3727 72.5092L16.0607 72.6917C14.4869 73.5787 12.7089 74.0462 10.8986 74.0462C8.96782 74.0461 7.07413 73.5146 5.4254 72.5092L2.3972 70.6629V77.6013H77.6028V70.6629L74.5746 72.5092ZM2.3972 67.8524L6.67276 70.4609C7.94578 71.2372 9.40779 71.6484 10.8986 71.6485C12.2963 71.6484 13.6694 71.2872 14.8845 70.6024L15.1254 70.4609L15.4375 70.2784C17.0113 69.3913 18.7892 68.9239 20.5995 68.9239C22.5303 68.9239 24.424 69.4554 26.0727 70.4609C27.3459 71.2373 28.8086 71.6485 30.2995 71.6485C31.7905 71.6484 33.2532 71.2373 34.5263 70.4609C36.175 69.4555 38.0687 68.9239 39.9995 68.9239C41.9305 68.9239 43.8248 69.4553 45.4737 70.4609C46.7469 71.2373 48.2096 71.6485 49.7005 71.6485C51.1913 71.6484 52.6533 71.2371 53.9263 70.4609C55.5751 69.4554 57.4694 68.9239 59.4005 68.9239C60.008 68.9239 60.6119 68.9766 61.2057 69.08V68.0709C61.2057 68.0032 61.2124 67.9365 61.2232 67.8719C61.2124 67.8071 61.2057 67.7406 61.2057 67.6728V65.1209C61.2056 65.0282 61.172 64.9458 61.114 64.8808C61.1086 64.8748 61.1036 64.8684 61.0984 64.8623C61.0939 64.8584 61.0891 64.8545 61.0847 64.8506C61.0197 64.7925 60.9365 64.7589 60.8438 64.7588H58.0078C58.0019 64.7589 57.9961 64.7598 57.9902 64.7598H12.2493C12.2435 64.7598 12.2376 64.7589 12.2318 64.7588H2.3972V67.8524ZM62.573 47.4635H65.1857C65.5339 47.4635 65.8465 47.6137 66.0654 47.8509C66.2843 47.6135 66.5969 47.4636 66.9451 47.4635H70.7574C71.4191 47.4636 71.9559 48.0007 71.956 48.6628V58.4274C71.9556 59.0892 71.4189 59.6256 70.7574 59.6258C70.0958 59.6258 69.5592 59.0893 69.5588 58.4274V49.8622H66.9451C66.5971 49.8621 66.2843 49.7128 66.0654 49.4757C65.8465 49.7126 65.5336 49.8622 65.1857 49.8622H62.573V54.7952C62.573 55.4521 62.3789 56.0632 62.0463 56.5762C62.0233 56.6118 61.9996 56.6469 61.9752 56.6815C61.8363 56.8787 61.6771 57.0604 61.4992 57.2222C61.3989 57.3134 61.2923 57.3976 61.1813 57.4759C61.1478 57.4995 61.1142 57.5228 61.0799 57.5452C61.0301 57.5776 60.9793 57.6082 60.9277 57.6379C60.4472 57.9147 59.8902 58.074 59.2961 58.0741H59.1878V62.3611H60.8438C61.5485 62.3612 62.1945 62.6268 62.6812 63.0618C62.72 63.0964 62.7544 63.1348 62.7875 63.173C62.8271 63.2071 62.8659 63.2433 62.9017 63.2833C63.3363 63.7704 63.6028 64.4158 63.6029 65.1209V67.6728C63.6029 67.7407 63.5952 67.8071 63.5843 67.8719C63.5951 67.9366 63.6029 68.0032 63.6029 68.0709V69.7992C64.0398 69.9897 64.4648 70.2109 64.8746 70.4609C66.1478 71.2372 67.6106 71.6485 69.1014 71.6485C69.2543 71.6485 69.4067 71.6425 69.5588 71.6339V62.934C69.5588 62.2717 70.0956 61.7346 70.7574 61.7346C71.4192 61.7347 71.956 62.2718 71.956 62.934V71.1274C72.4307 70.9489 72.8905 70.7272 73.3272 70.4609L77.6028 67.8524V45.4463C77.6025 43.4405 75.9765 41.8133 73.9719 41.8132H62.573V47.4635ZM13.4479 62.3611H56.7916V58.0741H13.4479V62.3611ZM10.0755 31.7256C9.58952 31.7258 9.19577 32.1195 9.19577 32.6058V54.7952C9.19587 55.2814 9.58958 55.6752 10.0755 55.6754H13.5689V31.7256H10.0755ZM15.9661 55.6754H53.4065V31.7256H15.9661V55.6754ZM55.8037 55.6754H59.2961C59.5389 55.6753 59.759 55.577 59.9183 55.4178C59.9582 55.3779 59.9939 55.3339 60.0256 55.287C60.0572 55.2403 60.0843 55.1903 60.1065 55.1377C60.1177 55.1113 60.1282 55.0844 60.1368 55.0567C60.1453 55.0293 60.1524 55.0013 60.1582 54.9728L60.1719 54.885C60.1749 54.8555 60.1758 54.8255 60.1758 54.7952V32.6058C60.1758 32.3323 60.0514 32.088 59.8559 31.9266C59.7037 31.8011 59.5086 31.7257 59.2961 31.7256H55.8037V55.6754ZM3.07013 36.28V51.121L6.79857 51.9691V35.4319L3.07013 36.28ZM16.0529 26.331C16.0051 26.3313 15.9662 26.37 15.9661 26.4178V29.3269H27.1787V26.4178C27.1786 26.3698 27.1398 26.3311 27.0919 26.331H16.0529ZM38.9648 25.4244C38.7029 25.4244 38.4483 25.515 38.245 25.6801C38.0686 25.8236 37.9395 26.0163 37.8734 26.2324V29.3269H50.0106V26.5671C50.0105 25.9357 49.4981 25.4245 48.8676 25.4244H38.9648ZM18.6383 23.9323H24.5074V20.9334H18.6383V23.9323ZM16.3279 15.371C16.1281 15.371 15.9662 15.5331 15.9661 15.733V18.1727C15.9661 18.3728 16.1279 18.5347 16.3279 18.5347H26.8178C27.0177 18.5347 27.1797 18.3727 27.1797 18.1727V15.733C27.1795 15.5332 27.0176 15.371 26.8178 15.371H16.3279ZM48.6101 8.84237C47.3905 8.84273 46.4021 9.83253 46.4021 11.0527C46.4023 12.2729 47.3906 13.2617 48.6101 13.2621C49.8298 13.2621 50.819 12.2732 50.8191 11.0527C50.8191 9.83227 49.8298 8.84237 48.6101 8.84237ZM10.9903 1.61214C10.822 2.0708 10.3835 2.39866 9.86675 2.39869H2.44694V4.85886C2.44688 5.02867 2.41015 5.1897 2.34649 5.33607C2.41004 5.48239 2.44694 5.64355 2.44694 5.81327V8.27246H8.40971C8.78738 8.27247 9.12338 8.44819 9.34304 8.72136C9.56268 8.44776 9.9003 8.27246 10.2783 8.27246H17.4397C18.1013 8.2727 18.6373 8.80969 18.6373 9.47181V11.5504C18.6373 11.6438 18.6253 11.7345 18.6051 11.8217C18.6253 11.909 18.6373 11.9996 18.6373 12.093V12.9723H24.5084V10.635C24.5084 10.4718 24.541 10.3163 24.6001 10.1744C24.5407 10.0324 24.5085 9.87643 24.5084 9.71285V6.17532C24.5083 5.2547 24.1801 4.41359 23.6336 3.75808C23.5559 3.66493 23.4942 3.56372 23.4493 3.45751C23.3434 3.41256 23.2418 3.3516 23.1489 3.27405C22.4937 2.72714 21.6533 2.39869 20.7332 2.39869H12.1147C11.598 2.39861 11.1584 2.07095 10.9903 1.61214Z" fill="#CBFF46"/>
</g>
<defs>
<clipPath id="clip0_2058_520">
<rect width="80" height="80" fill="white"/>
</clipPath>
</defs>
</svg>
