<svg width="80" height="80" viewBox="0 0 80 80" fill="none" xmlns="http://www.w3.org/2000/svg">
<g clip-path="url(#clip0_2058_526)">
<path d="M1.25 70H15V73.75C15 74.0815 15.1317 74.3995 15.3661 74.6339C15.6005 74.8683 15.9185 75 16.25 75H20V78.75C20 79.0815 20.1317 79.3995 20.3661 79.6339C20.6005 79.8683 20.9185 80 21.25 80H31.25C31.5815 80 31.8995 79.8683 32.1339 79.6339C32.3683 79.3995 32.5 79.0815 32.5 78.75V75H47.5V78.75C47.5 79.0815 47.6317 79.3995 47.8661 79.6339C48.1005 79.8683 48.4185 80 48.75 80H58.75C59.0815 80 59.3995 79.8683 59.6339 79.6339C59.8683 79.3995 60 79.0815 60 78.75V75H63.75C64.0815 75 64.3995 74.8683 64.6339 74.6339C64.8683 74.3995 65 74.0815 65 73.75V70H78.75C79.0815 70 79.3995 69.8683 79.6339 69.6339C79.8683 69.3995 80 69.0815 80 68.75V62.5C80 62.1685 79.8683 61.8505 79.6339 61.6161C79.3995 61.3817 79.0815 61.25 78.75 61.25H72.5V58.75H76.25C76.5815 58.75 76.8995 58.6183 77.1339 58.3839C77.3683 58.1495 77.5 57.8315 77.5 57.5V32.5C77.5 32.1685 77.3683 31.8505 77.1339 31.6161C76.8995 31.3817 76.5815 31.25 76.25 31.25H72.5V28.75H78.75C79.0815 28.75 79.3995 28.6183 79.6339 28.3839C79.8683 28.1495 80 27.8315 80 27.5V21.25C80 20.9185 79.8683 20.6005 79.6339 20.3661C79.3995 20.1317 79.0815 20 78.75 20H61.25V16.25H62.5C62.8315 16.25 63.1495 16.1183 63.3839 15.8839C63.6183 15.6495 63.75 15.3315 63.75 15C63.75 14.6685 63.6183 14.3505 63.3839 14.1161C63.1495 13.8817 62.8315 13.75 62.5 13.75H61.25V11.25H62.5C62.8315 11.25 63.1495 11.1183 63.3839 10.8839C63.6183 10.6495 63.75 10.3315 63.75 10C63.75 9.66848 63.6183 9.35054 63.3839 9.11612C63.1495 8.8817 62.8315 8.75 62.5 8.75H61.25V6.25H62.5C62.8315 6.25 63.1495 6.1183 63.3839 5.88388C63.6183 5.64946 63.75 5.33152 63.75 5C63.75 4.66848 63.6183 4.35054 63.3839 4.11612C63.1495 3.8817 62.8315 3.75 62.5 3.75H61.25C61.25 2.75544 60.8549 1.80161 60.1516 1.09835C59.4484 0.395088 58.4946 0 57.5 0C56.5054 0 55.5516 0.395088 54.8484 1.09835C54.1451 1.80161 53.75 2.75544 53.75 3.75H52.5C52.1685 3.75 51.8505 3.8817 51.6161 4.11612C51.3817 4.35054 51.25 4.66848 51.25 5C51.25 5.33152 51.3817 5.64946 51.6161 5.88388C51.8505 6.1183 52.1685 6.25 52.5 6.25H53.75V8.75H52.5C52.1685 8.75 51.8505 8.8817 51.6161 9.11612C51.3817 9.35054 51.25 9.66848 51.25 10C51.25 10.3315 51.3817 10.6495 51.6161 10.8839C51.8505 11.1183 52.1685 11.25 52.5 11.25H53.75V13.75H52.5C52.1685 13.75 51.8505 13.8817 51.6161 14.1161C51.3817 14.3505 51.25 14.6685 51.25 15C51.25 15.3315 51.3817 15.6495 51.6161 15.8839C51.8505 16.1183 52.1685 16.25 52.5 16.25H53.75V20H43.75V16.25H45C45.3315 16.25 45.6495 16.1183 45.8839 15.8839C46.1183 15.6495 46.25 15.3315 46.25 15C46.25 14.6685 46.1183 14.3505 45.8839 14.1161C45.6495 13.8817 45.3315 13.75 45 13.75H43.75V11.25H45C45.3315 11.25 45.6495 11.1183 45.8839 10.8839C46.1183 10.6495 46.25 10.3315 46.25 10C46.25 9.66848 46.1183 9.35054 45.8839 9.11612C45.6495 8.8817 45.3315 8.75 45 8.75H43.75V6.25H45C45.3315 6.25 45.6495 6.1183 45.8839 5.88388C46.1183 5.64946 46.25 5.33152 46.25 5C46.25 4.66848 46.1183 4.35054 45.8839 4.11612C45.6495 3.8817 45.3315 3.75 45 3.75H43.75C43.75 2.75544 43.3549 1.80161 42.6516 1.09835C41.9484 0.395088 40.9946 0 40 0C39.0054 0 38.0516 0.395088 37.3484 1.09835C36.6451 1.80161 36.25 2.75544 36.25 3.75H35C34.6685 3.75 34.3505 3.8817 34.1161 4.11612C33.8817 4.35054 33.75 4.66848 33.75 5C33.75 5.33152 33.8817 5.64946 34.1161 5.88388C34.3505 6.1183 34.6685 6.25 35 6.25H36.25V8.75H35C34.6685 8.75 34.3505 8.8817 34.1161 9.11612C33.8817 9.35054 33.75 9.66848 33.75 10C33.75 10.3315 33.8817 10.6495 34.1161 10.8839C34.3505 11.1183 34.6685 11.25 35 11.25H36.25V13.75H35C34.6685 13.75 34.3505 13.8817 34.1161 14.1161C33.8817 14.3505 33.75 14.6685 33.75 15C33.75 15.3315 33.8817 15.6495 34.1161 15.8839C34.3505 16.1183 34.6685 16.25 35 16.25H36.25V20H26.25V16.25H27.5C27.8315 16.25 28.1495 16.1183 28.3839 15.8839C28.6183 15.6495 28.75 15.3315 28.75 15C28.75 14.6685 28.6183 14.3505 28.3839 14.1161C28.1495 13.8817 27.8315 13.75 27.5 13.75H26.25V11.25H27.5C27.8315 11.25 28.1495 11.1183 28.3839 10.8839C28.6183 10.6495 28.75 10.3315 28.75 10C28.75 9.66848 28.6183 9.35054 28.3839 9.11612C28.1495 8.8817 27.8315 8.75 27.5 8.75H26.25V6.25H27.5C27.8315 6.25 28.1495 6.1183 28.3839 5.88388C28.6183 5.64946 28.75 5.33152 28.75 5C28.75 4.66848 28.6183 4.35054 28.3839 4.11612C28.1495 3.8817 27.8315 3.75 27.5 3.75H26.25C26.25 2.75544 25.8549 1.80161 25.1517 1.09835C24.4484 0.395088 23.4946 0 22.5 0C21.5054 0 20.5516 0.395088 19.8483 1.09835C19.1451 1.80161 18.75 2.75544 18.75 3.75H17.5C17.1685 3.75 16.8505 3.8817 16.6161 4.11612C16.3817 4.35054 16.25 4.66848 16.25 5C16.25 5.33152 16.3817 5.64946 16.6161 5.88388C16.8505 6.1183 17.1685 6.25 17.5 6.25H18.75V8.75H17.5C17.1685 8.75 16.8505 8.8817 16.6161 9.11612C16.3817 9.35054 16.25 9.66848 16.25 10C16.25 10.3315 16.3817 10.6495 16.6161 10.8839C16.8505 11.1183 17.1685 11.25 17.5 11.25H18.75V13.75H17.5C17.1685 13.75 16.8505 13.8817 16.6161 14.1161C16.3817 14.3505 16.25 14.6685 16.25 15C16.25 15.3315 16.3817 15.6495 16.6161 15.8839C16.8505 16.1183 17.1685 16.25 17.5 16.25H18.75V20H1.25C0.918479 20 0.600537 20.1317 0.366117 20.3661C0.131696 20.6005 0 20.9185 0 21.25L0 27.5C0 27.8315 0.131696 28.1495 0.366117 28.3839C0.600537 28.6183 0.918479 28.75 1.25 28.75H7.5V31.25H3.75C3.41848 31.25 3.10054 31.3817 2.86612 31.6161C2.6317 31.8505 2.5 32.1685 2.5 32.5V57.5C2.5 57.8315 2.6317 58.1495 2.86612 58.3839C3.10054 58.6183 3.41848 58.75 3.75 58.75H7.5V61.25H1.25C0.918479 61.25 0.600537 61.3817 0.366117 61.6161C0.131696 61.8505 0 62.1685 0 62.5L0 68.75C0 69.0815 0.131696 69.3995 0.366117 69.6339C0.600537 69.8683 0.918479 70 1.25 70ZM30 77.5H22.5V75H30V77.5ZM57.5 77.5H50V75H57.5V77.5ZM62.5 72.5H17.5V70H62.5V72.5ZM70 32.5V60H65V30H70V32.5ZM75 33.75V56.25H72.5V33.75H75ZM62.5 61.25H58.75V28.75H62.5V61.25ZM23.75 30H26.25V60H23.75V30ZM28.75 28.75H51.25V61.25H28.75V28.75ZM56.25 60H53.75V30H56.25V60ZM57.5 2.5C57.8315 2.5 58.1495 2.6317 58.3839 2.86612C58.6183 3.10054 58.75 3.41848 58.75 3.75H56.25C56.25 3.41848 56.3817 3.10054 56.6161 2.86612C56.8505 2.6317 57.1685 2.5 57.5 2.5ZM56.25 6.25H58.75V8.75H56.25V6.25ZM56.25 11.25H58.75V13.75H56.25V11.25ZM56.25 16.25H58.75V20H56.25V16.25ZM40 2.5C40.3315 2.5 40.6495 2.6317 40.8839 2.86612C41.1183 3.10054 41.25 3.41848 41.25 3.75H38.75C38.75 3.41848 38.8817 3.10054 39.1161 2.86612C39.3505 2.6317 39.6685 2.5 40 2.5ZM38.75 6.25H41.25V8.75H38.75V6.25ZM38.75 11.25H41.25V13.75H38.75V11.25ZM38.75 16.25H41.25V20H38.75V16.25ZM22.5 2.5C22.8315 2.5 23.1495 2.6317 23.3839 2.86612C23.6183 3.10054 23.75 3.41848 23.75 3.75H21.25C21.25 3.41848 21.3817 3.10054 21.6161 2.86612C21.8505 2.6317 22.1685 2.5 22.5 2.5ZM21.25 6.25H23.75V8.75H21.25V6.25ZM21.25 11.25H23.75V13.75H21.25V11.25ZM21.25 16.25H23.75V20H21.25V16.25ZM2.5 26.25V22.5H77.5V26.25H2.5ZM10 57.5V30H15V60H10V57.5ZM5 56.25V33.75H7.5V56.25H5ZM17.5 28.75H21.25V61.25H17.5V28.75ZM2.5 63.75H77.5V67.5H2.5V63.75Z" fill="#CBFF46"/>
<path d="M47.5001 40H43.2726L47.3751 31.8088C47.4706 31.6177 47.5155 31.4053 47.5056 31.1919C47.4957 30.9785 47.4312 30.7712 47.3184 30.5898C47.2055 30.4084 47.0481 30.259 46.8611 30.1557C46.6741 30.0524 46.4637 29.9988 46.2501 30H40.0001C39.7678 29.9999 39.5401 30.0645 39.3425 30.1866C39.1449 30.3087 38.9852 30.4835 38.8813 30.6913L31.3813 45.6913C31.2861 45.8819 31.2412 46.0937 31.2508 46.3066C31.2604 46.5194 31.3243 46.7263 31.4364 46.9076C31.5485 47.0888 31.7051 47.2384 31.8913 47.342C32.0774 47.4457 32.287 47.5001 32.5001 47.5H37.3751L36.2626 58.625C36.2327 58.9103 36.3018 59.1972 36.4584 59.4376C36.615 59.678 36.8495 59.8572 37.1226 59.9451C37.3957 60.033 37.6907 60.0244 37.9581 59.9206C38.2255 59.8168 38.4491 59.6242 38.5913 59.375L48.5913 41.875C48.7014 41.6844 48.7592 41.468 48.7588 41.2478C48.7584 41.0277 48.6999 40.8115 48.5892 40.6212C48.4784 40.4309 48.3194 40.2733 48.1282 40.1642C47.9369 40.0551 47.7203 39.9985 47.5001 40ZM39.3276 53.0313L40.0001 46.375C40.0176 46.2007 39.9983 46.0246 39.9434 45.8582C39.8884 45.6918 39.7992 45.5388 39.6813 45.4092C39.5634 45.2795 39.4196 45.1761 39.2592 45.1056C39.0988 45.0351 38.9253 44.9991 38.7501 45H34.5226L40.7726 32.5H44.2276L40.1251 40.6913C40.0296 40.8824 39.9847 41.0947 39.9946 41.3081C40.0045 41.5215 40.069 41.7288 40.1818 41.9102C40.2946 42.0916 40.4521 42.2411 40.6391 42.3443C40.8261 42.4476 41.0365 42.5012 41.2501 42.5H45.3463L39.3276 53.0313Z" fill="#CBFF46"/>
</g>
<defs>
<clipPath id="clip0_2058_526">
<rect width="80" height="80" fill="white"/>
</clipPath>
</defs>
</svg>
