<svg xmlns="http://www.w3.org/2000/svg">
    <defs>
    <symbol id="title-bullet" viewBox="0 0 48 48" fill="none" xmlns="http://www.w3.org/2000/svg">
    <path
        d="M24 41C25.6569 41 27 42.3431 27 44C27 45.6569 25.6569 47 24 47C22.3431 47 21 45.6569 21 44C21 42.3431 22.3431 41 24 41ZM14 42C15.1046 42 16 42.8954 16 44C16 45.1046 15.1046 46 14 46C12.8954 46 12 45.1046 12 44C12 42.8954 12.8954 42 14 42ZM34 42C35.1046 42 36 42.8954 36 44C36 45.1046 35.1046 46 34 46C32.8954 46 32 45.1046 32 44C32 42.8954 32.8954 42 34 42ZM24 30C26.2091 30 28 31.7909 28 34C28 36.2091 26.2091 38 24 38C21.7909 38 20 36.2091 20 34C20 31.7909 21.7909 30 24 30ZM14 31C15.6569 31 17 32.3431 17 34C17 35.6569 15.6569 37 14 37C12.3431 37 11 35.6569 11 34C11 32.3431 12.3431 31 14 31ZM34 31C35.6569 31 37 32.3431 37 34C37 35.6569 35.6569 37 34 37C32.3431 37 31 35.6569 31 34C31 32.3431 32.3431 31 34 31ZM4 32C5.10457 32 6 32.8954 6 34C6 35.1046 5.10457 36 4 36C2.89543 36 2 35.1046 2 34C2 32.8954 2.89543 32 4 32ZM44 32C45.1046 32 46 32.8954 46 34C46 35.1046 45.1046 36 44 36C42.8954 36 42 35.1046 42 34C42 32.8954 42.8954 32 44 32ZM14 20C16.2091 20 18 21.7909 18 24C18 26.2091 16.2091 28 14 28C11.7909 28 10 26.2091 10 24C10 21.7909 11.7909 20 14 20ZM24 20C26.2091 20 28 21.7909 28 24C28 26.2091 26.2091 28 24 28C21.7909 28 20 26.2091 20 24C20 21.7909 21.7909 20 24 20ZM34 20C36.2091 20 38 21.7909 38 24C38 26.2091 36.2091 28 34 28C31.7909 28 30 26.2091 30 24C30 21.7909 31.7909 20 34 20ZM4 21C5.65685 21 7 22.3431 7 24C7 25.6569 5.65685 27 4 27C2.34315 27 1 25.6569 1 24C1 22.3431 2.34315 21 4 21ZM44 21C45.6569 21 47 22.3431 47 24C47 25.6569 45.6569 27 44 27C42.3431 27 41 25.6569 41 24C41 22.3431 42.3431 21 44 21ZM24 10C26.2091 10 28 11.7909 28 14C28 16.2091 26.2091 18 24 18C21.7909 18 20 16.2091 20 14C20 11.7909 21.7909 10 24 10ZM14 11C15.6569 11 17 12.3431 17 14C17 15.6569 15.6569 17 14 17C12.3431 17 11 15.6569 11 14C11 12.3431 12.3431 11 14 11ZM34 11C35.6569 11 37 12.3431 37 14C37 15.6569 35.6569 17 34 17C32.3431 17 31 15.6569 31 14C31 12.3431 32.3431 11 34 11ZM4 12C5.10457 12 6 12.8954 6 14C6 15.1046 5.10457 16 4 16C2.89543 16 2 15.1046 2 14C2 12.8954 2.89543 12 4 12ZM44 12C45.1046 12 46 12.8954 46 14C46 15.1046 45.1046 16 44 16C42.8954 16 42 15.1046 42 14C42 12.8954 42.8954 12 44 12ZM24 1C25.6569 1 27 2.34315 27 4C27 5.65685 25.6569 7 24 7C22.3431 7 21 5.65685 21 4C21 2.34315 22.3431 1 24 1ZM14 2C15.1046 2 16 2.89543 16 4C16 5.10457 15.1046 6 14 6C12.8954 6 12 5.10457 12 4C12 2.89543 12.8954 2 14 2ZM34 2C35.1046 2 36 2.89543 36 4C36 5.10457 35.1046 6 34 6C32.8954 6 32 5.10457 32 4C32 2.89543 32.8954 2 34 2Z"
        fill="url(#circle-bullet-gradient)" />
    <defs>
        <radialGradient id="circle-bullet-gradient" cx="0" cy="0" r="1"
            gradientUnits="userSpaceOnUse" gradientTransform="translate(24 24) rotate(90) scale(24)">
            <stop stop-color="#FFFF00" />
            <stop offset="1" stop-color="#7a992b" />
        </radialGradient>
    </defs>
</symbol>
        <symbol xmlns="http://www.w3.org/2000/svg" fill="none" viewBox="0 0 65 64" id="angular">
            <desc>Angular logo</desc>
            <path fill="#B3B3B3"
                d="m32.712 8.06 22.636 7.93-3.577 29.52-19.083 10.439-19.18-10.581-3.576-29.519z" />
            <path fill="#A6120D" d="m12.19 17.555 20.576-6.984v42.884l-17.243-9.5z" />
            <path fill="#DD1B16" d="m52.809 17.681-3.066 26.4-16.976 9.374V10.57l20.041 7.11Z" />
            <path fill="#F2F2F2"
                d="m27.103 33.4 5.664 2.636h5.97l2.805 6.987 5.22.096-13.995-30.99zm.548-1.327 5.078-10.008 4.166 9.836h-4.128z" />
            <path fill="#B3B3B3"
                d="m32.766 12.128-.038 9.937-4.727 9.843h4.754l.01 4.122-6.573.006-3.072 7.084-4.994.092z" />
        </symbol>

        <symbol xmlns="http://www.w3.org/2000/svg" fill="none" viewBox="0 0 65 64" id="figma">
            <desc>Figma logo</desc>
            <path fill="#333"
                d="M8.5 32c0-13.255 10.745-24 24-24s24 10.745 24 24-10.745 24-24 24-24-10.745-24-24" />
            <path fill="#0ACF83" d="M27.7 46.4a4.8 4.8 0 0 0 4.8-4.8v-4.8h-4.8a4.8 4.8 0 0 0 0 9.6" />
            <path fill="#A259FF"
                d="M22.9 32a4.8 4.8 0 0 1 4.8-4.8h4.8v9.6h-4.8a4.8 4.8 0 0 1-4.8-4.8" />
            <path fill="#F24E1E"
                d="M22.9 22.4a4.8 4.8 0 0 1 4.8-4.8h4.8v9.6h-4.8a4.8 4.8 0 0 1-4.8-4.8" />
            <path fill="#FF7262" d="M32.5 17.6h4.8a4.8 4.8 0 1 1 0 9.6h-4.8z" />
            <path fill="#1ABCFE" d="M42.1 32a4.8 4.8 0 1 1-9.6 0 4.8 4.8 0 0 1 9.6 0" />
        </symbol>

        <symbol xmlns="http://www.w3.org/2000/svg" fill="none" viewBox="0 0 65 64" id="kotlin">
            <desc>Kotlin logo</desc>
            <path fill="#0D91D6" d="m32.5 8-8.013 8.467-8.027 8.453-7.96 8.413V8z" />
            <path fill="#F88909"
                d="M32.5 8h-.053l-7.987 8.44-8.013 8.467L8.5 33.293V56l11.587-11.587 8.24-8.24 8.253-8.253 8.253-8.253L56.5 8z" />
            <path fill="#C757BC" d="M20.087 44.413 8.5 56V33.453z" />
            <path fill="#D3638F" d="m28.327 36.174-8.24 8.24L8.5 33.454v-.12l7.96-8.414z" />
            <path fill="#E07063" d="m36.58 27.92-8.252 8.253L16.46 24.92l8.027-8.453z" />
            <path fill="#EC7D36" d="M44.833 19.667 36.58 27.92 24.486 16.467 32.5 8z" />
            <path fill="#F88909" d="M56.5 8 44.833 19.667 32.5 8z" />
            <path fill="#0095D5" d="m15.847 25.534-4.694 4.973L8.5 28v-9.413z" />
            <path fill="#2B88DA" d="m20.54 20.56-4.693 4.973L8.5 18.587V9.16z" />
            <path fill="#557BDE" d="m25.247 15.6-4.707 4.96L8.5 9.16V8h8.707z" />
            <path fill="#806EE3" d="M29.94 10.627 25.247 15.6 17.207 8H32.5z" />
            <path fill="#0095D5" d="M31.167 33.333 8.5 56h45.333z" />
            <path fill="#2B88DA" d="M34.74 56H23.86l-7.68-7.666 5.44-5.44z" />
            <path fill="#557BDE" d="M45.648 56H34.74l-13.12-13.107 5.44-5.44z" />
            <path fill="#806EE3" d="M56.5 56H45.648L27.061 37.453 32.5 32z" />
        </symbol>

        <symbol xmlns="http://www.w3.org/2000/svg" fill="none" viewBox="0 0 64 64" id="java">
            <desc>Java logo</desc>
            <path fill="#E76F00"
                d="M48.177 50.146h-.237v-.132h.638v.132h-.236v.662h-.165zm1.273.035h-.004l-.235.627h-.107l-.234-.627h-.003v.627h-.156v-.794h.23l.216.562.216-.562h.23v.794h-.153z" />
            <path fill="#5382A1"
                d="M26.948 33.9s-1.65.959 1.174 1.284c3.422.39 5.17.334 8.94-.38 0 0 .991.622 2.376 1.16-8.452 3.622-19.128-.21-12.49-2.064m-1.033-4.727s-1.85 1.37.976 1.662c3.655.377 6.54.408 11.535-.554 0 0 .69.7 1.776 1.083-10.218 2.988-21.6.236-14.287-2.191" />
            <path fill="#E76F00"
                d="M34.621 21.155c2.082 2.397-.547 4.555-.547 4.555s5.288-2.73 2.86-6.148c-2.269-3.188-4.008-4.772 5.408-10.232 0 0-14.78 3.691-7.721 11.825" />
            <path fill="#5382A1"
                d="M45.8 37.396s1.22 1.006-1.345 1.784c-4.879 1.478-20.304 1.924-24.59.059-1.54-.67 1.349-1.6 2.257-1.795.948-.206 1.49-.168 1.49-.168-1.713-1.207-11.073 2.37-4.755 3.394C36.09 43.465 50.27 39.412 45.8 37.396m-18.059-13.12s-7.846 1.863-2.779 2.54c2.14.286 6.406.222 10.38-.111 3.246-.274 6.507-.857 6.507-.857s-1.145.49-1.973 1.056c-7.968 2.096-23.361 1.121-18.93-1.023 3.748-1.811 6.795-1.605 6.795-1.605m14.076 7.867c8.1-4.209 4.355-8.253 1.74-7.709-.64.134-.925.25-.925.25s.237-.373.692-.535c5.171-1.818 9.148 5.363-1.67 8.206 0 0 .126-.111.163-.212" />
            <path fill="#E76F00"
                d="M36.935.512s4.486 4.487-4.255 11.387c-7.009 5.536-1.598 8.692-.003 12.298-4.09-3.692-7.093-6.941-5.08-9.965 2.957-4.44 11.148-6.592 9.338-13.72" />
            <path fill="#5382A1"
                d="M28.537 43.549c7.775.497 19.714-.277 19.997-3.955 0 0-.544 1.394-6.425 2.502-6.637 1.249-14.821 1.103-19.675.302 0 0 .993.823 6.103 1.15Z" />
            <path fill="#E76F00"
                d="M27.263 57.605c-.734.637-1.509.994-2.204.994-.992 0-1.528-.595-1.528-1.55 0-1.032.574-1.786 2.879-1.786h.852zm2.023 2.284v-7.068c0-1.806-1.03-2.997-3.512-2.997-1.45 0-2.72.358-3.752.814l.298 1.251c.813-.298 1.865-.576 2.897-.576 1.43 0 2.046.576 2.046 1.767v.893h-.714c-3.476 0-5.043 1.35-5.043 3.374 0 1.747 1.033 2.74 2.978 2.74 1.25 0 2.184-.515 3.056-1.27l.159 1.072zm6.756 0h-2.524l-3.038-9.886h2.205l1.885 6.074.419 1.827c.953-2.642 1.628-5.321 1.965-7.901h2.144c-.574 3.255-1.608 6.828-3.056 9.886m9.683-2.284c-.735.637-1.51.994-2.206.994-.99 0-1.528-.595-1.528-1.55 0-1.032.576-1.786 2.88-1.786h.854zm2.024 2.284v-7.068c0-1.806-1.033-2.997-3.513-2.997-1.45 0-2.72.358-3.752.814l.297 1.251c.813-.298 1.867-.576 2.898-.576 1.43 0 2.046.576 2.046 1.767v.893h-.715c-3.476 0-5.043 1.35-5.043 3.374 0 1.747 1.032 2.74 2.977 2.74 1.25 0 2.184-.515 3.058-1.27l.159 1.072zm-28.461 1.679c-.577.842-1.509 1.509-2.529 1.886l-1-1.176c.777-.399 1.443-1.042 1.753-1.642.267-.533.378-1.22.378-2.863V46.487h2.15v11.132c0 2.196-.175 3.084-.752 3.949" />
        </symbol>

        <symbol xmlns="http://www.w3.org/2000/svg" fill="none" viewBox="0 0 65 64" id="spring">
            <desc>Spring logo</desc>
            <path fill="#6DB33F"
                d="M52.205 10.83a20.4 20.4 0 0 1-2.568 4.504c-9.188-9.551-24.352-9.799-33.835-.594s-9.78 24.397-.593 33.899c.297.346.642.643.988.94l.89.792c10.075 8.511 25.19 7.225 33.686-2.87a23.94 23.94 0 0 0 5.581-13.758c.691-5.988-1.136-13.708-4.15-22.912m-32.55 38.996c-.692.891-1.976.99-2.865.297s-.988-1.98-.297-2.87 1.976-.99 2.865-.297c.84.693.988 1.98.297 2.87m32.402-7.175c-5.878 7.868-18.523 5.196-26.574 5.592 0 0-1.432.099-2.865.297 0 0 .544-.248 1.235-.495 5.68-1.98 8.347-2.376 11.805-4.157 6.47-3.316 12.941-10.59 14.225-18.112C47.413 33 39.906 39.236 33.09 41.76c-4.693 1.732-13.14 3.414-13.14 3.414l-.345-.197c-5.73-2.821-5.927-15.292 4.544-19.3 4.594-1.782 8.94-.792 13.93-1.98 5.285-1.237 11.41-5.196 13.879-10.392 2.766 8.363 6.125 21.329.099 29.346" />
            <path fill="#6DB33F" d="M50.96 47.692a24.28 24.28 0 0 0 5.54-13.846z" />
            <path fill="#fff"
                d="M52.214 42.753c-5.872 7.833-18.504 5.173-26.547 5.567 0 0-1.431.098-2.862.295 0 0 .543-.246 1.233-.492 5.675-1.97 8.34-2.365 11.794-4.139 6.464-3.3 12.928-10.542 14.21-18.03-2.467 7.192-9.967 13.4-16.776 15.912-4.688 1.724-13.126 3.4-13.126 3.4l-.345-.198c-5.724-2.808-5.921-15.223 4.54-19.213 4.589-1.774 8.93-.788 13.914-1.97 5.28-1.233 11.399-5.174 13.866-10.346 2.763 8.325 6.118 21.233.099 29.214M20.001 49.78c-.787.808-2.25.897-3.262.27-1.012-.628-1.125-1.793-.338-2.6.788-.807 2.25-.896 3.263-.269.956.628 1.125 1.793.337 2.6" />
        </symbol>

        <symbol xmlns="http://www.w3.org/2000/svg" fill="none" viewBox="0 0 64 64" id="reactjs">
            <desc>ReactJS logo</desc>
            <path fill="#80DEEA"
                d="M31.83 43.635C16.781 43.635 5 38.503 5 31.97s11.782-11.665 26.83-11.665 26.829 5.133 26.829 11.665c0 6.533-11.782 11.665-26.83 11.665Zm0-20.997c-14.698 0-24.497 4.783-24.497 9.332s9.798 9.332 24.496 9.332 24.497-4.782 24.497-9.332c0-4.549-9.799-9.332-24.497-9.332Z" />
            <path fill="#80DEEA"
                d="M21.448 56c-1.167 0-2.1-.233-3.033-.816-5.716-3.267-4.2-15.981 3.266-29.046 3.5-6.066 7.815-11.199 12.015-14.465 4.55-3.5 8.632-4.549 11.431-2.916 2.917 1.633 3.966 5.716 3.267 11.432-.7 5.366-3.033 11.665-6.533 17.73s-7.815 11.199-12.015 14.465C26.813 54.717 23.897 56 21.448 56M42.21 10.273c-1.866 0-4.316 1.05-6.999 3.15-3.966 3.15-8.049 8.049-11.432 13.881-7.348 12.715-8.048 23.68-4.199 25.896 1.983 1.167 5.25.117 8.866-2.682 3.966-3.15 8.048-8.05 11.431-13.882s5.6-11.781 6.3-16.797c.583-4.666-.117-7.932-2.1-9.099-.584-.233-1.167-.466-1.867-.466Z" />
            <path fill="#80DEEA"
                d="M42.328 56c-5.833 0-14.231-7.115-20.53-18.197-7.583-13.065-9.1-25.78-3.383-29.046s15.98 4.316 23.563 17.38c3.5 6.067 5.832 12.366 6.532 17.731.817 5.716-.35 9.682-3.266 11.432-.933.467-1.866.7-2.916.7M19.58 10.74c-3.85 2.216-3.15 13.182 4.2 25.896 7.348 12.715 16.447 18.78 20.297 16.564 1.983-1.166 2.682-4.432 2.1-9.098-.7-5.016-2.917-10.965-6.3-16.798C32.53 14.59 23.431 8.524 19.581 10.74Z" />
            <path fill="#80DEEA"
                d="M31.83 36.636a4.666 4.666 0 1 0 0-9.332 4.666 4.666 0 0 0 0 9.332" />
        </symbol>

        <symbol xmlns="http://www.w3.org/2000/svg" fill="none" viewBox="0 0 65 64" id="postgre">
            <desc>PostgreSQL logo</desc>
            <path fill="#336791"
                d="M57.182 38.815c-6.799 1.351-7.267-.869-7.267-.869C57.093 27.674 60.09 14.63 57.502 11.44c-7.063-8.706-19.29-4.588-19.494-4.48l-.07.008c-1.34-.268-2.844-.43-4.533-.456-3.077-.05-5.411.779-7.179 2.072 0 0-21.814-8.67-20.798 10.904.218 4.163 6.186 31.503 13.308 23.244 2.604-3.021 5.119-5.573 5.119-5.573a6.78 6.78 0 0 0 4.31 1.061l.121-.098c-.037.376-.018.743.047 1.177-1.833 1.978-1.295 2.323-4.965 3.053-3.713.738-1.532 2.05-.107 2.394 1.726.417 5.717 1.008 8.417-2.636l-.106.416c.719.555 1.225 3.613 1.141 6.383-.083 2.77-.14 4.673.427 6.16.566 1.485 1.132 4.829 5.954 3.83 4.027-.832 6.116-2.99 6.408-6.588.204-2.56.673-2.18.7-4.467l.377-1.083c.431-3.47.07-4.588 2.552-4.07l.603.05c1.828.08 4.218-.282 5.62-.913 3.01-1.347 4.807-3.608 1.828-3.012Z" />
            <path fill="#fff"
                d="M31.13 40.78a.83.83 0 0 1 .864-.788c.464.013.83.385.816.833-.097 3.325-.078 6.66.047 9.328.116 2.403.316 4.212.594 4.883.297.712.756 1.764 1.638 2.475.858.698 2.18 1.124 4.288.69 1.842-.38 3.08-.922 3.907-1.75.816-.82 1.28-1.979 1.568-3.6.214-1.181.506-3.245.77-5.299.335-2.57.64-5.165.706-6.002.032-.448.436-.784.9-.748.464.031.812.42.775.868-.065.815-.371 3.443-.72 6.088-.278 2.122-.575 4.225-.779 5.367-.348 1.938-.937 3.366-2.018 4.449-1.077 1.079-2.585 1.759-4.77 2.211-2.715.56-4.506-.054-5.718-1.038-1.192-.967-1.758-2.247-2.115-3.111-.353-.846-.59-2.843-.715-5.416-.12-2.69-.135-6.07-.037-9.44ZM26.5 7.688a.8.8 0 0 1 .468 1.052.85.85 0 0 1-1.09.452C25.822 9.17 5.266 1.068 6.217 19.366c.116 2.26 1.972 11.508 4.793 17.958.891 2.032 1.87 3.769 2.91 4.879.867.931 1.754 1.379 2.608 1.083.473-.165.979-.537 1.512-1.155a113 113 0 0 1 4.998-5.43.86.86 0 0 1 1.183-.026c.334.309.348.82.028 1.142a113 113 0 0 0-4.919 5.348c-.737.86-1.49 1.392-2.245 1.652-1.606.55-3.082-.094-4.418-1.526-1.17-1.25-2.246-3.142-3.202-5.34-2.9-6.62-4.807-16.163-4.928-18.509C3.456-1.398 26.435 7.662 26.5 7.688m11.921-.125-1.248-1.316q.153-.054.306-.094a33 33 0 0 1 .891-.26 22 22 0 0 1 1.995-.465c4.19-.784 12.367-1.209 17.754 5.433 1.522 1.876 1.397 6.518-.176 12.014-1.392 4.866-3.902 10.474-7.373 15.443a.863.863 0 0 1-1.17.219.796.796 0 0 1-.227-1.128c3.369-4.82 5.8-10.26 7.15-14.968 1.439-5.022 1.666-9.118.474-10.586-4.835-5.957-12.292-5.555-16.12-4.834-.785.148-1.411.304-1.838.425z" />
            <path fill="#fff"
                d="M50.667 37.615q.014.033.018.067c0 .005.288 1.45 6.279.26.849-.17 1.452-.135 1.842.049.506.233.724.622.691 1.123-.018.305-.167.632-.413.958-.566.748-1.86 1.715-3.434 2.417-1.178.529-2.974.882-4.621.972-.97.053-1.898.018-2.636-.125-.928-.18-1.633-.551-1.926-1.155a1.3 1.3 0 0 1-.134-.524c-.186-3.142 1.401-3.693 2.51-3.997a11 11 0 0 0-.45-.564c-.562-.676-1.28-1.544-1.852-2.874-.088-.201-.343-.649-.686-1.24-1.453-2.51-4.311-7.461-3.75-10.84.4-2.413 2.307-4.016 7.072-3.537l-.046-.134a15.5 15.5 0 0 0-1.114-2.35c-2.079-3.652-6.612-8.746-14.663-8.872C21.07 7.057 21.474 22 21.474 22.04c.01.447-.361.814-.826.823a.826.826 0 0 1-.853-.797c0-.049-.455-16.655 13.582-16.436 8.863.139 13.837 5.716 16.111 9.709.566.993.97 1.897 1.225 2.6.288.788.395 1.406.348 1.679-.065.403-.297.653-.696.73l-.302.004c-4.37-.676-6.023.358-6.301 2.041-.469 2.833 2.204 7.453 3.56 9.802.366.636.644 1.12.77 1.415.482 1.123 1.113 1.884 1.605 2.484.46.542.821.98.97 1.522Zm6.636 1.911c-4.441.887-6.51.238-7.462-.46-.13.04-.27.075-.418.116-.594.16-1.517.411-1.42 2.336.07.072.33.148.71.224.608.116 1.388.143 2.218.099 1.453-.081 3.017-.381 4.014-.829 1.026-.46 1.884-1.016 2.413-1.5zm-28.396.238c-.343.371-.626.716-.867 1.011-1.03 1.263-1.35 1.657-4.548 2.292-.575.117-.965.228-1.206.34.297.206.742.376 1.132.47.789.193 2.097.421 3.499.193 1.364-.224 2.835-.9 4.027-2.511q.056-.082.098-.17c.12-.282.093-.636-.028-.972a1.84 1.84 0 0 0-.64-.864 1 1 0 0 0-.2-.107l-.042-.018c-.171-.067-.362-.139-.524-.125-.176.018-.399.134-.7.46Zm-2.19.004c.228-.277.492-.6.891-1.034q.05-.061.107-.116c.617-.645 1.206-.886 1.75-.931.538-.045.955.103 1.308.246q.02.006.046.018.272.11.53.286c.551.38 1.006.985 1.252 1.643.25.685.292 1.45-.005 2.13a2.5 2.5 0 0 1-.283.489c-1.503 2.032-3.378 2.882-5.113 3.169-1.703.282-3.253.009-4.19-.215-.683-.166-1.527-.533-2.024-.98-.292-.264-.492-.578-.547-.927-.065-.416.065-.82.46-1.177.38-.345 1.085-.658 2.25-.89 2.594-.516 2.826-.798 3.568-1.71Z" />
            <path fill="#fff"
                d="M28.996 39.06a.81.81 0 0 1-.706.923c-.459.063-.89-.237-.956-.68a4 4 0 0 1-.037-.327 7 7 0 0 1-.82-.067c-1.801-.242-3.43-1.12-4.655-2.417a8.27 8.27 0 0 1-2.218-4.861 8.4 8.4 0 0 1 .046-2.073c.413-2.838.255-5.376.177-6.692a14 14 0 0 1-.038-.832c.005-.533 1.392-1.706 3.22-2.43.827-.327 1.75-.6 2.664-.735.966-.139 1.94-.125 2.817.139 1.373.416 2.464 1.397 2.882 3.272 1.508 6.719.157 9.606-.896 11.866-.181.39-.353.757-.483 1.088q-.007.031-.023.062c-.44 1.146.204-.532-.13.323-.524 1.378-.983 2.56-.844 3.442Zm-1.518-1.7c.181-.72.478-1.482.794-2.3.25-.645-.404 1.042.12-.323q.015-.034.028-.067c.163-.416.34-.788.52-1.182.956-2.046 2.172-4.66.784-10.854-.269-1.204-.923-1.822-1.74-2.068-.612-.184-1.332-.188-2.07-.08a10.6 10.6 0 0 0-2.283.626c-1.238.488-2.176.9-2.176.935 0 .117.014.38.037.734.084 1.366.246 4.01-.185 7.01a7 7 0 0 0-.042 1.7 6.67 6.67 0 0 0 1.791 3.922c.965 1.02 2.241 1.714 3.643 1.902.26.027.52.045.78.045Z" />
            <path fill="#fff"
                d="M26.11 21.927c-.037.264.506.975 1.211 1.07.706.093 1.313-.462 1.35-.726s-.505-.56-1.21-.653c-.706-.094-1.314.044-1.35.309Z" />
            <path fill="#fff"
                d="M26.388 21.962c-.009.059.089.21.251.376.181.184.436.35.72.39h.004c.278.036.538-.054.733-.184.181-.116.292-.241.306-.313 0-.014-.07-.054-.185-.116a2.4 2.4 0 0 0-.79-.233h-.008a2.4 2.4 0 0 0-.817.018c-.13.031-.214.053-.214.062m-.153.748c-.273-.278-.427-.609-.399-.815v-.009c.037-.255.274-.43.636-.514a3 3 0 0 1 1.02-.027h.015c.39.053.738.16.983.295.325.175.506.412.47.663-.029.197-.238.483-.548.684a1.66 1.66 0 0 1-1.123.274h-.005c-.427-.054-.793-.291-1.049-.551m21.425-1.325c.037.264-.506.976-1.211 1.07-.71.094-1.313-.461-1.35-.726s.505-.56 1.215-.653c.7-.094 1.304.045 1.346.309" />
            <path fill="#fff"
                d="M47.794 21.367c.023.17-.116.461-.362.712-.236.241-.58.46-.97.51h-.004a1.54 1.54 0 0 1-1.021-.25c-.279-.18-.46-.426-.487-.591-.028-.193.125-.38.399-.529.232-.125.561-.228.932-.277a2.9 2.9 0 0 1 .98.022c.306.067.505.206.533.403m-.566.524c.19-.193.302-.39.288-.488-.01-.072-.13-.134-.316-.18a2.6 2.6 0 0 0-.877-.017 2.6 2.6 0 0 0-.835.246c-.167.09-.265.184-.255.255.014.099.153.264.366.403.218.143.515.246.83.206h.005c.311-.04.594-.224.794-.425m2.12-2.305c-.023-.448.334-.828.798-.85s.859.322.882.77c.07 1.253-.088 2.246-.255 3.29-.126.778-.256 1.593-.283 2.501-.028.864.088 1.822.213 2.807.325 2.591.668 5.367-1.327 8.236a.86.86 0 0 1-1.165.223.795.795 0 0 1-.232-1.123c1.643-2.368 1.337-4.834 1.049-7.144-.13-1.03-.255-2.032-.218-3.044.032-1.047.167-1.884.297-2.694.157-.976.301-1.898.241-2.972" />
        </symbol>

        <symbol xmlns="http://www.w3.org/2000/svg" fill="none" viewBox="0 0 65 64" id="oracle">
            <desc>Oracle logo</desc>
            <path fill="#C74634"
                d="M22.35 49.17h20.578a17.76 17.76 0 0 0 12.222-5.308 17.53 17.53 0 0 0 5.025-12.274c0-4.586-1.803-8.99-5.025-12.274a17.76 17.76 0 0 0-12.222-5.308H22.35a17.8 17.8 0 0 0-6.916 1.205 17.7 17.7 0 0 0-5.9 3.78 17.6 17.6 0 0 0-3.958 5.761 17.49 17.49 0 0 0 0 13.672 17.6 17.6 0 0 0 3.957 5.761 17.7 17.7 0 0 0 5.9 3.78 17.8 17.8 0 0 0 6.916 1.205Zm20.113-6.19h-19.66a11.5 11.5 0 0 1-7.866-3.46 11.35 11.35 0 0 1-3.228-7.92c0-2.956 1.158-5.797 3.228-7.92a11.5 11.5 0 0 1 7.865-3.46h19.661a11.5 11.5 0 0 1 4.499.758c1.433.55 2.74 1.38 3.844 2.442a11.4 11.4 0 0 1 2.581 3.738 11.32 11.32 0 0 1 0 8.884 11.4 11.4 0 0 1-2.58 3.738 11.5 11.5 0 0 1-3.845 2.441 11.55 11.55 0 0 1-4.499.76Z" />
        </symbol>

        <symbol xmlns="http://www.w3.org/2000/svg" fill="none" viewBox="0 0 65 64" id="kafka">
            <desc>Kafka logo</desc>
            <path fill="#231F20"
                d="M40.806 34.586a6.24 6.24 0 0 0-4.692 2.132l-2.94-2.082c.311-.86.49-1.782.49-2.748a8 8 0 0 0-.474-2.703l2.934-2.06a6.24 6.24 0 0 0 4.682 2.121 6.264 6.264 0 0 0 6.258-6.257 6.264 6.264 0 0 0-6.258-6.258 6.264 6.264 0 0 0-6.257 6.258c0 .617.093 1.213.26 1.777l-2.935 2.06a8.08 8.08 0 0 0-5.004-2.907V20.38c2.834-.595 4.97-3.113 4.97-6.123A6.264 6.264 0 0 0 25.582 8a6.264 6.264 0 0 0-6.257 6.257c0 2.97 2.08 5.456 4.858 6.094v3.585c-3.79.665-6.683 3.973-6.683 7.952 0 3.998 2.92 7.319 6.739 7.961v3.785c-2.806.617-4.914 3.12-4.914 6.109A6.264 6.264 0 0 0 25.582 56a6.264 6.264 0 0 0 6.258-6.257c0-2.99-2.108-5.492-4.914-6.109V39.85a8.08 8.08 0 0 0 4.92-2.86l2.96 2.094a6.2 6.2 0 0 0-.257 1.76 6.264 6.264 0 0 0 6.257 6.258 6.265 6.265 0 0 0 6.258-6.258 6.264 6.264 0 0 0-6.258-6.257Zm0-14.631a3.037 3.037 0 0 1 3.034 3.034 3.037 3.037 0 0 1-3.034 3.034 3.037 3.037 0 0 1-3.033-3.034 3.037 3.037 0 0 1 3.033-3.034m-18.258-5.698a3.037 3.037 0 0 1 3.034-3.033 3.037 3.037 0 0 1 3.034 3.033 3.037 3.037 0 0 1-3.034 3.034 3.037 3.037 0 0 1-3.034-3.034m6.068 35.486a3.037 3.037 0 0 1-3.034 3.033 3.037 3.037 0 0 1-3.034-3.033 3.037 3.037 0 0 1 3.034-3.034 3.037 3.037 0 0 1 3.034 3.034m-3.034-13.624a4.236 4.236 0 0 1-4.232-4.23 4.236 4.236 0 0 1 4.232-4.232 4.236 4.236 0 0 1 4.232 4.231 4.236 4.236 0 0 1-4.232 4.231m15.224 7.758a3.037 3.037 0 0 1-3.033-3.034 3.037 3.037 0 0 1 3.033-3.033 3.037 3.037 0 0 1 3.034 3.033 3.037 3.037 0 0 1-3.034 3.034" />
        </symbol>

        <symbol xmlns="http://www.w3.org/2000/svg" fill="none" viewBox="0 0 65 64" id="kubernetes">
            <desc>Kubernetes logo</desc>
            <path fill="#326DE6"
                d="M52.298 18.676c-.273-.909-.933-1.648-1.757-2.101L33.803 8.283C33.36 8.057 32.869 8 32.428 8c-.442 0-.934 0-1.371.113l-16.742 8.349c-.824.396-1.426 1.135-1.649 2.101L8.553 37.245a3.68 3.68 0 0 0 .606 2.727L20.74 54.791c.66.683 1.593 1.135 2.523 1.192h18.44c.99.113 1.923-.34 2.524-1.192L55.81 39.972c.55-.796.77-1.761.66-2.727z" />
            <path fill="#fff"
                d="M49.745 36.065c-.055 0-.11 0-.11-.057 0-.056-.11-.056-.219-.056-.218-.057-.437-.057-.66-.057-.11 0-.218 0-.328-.057h-.055a11 11 0 0 1-1.867-.339.67.67 0 0 1-.383-.396s.055 0 0 0l-.437-.113c.219-1.649.11-3.35-.219-4.999a15.6 15.6 0 0 0-1.922-4.655l.328-.34v-.056c0-.17.055-.396.165-.51.492-.452.988-.795 1.535-1.135l.328-.17c.218-.113.383-.226.605-.339.055-.057.11-.057.164-.113.055-.057 0-.057 0-.113.492-.396.606-1.08.219-1.588a1.03 1.03 0 0 0-.77-.396c-.273 0-.55.113-.769.282l-.055.057c-.054.057-.109.113-.164.113-.164.17-.328.34-.437.51-.055.113-.164.17-.219.226a7.3 7.3 0 0 1-1.371 1.248c-.11.057-.219.113-.328.113-.055 0-.164 0-.219-.056h-.055l-.437.283c-.438-.453-.934-.91-1.371-1.362-2.031-1.649-4.555-2.667-7.137-2.954l-.054-.453v.057c-.164-.113-.22-.283-.274-.453 0-.626 0-1.248.11-1.931v-.057c0-.113.054-.226.054-.34.055-.226.055-.452.11-.682v-.348c.054-.57-.383-1.135-.934-1.192-.328-.056-.66.113-.934.396-.218.226-.328.51-.328.796v.283c0 .226.055.453.11.683a.74.74 0 0 1 .054.34v.056c.11.627.11 1.249.11 1.932-.055.17-.11.34-.274.452v.113l-.054.453c-.606.057-1.207.17-1.867.283-2.579.57-4.942 1.988-6.75 3.976l-.328-.226h-.055c-.055 0-.11.056-.219.056-.11 0-.219-.056-.328-.113a10.3 10.3 0 0 1-1.371-1.305c-.055-.113-.164-.17-.219-.226-.164-.17-.273-.34-.437-.51-.055-.056-.11-.056-.164-.113l-.055-.056a1.3 1.3 0 0 0-.77-.283c-.328 0-.605.113-.77.396a1.25 1.25 0 0 0 .22 1.588c.054 0 .054.057.054.057s.11.113.164.113c.164.113.383.226.606.34l.328.17c.55.338 1.098.682 1.535 1.135.11.113.219.34.164.509v-.057l.328.34c-.054.113-.11.17-.164.282-1.703 2.785-2.414 6.078-1.922 9.315l-.437.113c0 .057-.055.057-.055.057-.055.17-.219.283-.383.396a10 10 0 0 1-1.867.34c-.11 0-.218 0-.328.056-.219 0-.437.056-.66.056-.055 0-.11.057-.219.057-.055 0-.055 0-.11.056-.605.114-.987.683-.878 1.306.11.509.605.852 1.098.796.109 0 .164 0 .273-.057.055 0 .055 0 .055-.056 0-.057.164 0 .219 0 .218-.057.437-.17.605-.227.11-.056.219-.113.328-.113h.055a9.6 9.6 0 0 1 1.812-.509h.055a.6.6 0 0 1 .437.17c.055 0 .055.056.055.056l.492-.056c.824 2.61 2.36 4.942 4.5 6.643.492.396.934.74 1.48 1.023l-.273.396c0 .056.055.056.055.056.11.17.11.396.054.57-.218.57-.55 1.136-.878 1.649v.056c-.055.113-.11.17-.22.283-.108.113-.218.34-.382.57-.055.056-.055.113-.11.17 0 0 0 .056-.054.056-.273.57-.055 1.249.438 1.532a1 1 0 0 0 .382.113c.438 0 .825-.283 1.043-.683 0 0 0-.057.055-.057 0-.056.055-.113.11-.17.054-.226.163-.395.218-.626l.11-.34c.163-.626.437-1.191.714-1.761a.85.85 0 0 1 .438-.34c.054 0 .054 0 .054-.056l.22-.453c1.534.627 3.128.91 4.773.91.988 0 1.976-.113 2.964-.396.606-.114 1.207-.34 1.758-.51l.219.396c.054 0 .054 0 .054.057.165.057.329.17.438.34.273.57.55 1.135.715 1.761v.057l.11.34c.054.226.109.452.218.626.055.056.055.113.11.17 0 0 0 .056.054.056.219.396.605.683 1.043.683.164 0 .273-.057.438-.113.218-.113.437-.34.492-.627.054-.282.054-.57-.055-.852 0-.057-.055-.057-.055-.057 0-.056-.054-.113-.11-.17a2.1 2.1 0 0 0-.382-.57c-.055-.112-.11-.169-.219-.282v-.113c-.383-.51-.66-1.08-.879-1.649a.7.7 0 0 1 .055-.57c0-.056.055-.056.055-.056l-.164-.453a13.97 13.97 0 0 0 5.93-7.722l.437.056c.055 0 .055-.056.055-.056a.6.6 0 0 1 .437-.17h.055a9 9 0 0 1 1.758.51h.054c.11.056.219.112.328.112.219.113.383.227.606.283.054 0 .11.057.218.057.055 0 .055 0 .11.056.11.057.164.057.273.057.492 0 .934-.34 1.098-.796-.047-.614-.488-1.071-.98-1.184m-15.863-1.762-1.48.74-1.481-.74-.383-1.649 1.043-1.362h1.648l1.043 1.362zm8.945-3.69a11.3 11.3 0 0 1 .218 3.577l-5.214-1.532c-.492-.113-.77-.626-.66-1.135a.9.9 0 0 1 .218-.396l4.117-3.864a11.7 11.7 0 0 1 1.32 3.35Zm-2.965-5.45-4.5 3.293c-.383.226-.934.17-1.207-.227a.52.52 0 0 1-.164-.396l-.328-5.734a10.2 10.2 0 0 1 6.199 3.063Zm-9.934-2.898 1.098-.227-.273 5.678c0 .51-.438.91-.934.91-.164 0-.273-.057-.437-.114l-4.555-3.35c1.422-1.418 3.18-2.44 5.101-2.897m-6.695 4.998 4.063 3.746c.383.34.437.91.11 1.306-.11.17-.22.226-.438.283l-5.325 1.588a12.2 12.2 0 0 1 1.59-6.923m-.933 9.598 5.433-.966c.438 0 .88.283.934.74a.7.7 0 0 1-.055.57l-2.086 5.224a11.12 11.12 0 0 1-4.226-5.568m12.46 7.04c-.77.169-1.535.282-2.359.282-1.152 0-2.36-.226-3.457-.57l2.692-5.055c.273-.34.714-.453 1.097-.226.164.113.274.226.438.396l2.636 4.942c-.336.06-.664.117-1.047.23Zm6.696-4.939a10.7 10.7 0 0 1-3.293 3.407l-2.14-5.338c-.11-.453.108-.91.491-1.08.164-.056.328-.113.492-.113l5.489.966c-.27.792-.602 1.532-1.04 2.158Z" />
        </symbol>

        <symbol xmlns="http://www.w3.org/2000/svg" fill="none" viewBox="0 0 65 64" id="elk">
            <desc>ELK logo</desc>
            <path fill="#F0BF1A"
                d="M16.72 27.62H2.23c-.365 0-.664-.28-.664-.624v-4.371c0-.344.299-.625.664-.625h18.9c.366 0 .664.281.664.625v.218c-.033 2.623-2.288 4.777-5.073 4.777Z" />
            <path fill="#3EBEB0"
                d="M21.832 41.991H1.629v-5.62h15.16c2.787 0 5.043 2.123 5.043 4.746z" />
            <path fill="#07A5DE"
                d="M16.526 34.807H1.5v-5.623h15.026c1.658 0 2.985 1.25 2.985 2.812s-1.36 2.81-2.985 2.81Z" />
            <path fill="#231F20"
                d="M10.85 29.184H1.03v5.623h9.818c.233-.843.365-1.78.365-2.811s-.132-1.968-.365-2.812Z" />
            <path fill="#D7A229"
                d="M6.833 23.338c-1.793 1-3.286 2.5-4.216 4.282h7.834c-.796-1.719-2.058-3.157-3.618-4.282" />
            <path fill="#019B8F"
                d="M7.166 40.804a11.2 11.2 0 0 0 3.52-4.433H2.617c.996 1.873 2.59 3.434 4.55 4.433Z" />
            <path fill="#F3BD19"
                d="M35.423 32.69h-9.847V22h2.973c3.823 0 6.874 2.91 6.874 6.473v4.218Z" />
            <path fill="#231F20" d="M35.424 42c-5.444 0-9.885-4.145-9.885-9.31h9.885z" />
            <path fill="#3EBEB0" d="M35.424 32.69h8.997V42h-8.997z" />
            <path fill="#37A595" d="M35.424 32.69h2.085V42h-2.085z" />
            <path fill="#E9478B"
                d="M48.436 29.49c2.819 0 5.483.692 7.8 1.856L64.499 22H48.127v18.545-11.054h.309Z" />
            <path fill="#3EBEB0"
                d="m56.236 31.346-8.109 9.2V42h16.334c-.927-4.582-4.016-8.473-8.225-10.654" />
            <path fill="#37A595"
                d="m56.236 31.346-8.109 9.2V42h2.896l7.877-8.946s-.54-.4-1.274-.909c-.54-.363-1.39-.8-1.39-.8Z" />
            <path fill="#353535" d="M48.436 29.491h-.309v11.054l8.109-9.2a17.4 17.4 0 0 0-7.8-1.854" />
        </symbol>

        <symbol xmlns="http://www.w3.org/2000/svg" fill="none" viewBox="0 0 65 64" id="prometheus">
            <desc>Prometheus logo</desc>
            <path fill="#DA4E31"
                d="M32.5 8c-13.254 0-24 10.745-24 24s10.746 24 24 24c13.255 0 24-10.745 24-24S45.754 8 32.5 8m0 44.918c-3.77 0-6.828-2.519-6.828-5.626h13.657c0 3.107-3.058 5.626-6.829 5.626M43.78 45.43H21.22v-4.09h22.56zm-.081-6.196H21.285q-.114-.127-.223-.257c-2.31-2.804-2.853-4.268-3.381-5.76-.01-.049 2.8.574 4.792 1.022 0 0 1.025.237 2.523.51-1.439-1.686-2.293-3.83-2.293-6.021 0-4.811 3.69-9.015 2.359-12.413 1.295.105 2.68 2.734 2.775 6.845 1.377-1.904 1.953-5.38 1.953-7.511 0-2.207 1.454-4.77 2.909-4.858-1.297 2.137.336 3.969 1.787 8.513.544 1.707.475 4.58.895 6.4.14-3.782.79-9.303 3.19-11.209-1.06 2.4.156 5.404.988 6.847 1.341 2.33 2.154 4.095 2.154 7.433 0 2.238-.826 4.345-2.22 5.992a55 55 0 0 0 2.68-.566l5.146-1.004s-.747 3.076-3.621 6.037" />
        </symbol>

        <symbol id="grafana" viewBox="0 0 64 64" fill="none" xmlns="http://www.w3.org/2000/svg">
            <desc>Grafana logo</desc>
            <path
                d="M58.0835 28.681C58.0223 27.7155 57.8389 26.6293 57.5332 25.4828C57.2274 24.2759 56.7383 23.0086 56.0657 21.6207C55.3931 20.2931 54.4759 18.8449 53.3143 17.5172C52.8862 16.9741 52.3971 16.431 51.8468 15.9483C52.6416 12.8104 50.8685 10.0948 50.8685 10.0948C47.8113 9.91379 45.8547 11 45.121 11.5431C44.9987 11.4828 44.8764 11.4224 44.7541 11.4224C44.265 11.2414 43.7147 11 43.1644 10.8793C42.6141 10.7586 42.0638 10.5776 41.4523 10.3966C40.902 10.2759 40.2906 10.1552 39.6792 10.0345C39.5569 10.0345 39.4958 9.97414 39.3735 9.97414C38.0283 5.75 34.2374 4 34.2374 4C29.9573 6.65517 29.1625 10.3966 29.1625 10.3966C29.1625 10.3966 29.1625 10.4569 29.1013 10.6379C28.8568 10.6983 28.6122 10.7586 28.3676 10.819C28.0619 10.9396 27.695 11.0604 27.3893 11.1207C27.0835 11.2414 26.7167 11.3621 26.411 11.4828C25.7995 11.7241 25.127 12.0862 24.5155 12.3879C23.9041 12.75 23.2927 13.1121 22.7424 13.4741C22.6812 13.4138 22.6201 13.4138 22.6201 13.4138C16.6891 11.181 11.4308 13.8362 11.4308 13.8362C11.0028 20.1121 13.8154 24.0345 14.3657 24.7586C14.2434 25.1207 14.1211 25.5431 13.9988 25.9051C13.5708 27.2931 13.2651 28.7414 13.0205 30.25C13.0205 30.431 12.9593 30.6724 12.9593 30.9138C7.51758 33.569 5.8667 39 5.8667 39C10.4525 44.1896 15.7108 44.4914 15.7108 44.4914C16.3834 45.6983 17.1783 46.7845 18.0343 47.8707C18.4012 48.2931 18.768 48.7155 19.196 49.1379C17.5451 53.8449 19.4406 57.7069 19.4406 57.7069C24.5155 57.8879 27.8784 55.5345 28.551 54.9914C29.0402 55.1724 29.5905 55.2931 30.0796 55.4138C31.6082 55.8362 33.2591 56.0172 34.8488 56.1379C35.2157 56.1379 35.6437 56.1379 36.0717 56.1379H36.2552H36.3774H36.622H36.8666C39.2512 59.5172 43.4701 60 43.4701 60C46.4661 56.8621 46.6496 53.7845 46.6496 53.1207C46.6496 53.1207 46.6496 53.1207 46.6496 53.0604C46.6496 53 46.6496 52.9396 46.6496 52.9396C46.6496 52.8793 46.6496 52.8189 46.6496 52.8189C47.261 52.3966 47.8724 51.9138 48.4227 51.431C49.6456 50.3448 50.6851 49.1379 51.541 47.8104C51.6022 47.6896 51.7245 47.5689 51.7856 47.4483C55.1486 47.6293 57.5332 45.3966 57.5332 45.3966C56.9829 41.8966 54.9651 40.2069 54.5371 39.9051C54.5371 39.9051 54.5371 39.9051 54.4759 39.9051C54.4148 39.9051 54.4148 39.9051 54.4148 39.9051C54.4148 39.9051 54.3537 39.9051 54.3537 39.8449C54.3537 39.6638 54.4148 39.4224 54.4148 39.2414C54.4148 38.8793 54.4759 38.5172 54.4759 38.0949V37.7931V37.6724V37.6121C54.4759 37.4914 54.4759 37.5517 54.4759 37.4914V37.25V36.9483C54.4759 36.8276 54.4759 36.7672 54.4759 36.6466C54.4759 36.5259 54.4759 36.4655 54.4148 36.3449L54.3537 36.0431L54.2925 35.7414C54.2314 35.3793 54.1702 34.9569 54.048 34.5949C53.6811 33.0862 53.1308 31.6983 52.3359 30.3707C51.541 29.1034 50.5628 27.9569 49.4622 26.9914C48.3616 26.0259 47.1387 25.2414 45.8547 24.6983C44.5707 24.1551 43.2255 23.7328 41.8804 23.6121C41.2078 23.5517 40.5352 23.4914 39.8626 23.4914H39.618H39.5569C39.5569 23.4914 39.4346 23.4914 39.4958 23.4914H39.3735H39.1289C39.0677 23.4914 38.9455 23.4914 38.8843 23.4914C38.5174 23.4914 38.2117 23.5517 37.8449 23.6121C36.4997 23.8534 35.2157 24.3362 34.1151 25C33.0145 25.6638 32.0362 26.5086 31.2414 27.4138C30.4465 28.319 29.835 29.4051 29.407 30.4311C28.979 31.5172 28.7344 32.6034 28.6733 33.6896C28.6733 33.931 28.6733 34.2328 28.6733 34.4741C28.6733 34.5345 28.6733 34.5949 28.6733 34.6551V34.8966C28.6733 35.0172 28.6733 35.1379 28.6733 35.2586C28.7344 35.8017 28.7956 36.3449 28.979 36.8276C29.2847 37.8534 29.7127 38.7586 30.3242 39.4828C30.8745 40.2672 31.6082 40.8707 32.3419 41.4138C33.0757 41.8966 33.8705 42.2586 34.6654 42.5C35.4603 42.7414 36.194 42.8017 36.9277 42.8017C37.05 42.8017 37.1112 42.8017 37.1723 42.8017C37.2334 42.8017 37.2946 42.8017 37.2946 42.8017H37.4169C37.478 42.8017 37.5392 42.8017 37.6614 42.8017H37.7225H37.7837C37.8449 42.8017 37.906 42.8017 37.906 42.8017C38.0283 42.8017 38.0895 42.7414 38.1506 42.7414C38.2117 42.7414 38.334 42.681 38.3952 42.681C38.5786 42.6207 38.7009 42.6207 38.8843 42.5604C39.1901 42.4396 39.4958 42.319 39.8015 42.1983C40.1072 42.0776 40.3517 41.8966 40.5963 41.7155C40.6575 41.6551 40.7186 41.5949 40.7798 41.5949C41.0244 41.4138 41.0855 41.0517 40.902 40.8104C40.7186 40.5689 40.4129 40.569 40.1683 40.6896C40.1072 40.6896 40.0461 40.75 39.9849 40.8104C39.8015 40.931 39.5569 40.9914 39.3123 41.0517C39.0677 41.1121 38.8232 41.1724 38.5786 41.2328C38.4563 41.2328 38.334 41.2931 38.2117 41.2931C38.1506 41.2931 38.0895 41.2931 38.0283 41.2931C37.9671 41.2931 37.906 41.2931 37.8449 41.2931C37.7837 41.2931 37.7226 41.2931 37.6614 41.2931C37.6003 41.2931 37.478 41.2931 37.4169 41.2931H37.3557C37.2946 41.2931 37.2946 41.2931 37.2334 41.2931C37.1723 41.2931 37.1112 41.2931 37.05 41.2931C36.4997 41.2328 35.8883 41.0517 35.338 40.8104C34.7877 40.5689 34.2374 40.2069 33.7482 39.7845C33.2591 39.3621 32.8311 38.819 32.5254 38.2759C32.2196 37.6724 31.9751 37.0689 31.8528 36.3449C31.7917 35.9828 31.7917 35.681 31.7917 35.3189C31.7917 35.1983 31.7917 35.1379 31.7917 35.0172V34.9569V34.8966C31.7917 34.8362 31.7917 34.7759 31.7917 34.7759C31.7917 34.5949 31.8528 34.4138 31.8528 34.2328C32.0974 32.7241 32.8922 31.2759 34.0539 30.1896C34.3597 29.9483 34.6654 29.6466 34.9711 29.4655C35.2768 29.2241 35.6437 29.0431 36.0106 28.8621C36.3774 28.681 36.7443 28.5604 37.1723 28.4396C37.5392 28.3189 37.9671 28.2586 38.3952 28.2586C38.5786 28.2586 38.8232 28.2586 39.0066 28.2586C39.0677 28.2586 39.1289 28.2586 39.1289 28.2586H39.3123H39.4346H39.4958H39.6792C40.1072 28.3189 40.5963 28.3793 41.0244 28.4396C41.8804 28.6207 42.7364 28.9224 43.5312 29.4051C45.121 30.25 46.4661 31.6379 47.3221 33.2672C47.7502 34.1121 48.0559 34.9569 48.1782 35.8621C48.2393 36.1034 48.2393 36.3449 48.2393 36.5259V36.7069V36.8879C48.2393 36.9483 48.2393 37.0086 48.2393 37.069C48.2393 37.1293 48.2393 37.1896 48.2393 37.25V37.3707V37.5517C48.2393 37.6724 48.2393 37.8534 48.2393 37.9741C48.2393 38.2155 48.1782 38.4569 48.1782 38.6983C48.117 38.9396 48.117 39.181 48.0559 39.4224C47.9948 39.6638 47.9336 39.9051 47.8724 40.1466C47.7502 40.6293 47.5667 41.1121 47.3833 41.5949C47.0164 42.5 46.5273 43.4051 45.9158 44.25C44.693 45.8793 43.0421 47.2069 41.2078 48.0517C40.2906 48.4741 39.3123 48.7759 38.2729 48.9569C37.7837 49.0172 37.2334 49.0776 36.7443 49.0776H36.622H36.5609H36.3774H36.1328H36.0106H35.9494C35.7049 49.0776 35.3991 49.0776 35.1546 49.0172C34.054 48.9569 32.9533 48.7759 31.9139 48.4741C30.8745 48.1724 29.835 47.75 28.8568 47.2672C26.9001 46.2414 25.1881 44.8534 23.8429 43.1638C23.1704 42.3189 22.5589 41.4138 22.0698 40.5086C21.5806 39.5431 21.2137 38.5776 20.9081 37.5517C20.6024 36.5259 20.48 35.5 20.3578 34.4741V34.2931V34.2328V34.1121V34.0517V33.8707V33.8104V33.75V33.6293V33.3879V33.3276V33.2069C20.3578 33.0862 20.3578 32.9655 20.3578 32.8449C20.3578 32.3017 20.4189 31.8189 20.48 31.2759C20.5412 30.7328 20.6635 30.1896 20.7246 29.7069C20.8469 29.1638 20.9692 28.681 21.0915 28.1379C21.3972 27.1121 21.764 26.0862 22.1921 25.181C23.0481 23.3104 24.2098 21.6207 25.6161 20.2931C25.983 19.931 26.3498 19.6293 26.7167 19.3276C27.0835 19.0259 27.4504 18.7845 27.8784 18.4828C28.2453 18.2414 28.6733 18 29.1013 17.7586C29.2847 17.6379 29.5293 17.5776 29.7127 17.4569C29.835 17.3966 29.9573 17.3362 30.0184 17.3362C30.1408 17.2759 30.263 17.2155 30.3242 17.2155C30.7522 17.0345 31.2414 16.8534 31.6693 16.7328C31.7917 16.6724 31.9139 16.6724 32.0362 16.6121C32.1585 16.5517 32.2808 16.5517 32.4031 16.4914C32.6476 16.431 32.8922 16.3707 33.0757 16.3104C33.1979 16.3104 33.3202 16.25 33.4425 16.25C33.5648 16.25 33.6871 16.1896 33.8094 16.1896C33.9317 16.1896 34.0539 16.1293 34.1763 16.1293H34.3597H34.5431C34.6654 16.1293 34.7877 16.069 34.91 16.069C35.0322 16.069 35.1546 16.069 35.338 16.0086C35.4603 16.0086 35.6437 15.9483 35.766 15.9483C35.8271 15.9483 35.9494 15.9483 36.0106 15.9483H36.194H36.2552H36.3774C36.4997 15.9483 36.622 15.9483 36.8054 15.9483H36.9889H37.05H37.1112C37.2334 15.9483 37.3558 15.9483 37.478 15.9483C37.906 15.9483 38.3952 15.9483 38.8232 15.9483C39.7404 16.0086 40.5963 16.0689 41.5135 16.25C43.2255 16.5517 44.8764 17.0949 46.3439 17.8189C47.8113 18.5431 49.1564 19.3879 50.3182 20.3534C50.3794 20.4138 50.4405 20.4741 50.5016 20.5345C50.5628 20.5949 50.6239 20.6551 50.6851 20.7155C50.8073 20.8362 50.9297 20.9569 51.1131 21.0776C51.2353 21.1983 51.3576 21.3189 51.4799 21.4396C51.6022 21.5604 51.7245 21.681 51.8468 21.8017C52.3359 22.2845 52.764 22.8276 53.1919 23.3707C53.9868 24.3966 54.6594 25.4828 55.2097 26.4483C55.2708 26.5086 55.2708 26.5689 55.332 26.6293C55.3931 26.6896 55.3931 26.75 55.4543 26.8104C55.5154 26.9311 55.5765 27.0517 55.6377 27.1724C55.6989 27.2931 55.76 27.4138 55.8211 27.5345C55.8823 27.6551 55.9434 27.7759 55.9434 27.8966C56.1268 28.3793 56.3103 28.8017 56.4326 29.2241C56.6771 29.8879 56.8606 30.4914 56.9829 31.0345C57.044 31.2155 57.2274 31.3966 57.472 31.3362C57.7166 31.3362 57.9 31.1551 57.9 30.9138C58.2057 30.1293 58.1446 29.4655 58.0835 28.681Z"
                fill="url(#grafana-gradient)" />
            <defs>
                <linearGradient id="grafana-gradient" x1="32.043" y1="72.6249" x2="32.043"
                    y2="21.3948" gradientUnits="userSpaceOnUse">
                    <stop stop-color="#FFF100" />
                    <stop offset="1" stop-color="#F05A28" />
                </linearGradient>
            </defs>
        </symbol>


        <symbol xmlns="http://www.w3.org/2000/svg" fill="none" viewBox="0 0 65 64" id="github">
            <desc>GitHub logo</desc>
            <path fill="#E24329" d="m32.28 55.128 9.216-28.476H23.078z" />
            <path fill="#FCA326"
                d="m10.17 26.652-2.807 8.652c-.254.785.02 1.652.69 2.142L32.28 55.128z" />
            <path fill="#E24329"
                d="M10.17 26.652h12.908l-5.555-17.15c-.285-.877-1.524-.877-1.818 0z" />
            <path fill="#FCA326"
                d="m54.405 26.652 2.797 8.652a1.92 1.92 0 0 1-.691 2.142l-24.23 17.682z" />
            <path fill="#E24329" d="M54.404 26.652H41.496l5.545-17.15c.285-.877 1.524-.877 1.818 0z" />
            <path fill="#FC6D26"
                d="m32.281 55.128 9.216-28.476h12.908zm-.001 0L10.17 26.652h12.908l9.203 28.476Z" />
        </symbol>

        <symbol xmlns="http://www.w3.org/2000/svg" fill="none" viewBox="0 0 65 64" id="jira">
            <desc>Jira logo</desc>
            <path fill="#2684FF"
                d="M55.826 30.657 34.613 10.002 32.557 8 16.589 23.548l-7.301 7.109c-.366.356-.571.84-.571 1.343 0 .504.205.987.57 1.343l14.59 14.205L32.557 56l15.968-15.548.247-.24 7.054-6.869c.366-.356.57-.84.57-1.343 0-.504-.204-.987-.57-1.343m-23.27 8.44L25.27 32l7.288-7.096L39.845 32z" />
            <path fill="url(#jira_a)"
                d="M32.556 24.904c-2.293-2.232-3.585-5.257-3.594-8.413-.01-3.157 1.263-6.189 3.541-8.434L16.555 23.58l8.68 8.452z" />
            <path fill="url(#jira_b)"
                d="m39.864 31.981-7.307 7.115a11.9 11.9 0 0 1 2.662 3.878c.617 1.45.935 3.004.935 4.574s-.318 3.124-.935 4.575A11.9 11.9 0 0 1 32.557 56l15.987-15.567z" />
            <defs />
        </symbol>

        <symbol xmlns="http://www.w3.org/2000/svg" fill="none" viewBox="0 0 65 64" id="minio">
            <desc>MinIO logo</desc>
            <path fill="#C62D49"
                d="M17.065 44.715c.171-.727.323-1.46.518-2.18 1.108-4.076 2.88-7.85 5.257-11.333 3.585-5.255 8.223-9.337 13.843-12.308.072-.037.145-.072.233-.116.064.11.037.219.037.321q.003 5.575.002 11.148c0 .377.021.39.36.236 2.787-1.27 4.532-4.078 4.395-7.126-.08-1.79-.74-3.362-1.953-4.685-1.699-1.855-3.471-3.641-5.21-5.46-1.187-1.244-2.419-2.446-3.514-3.774-.814-.984-1.287-2.116-1.25-3.402.058-2.037 1.015-3.566 2.77-4.588a4.8 4.8 0 0 1 1.885-.63c.031-.004.06-.03.09-.044h1.265c.242.061.487.117.727.187 1.53.447 2.704 1.382 3.605 2.675 1.406 2.019 2.626 4.157 3.914 6.25 1.236 2.008 2.448 4.031 3.674 6.046a1.7 1.7 0 0 1 .203.476c.017.068.049.139-.038.194-.088.053-.135-.005-.192-.05-.406-.316-.731-.715-1.086-1.084-1.94-2.017-3.872-4.043-5.811-6.06-1.426-1.483-2.786-3.03-4.26-4.468-.475-.464-1.027-.737-1.708-.609-.709.134-1.182.576-1.415 1.241-.243.692-.016 1.304.467 1.814 1.321 1.396 2.655 2.777 3.984 4.166 1.524 1.592 3.08 3.155 4.564 4.785 4 4.392 3.69 11.279-.652 15.33-1.008.94-2.18 1.623-3.402 2.234-.4.2-.79.422-1.196.61-.196.09-.22.219-.22.408q.006 9.39.004 18.781v9.308c0 .074-.006.146-.009.22h-.054c.002-.077-.064-.107-.106-.15-1.105-1.12-2.207-2.245-3.32-3.357a.74.74 0 0 1-.235-.576c.006-7.395.004-14.79.004-22.184v-.379c-.123.056-.214.093-.301.138l-3.054 1.55-12.558 6.376c-.083.039-.159.095-.258.069m6.048-6.998c.066.04.101.005.14-.015 3.119-1.606 6.234-3.217 9.36-4.81.435-.221.682-.496.62-.997-.006-.054 0-.11 0-.165v-6.069c0-.073.004-.146-.003-.219-.01-.105-.054-.158-.158-.078l-.152.118a34.7 34.7 0 0 0-8.47 9.735 35 35 0 0 0-1.337 2.5" />
        </symbol>

        <symbol xmlns="http://www.w3.org/2000/svg" fill="none" viewBox="0 0 65 64" id="consul">
            <desc>Consul logo</desc>
            <path fill="#961D59"
                d="M31.826 36.933a4.97 4.97 0 0 1-4.976-4.952 4.97 4.97 0 0 1 4.95-4.98 4.967 4.967 0 0 1 4.626 6.843 4.965 4.965 0 0 1-4.6 3.08" />
            <path fill="#D62783"
                d="M41.499 34.233a2.29 2.29 0 1 1 0-4.58 2.29 2.29 0 1 1 0 4.58m8.387 2.158a2.197 2.197 0 0 1-4.22-1.22 2.2 2.2 0 0 1 2.643-1.567 2.2 2.2 0 0 1 1.624 2.608c0 .06 0 .112-.047.178zm-1.62-5.9a2.28 2.28 0 0 1-2.4-.866 2.31 2.31 0 0 1-.113-2.553 2.299 2.299 0 0 1 4.2.669c.057.296.057.6 0 .897a2.21 2.21 0 0 1-1.726 1.862l.039-.008Zm8.164 5.652a2.291 2.291 0 0 1-4.515-.791 2.29 2.29 0 0 1 2.65-1.862 2.303 2.303 0 0 1 1.936 2.444.6.6 0 0 0-.047.203zm-1.87-5.75a2.287 2.287 0 0 1-2.628-1.88 2.28 2.28 0 0 1 1.88-2.624 2.29 2.29 0 0 1 2.63 1.876q.036.298 0 .595a2.27 2.27 0 0 1-1.88 2.034h-.001Zm-1.594 13.678a2.325 2.325 0 0 1-2.935 1.007 2.32 2.32 0 0 1-1.315-2.81 2.325 2.325 0 0 1 4.536.872 2.06 2.06 0 0 1-.285.94v-.009Zm-.826-21.03a2.297 2.297 0 0 1-3.339-2.619 2.3 2.3 0 0 1 1.085-1.381 2.304 2.304 0 0 1 3.129.872c.236.4.337.865.285 1.326a2.3 2.3 0 0 1-1.155 1.784l-.005.017ZM31.915 55.015a23.05 23.05 0 0 1-20.265-11.4 23 23 0 0 1 0-23.234 23.05 23.05 0 0 1 20.265-11.4 22.84 22.84 0 0 1 13.99 4.758l-2.816 3.669a18.42 18.42 0 0 0-19.332-1.887 18.39 18.39 0 0 0-10.262 16.48A18.4 18.4 0 0 0 23.75 48.489a18.44 18.44 0 0 0 19.337-1.868l2.81 3.675a22.85 22.85 0 0 1-13.99 4.722l.008-.001Z" />
        </symbol>

        <symbol xmlns="http://www.w3.org/2000/svg" fill="none" viewBox="0 0 65 64" id="jaeger">
            <desc>Jaeger logo</desc>
            <path fill="#60D0E4"
                d="M41.807 21.54s3.017 1.221 4.958 16.958c0 0-2.8 1.077-1.078 2.946 1.722 1.868 1.943 5.389 1.943 5.389s-10.204 1.509-27.952.215c0 0-7.113-14.514-4.314-19.544l4.671.144s6.754 3.377 6.467-.216c0 0 1.243-.123 1.432-.237s1.642 2.68 5.548-1.982c0 0 6.077-2.32 8.228-3.642zM18.645 24.2s-1.838-5.285-4.162-4.184.169 5.05.824 5.894c0 0 2.006-1.308 3.338-1.71" />
            <path fill="#072833" fill-rule="evenodd"
                d="M34.027 51.113c-.23-.372-.763-.364-1.287-.44-.343-.05-1.122-.136-1.143-.565-.028-.468.661-.641 1.129-.74 1.118-.236 2.232-.195 3.578-.195.578 0 1.347.037 1.41.423.054.325-.22.557-.44.706-.195.132-.589.257-.6.546-.019.514.926.42.706 1.128-.082.262-.536.412-.882.515-1.097.314-2.386.422-3.649.529-1.143.097-2.605.315-3.949.123-.385-.057-.892-.202-.916-.476-.039-.439.685-.577 1.075-.635 1.077-.157 2.088-.088 3.261-.14.819-.038 1.64-.03 1.71-.776zm-11.547.159c.793-.038 1.908.012 2.697.212.206.052.598.137.599.352.001.23-.517.329-.81.406-1.677.434-3.395.571-5.254.793-.338.04-.69.064-1.058.158-.215.056-.741.212-.723.476.023.326.866.238 1.217.265.451.035 1.022.09 1.057.423.06.568-1.062.593-1.622.634a20.6 20.6 0 0 1-4.301-.123 4.2 4.2 0 0 1-.917-.212c-.257-.099-.61-.248-.617-.493-.011-.368.563-.506.882-.582 1.182-.28 2.471-.388 3.702-.652.78-.168 1.55-.467 2.185-.723.694-.28 1.35-.643 2.063-.847.286-.08.514-.069.899-.087m14.632 1.234c.184-.018.684.002.687.247.004.358-1.125.356-1.143.018-.013-.212.25-.243.458-.265zm-1.446.3c.24-.022.641-.008.653.247.017.387-1.143.37-1.13 0 .009-.167.225-.224.477-.247m-1.727.3c.105-.009.36-.02.546.017.068.014.345.116.353.211.015.182-.37.25-.547.264-.349.03-.98-.015-1.005-.229-.024-.21.448-.249.652-.264m-2.292.176c.277-.037.907-.024.917.281.013.437-1.4.439-1.41.018-.006-.227.278-.27.494-.3m-2.68.032c.235-.016.47-.016.723.035.123.024.502.112.514.282.018.324-.896.382-1.342.352-.27-.017-.774-.122-.776-.334-.002-.18.272-.241.352-.265.193-.056.3-.057.529-.07m-16.483.705c-.085.258-.92.4-1.234.212.164-.286.866-.358 1.234-.212m.194.462c-.215.318-1.04.433-1.446.229.218-.316 1.04-.435 1.446-.23m.335.422c-.23.29-1.043.433-1.446.212.161-.295 1.127-.443 1.446-.212m1.48.212c-.149.357-1.156.514-1.498.23.18-.375 1.116-.495 1.499-.23m1.2.07c.224-.017.675-.036.916.036.445.132.095.371-.247.458a3.6 3.6 0 0 1-1.181.106c-.211-.014-.566-.07-.582-.212-.02-.167.322-.25.44-.282.258-.072.42-.087.653-.106m3.525.194c-.02.224-.32.352-.581.441a3.7 3.7 0 0 1-.882.176c-.196.012-.583-.001-.617-.14-.052-.21.419-.372.564-.424.301-.108.595-.17.864-.193.262-.02.556-.012.652.14m14.738-34.023c.02.003.01.017 0 .017-1.18 1.325-2.282 2.743-3.667 3.932-.16.138-.452.42-.67.405-.123-.008-.278-.18-.405-.23-.742-.283-1.531.294-1.498 1.112-.274.083-.57.114-.882.14-.296.03-.64.101-.934.071-.217-.022-.358-.136-.652-.106-.135.015-.242.103-.406.124-.257.032-.6-.055-.899-.124-1.874-.428-3.471-1.405-5.306-1.797.226-.138.512-.216.775-.315.046-.085-.091-.222-.052-.3 4.341.453 8.126-.583 11.37-1.657 1.125-.372 2.222-.842 3.23-1.269z"
                clip-rule="evenodd" />
            <path fill="#638B18" fill-rule="evenodd"
                d="M30.73 22.625c-3.244 1.073-7.029 2.11-11.37 1.657-.039.077.097.214.052.3-.262.1-.549.18-.775.317 1.834.392 3.432 1.367 5.306 1.798.297.068.645.156.9.123.163-.02.27-.11.405-.123.294-.03.435.084.652.105.295.03.638-.045.934-.07.312-.027.608-.057.882-.14-.033-.819.753-1.395 1.498-1.112.127.049.282.221.406.23.217.014.509-.268.67-.406 1.384-1.188 2.487-2.607 3.666-3.931.01 0 .02-.015 0-.018-1.004.427-2.1.897-3.225 1.27"
                clip-rule="evenodd" />
            <path fill="#072833" fill-rule="evenodd"
                d="M32.317 51.889c-1.174.053-2.184-.016-3.261.14-.393.058-1.115.197-1.076.636.024.274.532.42.917.476 1.344.192 2.806-.027 3.949-.124 1.263-.107 2.552-.211 3.649-.53.343-.1.8-.248.881-.513.221-.709-.724-.615-.705-1.128.011-.287.405-.415.6-.547.219-.149.493-.38.44-.705-.063-.387-.833-.423-1.41-.423-1.343 0-2.46-.042-3.579.194-.467.099-1.154.273-1.128.74.023.43.8.514 1.143.565.524.076 1.057.069 1.286.44-.069.747-.891.739-1.71.776zM21.58 51.36c-.713.204-1.37.566-2.063.846-.636.256-1.405.555-2.186.723-1.23.265-2.52.372-3.702.653-.319.076-.893.214-.881.581.007.246.36.395.617.494.286.11.637.176.916.211 1.433.182 2.759.24 4.302.124.56-.042 1.681-.067 1.622-.634-.035-.333-.606-.388-1.058-.423-.351-.027-1.193.06-1.216-.265-.019-.264.507-.42.723-.476.369-.095.72-.118 1.057-.159 1.86-.224 3.578-.358 5.254-.792.294-.078.812-.176.81-.406 0-.216-.393-.3-.599-.353-.788-.2-1.904-.25-2.697-.211-.384.018-.616.007-.899.088m15.073 1.41c.02.34 1.15.343 1.142-.018-.002-.244-.503-.265-.687-.246-.21.022-.471.052-.458.264zm-1.464.286c-.017.37 1.143.387 1.129 0-.012-.256-.413-.27-.653-.247-.25.023-.467.08-.475.247m-1.904.314c.025.214.656.258 1.005.229.177-.014.562-.086.546-.264-.007-.096-.285-.198-.352-.212a2.1 2.1 0 0 0-.547-.018c-.205.016-.677.054-.652.265m-2.133.211c.01.42 1.424.419 1.41-.018-.009-.305-.64-.319-.916-.281-.215.028-.5.072-.494.299m-2.715-.194c-.08.024-.354.085-.352.265.002.212.505.314.775.335.444.03 1.358-.029 1.343-.353-.01-.17-.389-.257-.514-.282a2.7 2.7 0 0 0-.723-.035c-.229.016-.336.014-.529.07m-17.188.847c.314.188 1.15.048 1.234-.212-.367-.147-1.07-.074-1.234.212m-.018.476c.405.204 1.231.089 1.446-.23-.406-.205-1.228-.086-1.446.23m.335.405c.4.22 1.216.077 1.446-.212-.319-.228-1.285-.083-1.446.212m1.428.23c.342.284 1.349.127 1.499-.23-.383-.265-1.319-.143-1.499.23m2.045-.054c-.119.033-.457.115-.44.282.016.14.37.2.581.211.449.03.83-.013 1.182-.105.341-.09.692-.327.246-.459-.24-.071-.691-.052-.916-.035a3 3 0 0 0-.653.106m3.527-.052c-.27.02-.563.085-.864.193-.143.053-.616.215-.564.423.034.143.42.153.617.141q.451-.035.881-.176c.262-.086.562-.217.582-.44-.097-.153-.39-.16-.652-.142"
                clip-rule="evenodd" />
            <path fill="#E1CAA2"
                d="M33.722 18.558c-10.598 4.599-15.915 2.587-15.915 2.587l1.257 2.515c7.58.862 15.37-3.216 15.37-3.216l.39-1.068s-.645.14-1.017-.846z" />
            <path fill="#638B18"
                d="m34.494 15.477-.135-.458s-8.542-3.341-10.482-2.318-4.445 2.803-6.278 5.55l-.027 2.184s5.264 2.183 16.114-2.524c0 0-.144-1.312.809-2.434z" />
            <path fill="#072833"
                d="M35.153 18.586c-.13.112-.25.194-.378.17-.385-.077-.562-.825-.396-1.672.166-.848.614-1.473 1-1.4.37.073.548.768.413 1.575 0 0-.41.753-.605 1.282z" />
            <path fill="#E1CAA2"
                d="M40.405 14.66s-1.94-1.276-4.006 1.563c0 0-.27-1.689-1.653-.97 0 0 .27-2.426.09-2.767 0 0 .539.162.7.52 0 0 1.42-1.382 1.33-3.304 0 0 .377.053.377.539 0 0 .528-1.17 1.046-1.8l.05-.069c2.083-1.814.161 3.593.161 3.593s-.112.269-.226.413c-.115.145.986-.367.973-.785-.013-.417.138.59 0 .772 0 0 1.822-1.442 1.876-2.197 0 0 .287.575.216 1.042 0 0 1.616-1.221 1.652-1.796 0 0 .197 3.107-2.874 4.293 0 0 .503 0 1.132-.126z" />
            <path fill="#638B18"
                d="M41.43 18.378s6.484-1.437 3.035.88-3.952 2.21-3.952 2.21.7-1.039.916-3.09m-1.024 3.18-5.965 2.604s1.85-1.58 1.222-2.443c0 0 3.126-.466 4.743-.161" />
            <path fill="#60D0E4"
                d="M34.871 21.109c1.653-4.58 2.483-5.096 2.483-5.096.784-.843 1.77-1.215 2.548-.858.675.309 1.036 1.092 1.04 2.039v.06s-.125 2.31-.772 3.622c0 0-2.407-.342-4.994.341z" />
            <path fill="#072833"
                d="M37.23 19.062s1.294-2.574 2.083-1.979c0 0 .194.233-.31 1.927 0 0 2.085-2.548-.078-2.613 0 0-1.448-.051-1.694 2.665m-20.102 5.052s-1.702-2.576-1.857-2.063c-.154.513.103 1.42.143 1.668s-1.3-1.583-.402-2.25c.899-.669 2.011 1.403 2.114 2.644z" />
            <path fill="#638B18"
                d="M15.145 26.719h.068s.986-.718 1.278-.83-.359 1.076 1.368 1.076-4.486.225-5.898-1.009c0 0-.123-.533 1.77-1.411 0 0 1.143 2.042 1.415 2.171z" />
            <path fill="#072833"
                d="M21.224 27.414c-1.953-.863-3.415-1.114-3.415-1.114l-.044.001c-.307 0-.556-.199-.556-.444 0-.246.25-.445.556-.445q.039 0 .076.004s1.435.24 3.666 1.172l.243.1c2.075.768 2.91.789 2.91.789.28.024.354.024.391-.003s.27-.118.27-.118c.295.008.531.212.531.463 0 .242-.414.505-.693.527 0 0-1.536.121-3.853-.903zm13.885-5.175a.405.405 0 0 0-.404-.475.4.4 0 0 0-.162.032l-1.698 1.854c-.696.788-2.398 2.649-3.11 2.733l-.403.041c-.033-.067-.215-.228-.215-.228a.43.43 0 0 0-.416-.1c-.234.072-.36.343-.28.6.028.096.084.182.16.248 0 0 1.179 1.193 3.207-.928l2.214-2.339s1.028-1.123 1.097-1.391z" />
            <path fill="#fff"
                d="M38.655 30.59a4.083 4.083 0 0 1-4.085 4.081 4.082 4.082 0 1 1 0-8.166 4.086 4.086 0 0 1 4.085 4.082zM25.97 33.572a4.083 4.083 0 0 1-4.086 4.081 4.08 4.08 0 0 1-4.081-4.08 4.085 4.085 0 1 1 8.17 0zm3.404 6.542c.108.61.36 1.904 1.222 1.796s.539-1.832.539-1.832-1.473-.072-1.617 0zm-.502.17s-.791.337-1.422.748c0 0 .314 1.607 1.362 1.127 0 0 .69-.152.101-1.767zm-2.008-3.57s-5.029 1.514-2.562 4.057c1.617 1.666 3.855-1.172 5.049-1.144 0 0 .273-.125.845-.05s4.304.373 4.652-1.12c.348-1.492-.1-1.74-.373-1.915-.274-.174-2.239-1.342-5.174-.522z" />
            <path fill="#072833"
                d="M21.528 36.255a1.28 1.28 0 1 0 0-2.561 1.28 1.28 0 0 0 0 2.56M34.032 33.2a1.28 1.28 0 1 0 .002-2.56 1.28 1.28 0 0 0-.002 2.56M28.95 37.564c1.226-.249 2.11-.993 1.975-1.662-.136-.67-1.24-1.01-2.466-.762s-2.11.992-1.975 1.661c.135.67 1.24 1.011 2.466.762" />
            <path fill="#E1CAA2"
                d="M26.358 37.528S23.196 39 24.672 40.222s2.191-.754 4.347-1.114c2.156-.359 4.635.216 5.137-.718.503-.935.686-1.686-2.838-2.012 0 0-.323 1.545-2.191 1.724-1.869.18-2.191-.144-2.766-.575z" />
            <path fill="#231F20" d="M51.38 44.476s5.22 1.106-2.327 2.213c0 0 1.787-.738 2.327-2.213" />
            <path fill="#E1CAA2"
                d="M47.804 44.986s-.17-2.666-1.76-4.113c-1.588-1.447 1.334-1.901 2.242-1.504s4.682 3.007 1.362 6.355c0 0-1.419 1.022-1.816-.595z" />
            <path fill="#072833" d="M14.448 44.39s-.27 1.347-.054 1.913c0 0-4.554-.782-.216-1.86z" />
            <path fill="#E1CAA2"
                d="M16.63 41.345s-2.797 3.308-1.348 6.008c1.185 2.21 3.583-.296 3.637-.377z" />
        </symbol>

        <symbol xmlns="http://www.w3.org/2000/svg" fill="none" viewBox="0 0 65 64" id="liquibase">
            <desc>Liquibase logo</desc>
            <path fill="#2962FF"
                d="M32.468 23.343c9.095 0 16.468-2.987 16.468-6.671S41.563 10 32.468 10 16 12.987 16 16.672s7.373 6.671 16.468 6.671M32.84 45.959c-5.261 1.268-10.687 2.582-14.146 4.898-1.73-1.084-2.704-2.334-2.704-3.529 0-5.275 8.73-7.269 17.169-9.199 6.08-1.387 12.29-2.812 15.767-5.67v4.65c.009 4.953-8.175 6.938-16.086 8.85M32.55 35.373c-6.41 1.46-12.955 2.959-16.56 6.083v-1.03c0-9.189 9.987-11.541 19.645-13.83 7.019-1.654 10.432-2.527 13.3-4.852v5.147c0 4.741-8.33 6.644-16.386 8.482M48.935 42.88c-3.423 2.914-9.495 4.393-15.44 5.827-4.26 1.029-8.62 2.086-11.706 3.62C24.584 53.338 28.243 54 32.467 54c9.604 0 16.468-3.474 16.468-6.672z" />
        </symbol>

        <symbol xmlns="http://www.w3.org/2000/svg" fill="none" viewBox="0 0 65 64" id="hibernate">
            <desc>Hibernate logo</desc>
            <path fill="#59666C" d="m19.806 10 8.463 14.657L19.8 39.337l-8.457-14.678z" />
            <path fill="#BCAE79" d="M36.735 10H19.81l8.463 14.658h16.929z" />
            <path fill="#59666C" d="M45.194 54 36.73 39.343l8.468-14.679 8.457 14.679z" />
            <path fill="#BCAE79" d="M28.265 53.999H45.19L36.735 39.34H19.797z" />
        </symbol>

        <symbol xmlns="http://www.w3.org/2000/svg" preserveAspectRatio="xMidYMid"
            viewBox="0 0 256 256" id="swagger">
            <desc>Swagger logo</desc>
            <path fill="#FFF"
                d="M127.06 255.997C58.85 255.527-.457 198.918.003 126.998.445 57.796 57.952-.469 129.11.003c69.157.46 127.503 57.864 126.885 128.191.573 69.69-58.06 128.295-128.935 127.803m0 0C58.85 255.527-.457 198.918.003 126.998.445 57.796 57.952-.469 129.11.003c69.157.46 127.503 57.864 126.885 128.191.573 69.69-58.06 128.295-128.935 127.803" />
            <path fill="#49A32B"
                d="M127.185 238.997C68.032 238.59 16.604 189.5 17.002 127.131c.384-60.012 50.253-110.54 111.961-110.129 59.972.399 110.569 50.18 110.033 111.167.496 60.433-50.349 111.255-111.811 110.828m0 0C68.032 238.59 16.604 189.5 17.002 127.131c.384-60.012 50.253-110.54 111.961-110.129 59.972.399 110.569 50.18 110.033 111.167.496 60.433-50.349 111.255-111.811 110.828" />
            <path fill="#FFF"
                d="M169.327 127.956c-.284 5.29-4.906 9.683-9.46 8.917h-.069a9.133 9.133 0 0 1-9.145-9.124 9.276 9.276 0 0 1 9.427-8.96c5.045.025 9.52 4.288 9.247 9.167M88.201 179.22c1.902.056 3.806.015 6 .015v13.786c-13.635 2.305-24.866-1.566-27.622-13.091a76.5 76.5 0 0 1-1.736-12.886c-.293-4.592.213-9.235-.137-13.819-.97-12.612-2.603-16.918-14.706-17.514v-15.696a23 23 0 0 1 2.632-.452c6.636-.327 9.433-2.362 10.917-8.898a74.6 74.6 0 0 0 1.194-11.122c.526-7.217.34-14.551 1.542-21.651 1.737-10.267 8.111-15.255 18.64-15.814 2.996-.16 6.001-.024 9.396-.024v14.09c-1.397.1-2.677.303-3.95.265-8.58-.263-9.023 2.66-9.65 9.762-.39 4.454.149 8.984-.155 13.454a107 107 0 0 1-1.781 13.245c-1.238 6.339-5.135 11.053-10.535 15.053 10.483 6.823 11.676 17.423 12.357 28.188.366 5.784.199 11.61.786 17.366.457 4.467 2.195 5.607 6.808 5.743m8.836-60.43h.162a9.08 9.08 0 0 1 8.928 9.226 8.884 8.884 0 0 1-9.396 8.851 9.046 9.046 0 1 1 .306-18.078Zm31.236 0c5.483-.043 9.124 3.51 9.152 8.93.03 5.565-3.422 9.125-8.868 9.149-5.54.024-9.186-3.48-9.216-8.867a8.67 8.67 0 0 1 8.933-9.213Zm65.4-6.867c1.459 5.447 4.298 7.362 10.032 7.623.94.044 1.875.203 3.163.346v15.692q-1.047.344-2.138.512c-7.684.478-11.186 3.63-11.962 11.335-.496 4.919-.455 9.892-.796 14.828a126 126 0 0 1-1.476 16.18c-1.96 9.703-8.019 14.544-18.029 15.135-3.221.19-6.466.03-9.94.03v-14.026c1.87-.115 3.52-.275 5.174-.314 5.981-.143 8.096-2.071 8.389-8.011.324-6.525.465-13.059.757-19.586.423-9.433 3.006-17.861 11.795-23.745-5.03-3.585-9.067-7.928-10.112-13.783-1.265-7.097-1.674-14.351-2.355-21.548-.336-3.597-.32-7.226-.671-10.821-.379-3.88-3.045-5.224-6.577-5.31-2.024-.05-4.055-.01-6.642-.01V62.754c16.509-2.741 27.913 2.752 28.973 18.548.443 6.632.378 13.297.803 19.93.186 3.608.726 7.19 1.612 10.691" />
        </symbol>

    </defs>
</svg>