<svg width="80" height="80" viewBox="0 0 80 80" fill="none" xmlns="http://www.w3.org/2000/svg">
<path d="M52.423 52.0434V39.2973C52.423 39.0073 52.3078 38.7291 52.1027 38.5239C51.8975 38.3188 51.6193 38.2036 51.3293 38.2036C51.0392 38.2036 50.761 38.3188 50.5559 38.5239C50.3507 38.7291 50.2355 39.0073 50.2355 39.2973V51.6541H49.045V49.3327C49.045 46.5003 46.7407 44.1959 43.9082 44.1959H37.8258C36.5705 40.6283 33.2004 38.2036 29.3496 38.2036C25.4988 38.2036 22.1285 40.6283 20.8733 44.1959H14.7911C11.9586 44.1959 9.65427 46.5003 9.65427 49.3327V51.6541H8.46364V39.2973C8.46364 39.0073 8.34841 38.7291 8.14329 38.5239C7.93817 38.3188 7.65997 38.2036 7.36989 38.2036C7.07981 38.2036 6.80161 38.3188 6.59649 38.5239C6.39138 38.7291 6.27614 39.0073 6.27614 39.2973V52.0434C4.98505 52.6725 4.09302 53.9981 4.09302 55.5284V59.97C4.09302 62.1063 5.83099 63.8442 7.96739 63.8442H9.65427V66.8673C9.65427 69.6998 11.9586 72.0042 14.7911 72.0042H19.0447V76.1808C19.0447 77.9419 20.4775 79.3748 22.2386 79.3748H36.4607C38.2218 79.3748 39.6546 77.942 39.6546 76.1808V72.0042H43.9082C46.7407 72.0042 49.045 69.6998 49.045 66.8673V63.8442H50.7319C52.8682 63.8442 54.6061 62.1063 54.6061 59.97V55.5284C54.6061 53.9981 53.7143 52.6725 52.423 52.0434ZM7.96739 61.6569C7.03724 61.6569 6.28052 60.9002 6.28052 59.9702V55.5286C6.28052 54.5984 7.03724 53.8419 7.96739 53.8419H9.65427V61.657H7.96739V61.6569ZM29.3496 40.3911C31.9935 40.3911 34.3385 41.9005 35.4597 44.1959H23.2393C24.3607 41.9005 26.7057 40.3911 29.3494 40.3911H29.3496ZM37.4671 76.1809C37.4667 76.4478 37.3606 76.7036 37.172 76.8923C36.9833 77.081 36.7275 77.1871 36.4607 77.1875H22.2386C21.9718 77.1872 21.716 77.081 21.5273 76.8923C21.3386 76.7036 21.2325 76.4478 21.2322 76.1809V72.0044H37.4671V76.1809ZM33.5558 63.1875C32.8694 61.54 31.2429 60.3788 29.3496 60.3788C27.4563 60.3788 25.8297 61.54 25.1433 63.1875H16.5921V51.1338H42.1069V63.1875H33.5557H33.5558ZM26.9824 64.9334C26.9824 63.6281 28.0443 62.5663 29.3496 62.5663C30.6549 62.5663 31.7168 63.6281 31.7168 64.9334V69.8169H26.9822V64.9334H26.9824ZM46.8575 66.8675C46.8575 68.4937 45.5344 69.8169 43.9082 69.8169H33.9044V65.375H43.2008C43.4909 65.375 43.7691 65.2598 43.9742 65.0547C44.1793 64.8495 44.2946 64.5713 44.2946 64.2812V50.04C44.2946 49.7499 44.1793 49.4717 43.9742 49.2666C43.7691 49.0615 43.4909 48.9463 43.2008 48.9463H15.4983C15.2082 48.9463 14.93 49.0615 14.7249 49.2666C14.5198 49.4717 14.4046 49.7499 14.4046 50.04V64.2812C14.4046 64.5713 14.5198 64.8495 14.7249 65.0547C14.93 65.2598 15.2082 65.375 15.4983 65.375H24.7947V69.8169H14.7911C13.1649 69.8169 11.8418 68.4937 11.8418 66.8675V49.3327C11.8418 47.7064 13.1649 46.3834 14.7911 46.3834H43.9082C45.5344 46.3834 46.8575 47.7064 46.8575 49.3327V66.8675ZM52.4186 59.97C52.4186 60.9002 51.6619 61.6567 50.7319 61.6567H49.045V53.8416H50.7319C51.6619 53.8416 52.4186 54.5983 52.4186 55.5283V59.9698V59.97ZM70.0971 0.625H36.1069C32.9032 0.625 30.2968 3.23141 30.2968 6.435V29.3438C30.2968 32.5473 32.9032 35.1537 36.1069 35.1537H40.7339V41.5967C40.734 41.813 40.7981 42.0245 40.9183 42.2043C41.0385 42.3842 41.2093 42.5243 41.4091 42.6071C41.6089 42.6899 41.8288 42.7116 42.041 42.6694C42.2531 42.6272 42.448 42.5231 42.601 42.3702L49.8174 35.1537H70.0971C73.3007 35.1537 75.9071 32.5473 75.9071 29.3438V6.435C75.9071 3.23141 73.3007 0.625 70.0971 0.625ZM73.7196 29.3438C73.7196 31.3413 72.0946 32.9662 70.0971 32.9662H49.3644C49.0744 32.9663 48.7962 33.0815 48.5911 33.2866L42.9216 38.9561V34.06C42.9216 33.7699 42.8064 33.4917 42.6013 33.2866C42.3961 33.0815 42.1179 32.9662 41.8279 32.9662H36.1071C34.1096 32.9662 32.4844 31.3413 32.4844 29.3438V6.435C32.4844 4.4375 34.1094 2.8125 36.1071 2.8125H70.0972C72.0946 2.8125 73.7197 4.4375 73.7197 6.435V29.3438H73.7196ZM60.5605 6.61313C54.3427 6.61313 49.2843 11.6717 49.2843 17.8894C49.2843 24.107 54.3427 29.1656 60.5605 29.1656C66.7783 29.1656 71.8369 24.107 71.8369 17.8894C71.8369 11.6717 66.7783 6.61313 60.5605 6.61313ZM67.8241 12.433L61.6543 15.9952V8.86891C64.1691 9.17203 66.3714 10.5041 67.8241 12.433ZM51.4718 17.8895C51.4718 13.2483 54.9694 9.41109 59.4668 8.86891V17.8895C59.4668 18.1795 59.5819 18.4578 59.7872 18.663L66.1629 25.0384C64.6179 26.2519 62.673 26.9783 60.5605 26.9783C55.5489 26.9783 51.4718 22.9011 51.4718 17.8895ZM67.7096 23.4917L62.3418 18.1241L68.9207 14.3258C69.4026 15.452 69.6506 16.6645 69.6494 17.8895C69.6494 20.0019 68.923 21.9467 67.7096 23.4917ZM36.0047 13.2077C36.0047 12.9176 36.12 12.6394 36.3251 12.4343C36.5302 12.2291 36.8084 12.1139 37.0985 12.1139H45.0922C45.3823 12.1139 45.6605 12.2291 45.8656 12.4343C46.0707 12.6394 46.186 12.9176 46.186 13.2077C46.186 13.4977 46.0707 13.7759 45.8656 13.9811C45.6605 14.1862 45.3823 14.3014 45.0922 14.3014H37.0985C36.8084 14.3014 36.5302 14.1862 36.3251 13.9811C36.12 13.7759 36.0047 13.4977 36.0047 13.2077ZM36.0047 17.8894C36.0047 17.5993 36.12 17.3211 36.3251 17.116C36.5302 16.9109 36.8084 16.7956 37.0985 16.7956H46.6674C46.9575 16.7956 47.2357 16.9109 47.4408 17.116C47.6459 17.3211 47.7611 17.5993 47.7611 17.8894C47.7611 18.1795 47.6459 18.4577 47.4408 18.6628C47.2357 18.8679 46.9575 18.9831 46.6674 18.9831H37.0985C36.8084 18.9831 36.5302 18.8679 36.3251 18.6628C36.12 18.4577 36.0047 18.1795 36.0047 17.8894ZM36.0047 22.5711C36.0047 22.281 36.12 22.0028 36.3251 21.7977C36.5302 21.5926 36.8084 21.4773 37.0985 21.4773H41.2857C41.5757 21.4773 41.8539 21.5926 42.0591 21.7977C42.2642 22.0028 42.3794 22.281 42.3794 22.5711C42.3794 22.8612 42.2642 23.1394 42.0591 23.3445C41.8539 23.5496 41.5757 23.6648 41.2857 23.6648H37.0985C36.8084 23.6648 36.5302 23.5496 36.3251 23.3445C36.12 23.1394 36.0047 22.8612 36.0047 22.5711ZM36.0047 8.52562C36.0047 8.23554 36.12 7.95735 36.3251 7.75223C36.5302 7.54711 36.8084 7.43187 37.0985 7.43187H46.9957C47.2857 7.43187 47.5639 7.54711 47.7691 7.75223C47.9742 7.95735 48.0894 8.23554 48.0894 8.52562C48.0894 8.81571 47.9742 9.09391 47.7691 9.29902C47.5639 9.50414 47.2857 9.61937 46.9957 9.61937H37.0985C36.8084 9.61937 36.5302 9.50414 36.3251 9.29902C36.12 9.09391 36.0047 8.81571 36.0047 8.52562ZM50.3733 27.253C50.3733 27.5431 50.2581 27.8212 50.053 28.0264C49.8479 28.2315 49.5697 28.3467 49.2796 28.3467H37.0985C36.8084 28.3467 36.5302 28.2315 36.3251 28.0264C36.12 27.8212 36.0047 27.5431 36.0047 27.253C36.0047 26.9629 36.12 26.6847 36.3251 26.4796C36.5302 26.2745 36.8084 26.1592 37.0985 26.1592H49.2796C49.5697 26.1592 49.8479 26.2745 50.053 26.4796C50.2581 26.6847 50.3733 26.9629 50.3733 27.253ZM22.1604 52.9791C19.8546 52.9791 17.9788 54.8548 17.9788 57.1606C17.9788 59.4664 19.8546 61.3422 22.1604 61.3422C24.4661 61.3422 26.3419 59.4664 26.3419 57.1606C26.3419 54.8548 24.4661 52.9791 22.1604 52.9791ZM22.1604 59.1547C21.0608 59.1547 20.1663 58.2602 20.1663 57.1606C20.1663 56.0611 21.0608 55.1666 22.1604 55.1666C23.2599 55.1666 24.1544 56.0611 24.1544 57.1606C24.1544 58.2602 23.2599 59.1547 22.1604 59.1547ZM36.539 52.9791C34.2332 52.9791 32.3574 54.8548 32.3574 57.1606C32.3574 59.4664 34.2332 61.3422 36.539 61.3422C38.8447 61.3422 40.7205 59.4664 40.7205 57.1606C40.7205 54.8548 38.8447 52.9791 36.539 52.9791ZM36.539 59.1547C35.4394 59.1547 34.5449 58.2602 34.5449 57.1606C34.5449 56.0611 35.4394 55.1666 36.539 55.1666C37.6385 55.1666 38.533 56.0611 38.533 57.1606C38.533 58.2602 37.6385 59.1547 36.539 59.1547Z" fill="#7A992B"/>
</svg>
