<svg width="80" height="80" viewBox="0 0 80 80" fill="none" xmlns="http://www.w3.org/2000/svg">
<path d="M40 57.5C43.4612 57.5 46.8446 56.4737 49.7225 54.5507C52.6003 52.6278 54.8434 49.8947 56.1679 46.697C57.4924 43.4993 57.839 39.9806 57.1637 36.5859C56.4885 33.1913 54.8218 30.0731 52.3744 27.6256C49.9269 25.1782 46.8087 23.5115 43.4141 22.8363C40.0194 22.161 36.5007 22.5076 33.303 23.8321C30.1053 25.1566 27.3722 27.3997 25.4493 30.2775C23.5264 33.1554 22.5 36.5388 22.5 40C22.5053 44.6397 24.3507 49.0878 27.6315 52.3685C30.9122 55.6493 35.3603 57.4947 40 57.5ZM40 35C39.7528 35 39.5111 34.9267 39.3055 34.7893C39.1 34.652 38.9398 34.4568 38.8451 34.2284C38.7505 34 38.7258 33.7486 38.774 33.5061C38.8222 33.2637 38.9413 33.0409 39.1161 32.8661C39.2909 32.6913 39.5137 32.5723 39.7561 32.524C39.9986 32.4758 40.2499 32.5005 40.4784 32.5952C40.7068 32.6898 40.902 32.85 41.0393 33.0555C41.1767 33.2611 41.25 33.5028 41.25 33.75C41.25 34.0815 41.1183 34.3995 40.8839 34.6339C40.6495 34.8683 40.3315 35 40 35ZM40 25C43.4221 24.9968 46.7424 26.1647 49.4089 28.3096C52.0754 30.4546 53.9276 33.4474 54.6578 36.7908C55.3879 40.1341 54.952 43.6266 53.4225 46.688C51.893 49.7493 49.3619 52.195 46.25 53.6188V44.2688L47.1437 43.3738C47.6441 43.6183 48.1931 43.7469 48.75 43.75C49.4917 43.75 50.2167 43.5301 50.8334 43.118C51.4501 42.706 51.9307 42.1203 52.2145 41.4351C52.4984 40.7498 52.5726 39.9958 52.4279 39.2684C52.2832 38.541 51.9261 37.8728 51.4016 37.3484C50.8772 36.8239 50.209 36.4668 49.4816 36.3221C48.7542 36.1774 48.0002 36.2516 47.3149 36.5355C46.6297 36.8193 46.044 37.2999 45.632 37.9166C45.2199 38.5333 45 39.2583 45 40C45.0028 40.5568 45.1309 41.1058 45.375 41.6063L44.1162 42.8663C43.8818 43.1006 43.7501 43.4185 43.75 43.75V54.5063C42.9304 54.7205 42.0941 54.8643 41.25 54.9363V37.27C42.084 36.9751 42.7869 36.3949 43.2345 35.6319C43.6821 34.8689 43.8456 33.9722 43.696 33.1003C43.5464 32.2285 43.0934 31.4376 42.4171 30.8674C41.7407 30.2972 40.8846 29.9845 40 29.9845C39.1154 29.9845 38.2593 30.2972 37.5829 30.8674C36.9066 31.4376 36.4536 32.2285 36.304 33.1003C36.1544 33.9722 36.3179 34.8689 36.7655 35.6319C37.2131 36.3949 37.916 36.9751 38.75 37.27V54.9363C37.9059 54.8643 37.0696 54.7205 36.25 54.5063V43.75C36.2499 43.4185 36.1182 43.1006 35.8837 42.8663L34.6237 41.6063C34.8682 41.1059 34.9969 40.5569 35 40C35 39.2583 34.7801 38.5333 34.368 37.9166C33.956 37.2999 33.3703 36.8193 32.6851 36.5355C31.9998 36.2516 31.2458 36.1774 30.5184 36.3221C29.791 36.4668 29.1228 36.8239 28.5983 37.3484C28.0739 37.8728 27.7167 38.541 27.5721 39.2684C27.4274 39.9958 27.5016 40.7498 27.7855 41.4351C28.0693 42.1203 28.5499 42.706 29.1666 43.118C29.7833 43.5301 30.5083 43.75 31.25 43.75C31.8068 43.7472 32.3558 43.6191 32.8562 43.375L33.75 44.2675V53.6175C30.6388 52.1934 28.1085 49.7476 26.5795 46.6866C25.0505 43.6255 24.6149 40.1335 25.345 36.7906C26.0751 33.4478 27.9269 30.4553 30.5928 28.3104C33.2588 26.1656 36.5783 24.9974 40 25ZM47.5 40C47.5 39.7528 47.5733 39.5111 47.7107 39.3055C47.848 39.1 48.0432 38.9398 48.2716 38.8452C48.5001 38.7505 48.7514 38.7258 48.9939 38.774C49.2363 38.8223 49.4591 38.9413 49.6339 39.1161C49.8087 39.2909 49.9277 39.5137 49.976 39.7561C50.0242 39.9986 49.9995 40.25 49.9048 40.4784C49.8102 40.7068 49.65 40.902 49.4445 41.0393C49.2389 41.1767 48.9972 41.25 48.75 41.25C48.4185 41.25 48.1005 41.1183 47.8661 40.8839C47.6317 40.6495 47.5 40.3315 47.5 40ZM32.5 40C32.5 40.2472 32.4267 40.4889 32.2893 40.6945C32.152 40.9 31.9568 41.0602 31.7284 41.1549C31.4999 41.2495 31.2486 41.2742 31.0061 41.226C30.7637 41.1778 30.5409 41.0587 30.3661 40.8839C30.1913 40.7091 30.0722 40.4863 30.024 40.2439C29.9758 40.0014 30.0005 39.7501 30.0951 39.5217C30.1898 39.2932 30.35 39.098 30.5555 38.9607C30.7611 38.8233 31.0028 38.75 31.25 38.75C31.5815 38.75 31.8995 38.8817 32.1339 39.1161C32.3683 39.3505 32.5 39.6685 32.5 40Z" fill="#7A992B"/>
<path d="M18.1786 33.0716C18.1155 33.3129 17.9762 33.5275 17.7814 33.6833C17.5866 33.8392 17.3467 33.928 17.0973 33.9366H15.4723C15.1826 33.937 14.902 34.0381 14.6785 34.2226C14.4551 34.407 14.3027 34.6634 14.2473 34.9478C13.5849 38.2836 13.5849 41.717 14.2473 45.0528C14.3027 45.3372 14.4551 45.5936 14.6785 45.778C14.902 45.9625 15.1826 46.0636 15.4723 46.0641H17.0973C17.3467 46.0726 17.5866 46.1614 17.7814 46.3173C17.9762 46.4731 18.1155 46.6877 18.1786 46.9291C18.5733 48.1685 19.0731 49.372 19.6723 50.5266C19.7992 50.742 19.853 50.9928 19.8255 51.2413C19.798 51.4898 19.6908 51.7228 19.5198 51.9053L18.3648 53.0603C18.1595 53.2653 18.032 53.5354 18.0042 53.8241C17.9764 54.1129 18.05 54.4024 18.2123 54.6428C20.1088 57.4647 22.5355 59.8913 25.3573 61.7878C25.5977 61.9504 25.8872 62.0241 26.176 61.9963C26.4649 61.9685 26.735 61.8408 26.9398 61.6353L28.0961 60.479C28.2789 60.3087 28.5119 60.2019 28.7604 60.1747C29.0088 60.1474 29.2594 60.2011 29.4748 60.3278C30.6289 60.9271 31.832 61.4268 33.0711 61.8216C33.3124 61.8846 33.527 62.024 33.6828 62.2188C33.8387 62.4136 33.9275 62.6535 33.9361 62.9028V64.5278C33.9365 64.8175 34.0376 65.0981 34.2221 65.3216C34.4066 65.545 34.6629 65.6975 34.9473 65.7528C38.2831 66.4152 41.7166 66.4152 45.0523 65.7528C45.3367 65.6975 45.5931 65.545 45.7776 65.3216C45.962 65.0981 46.0631 64.8175 46.0636 64.5278V62.9028C46.0722 62.6535 46.161 62.4136 46.3168 62.2188C46.4727 62.024 46.6872 61.8846 46.9286 61.8216C48.1676 61.4268 49.3707 60.9271 50.5248 60.3278C50.7405 60.201 50.9915 60.1473 51.2402 60.1748C51.4889 60.2023 51.722 60.3094 51.9048 60.4803L53.0598 61.6353C53.2647 61.8408 53.5348 61.9685 53.8236 61.9963C54.1125 62.0241 54.402 61.9504 54.6423 61.7878C57.4642 59.8913 59.8908 57.4647 61.7873 54.6428C61.9497 54.4024 62.0233 54.1129 61.9954 53.8241C61.9676 53.5354 61.8401 53.2653 61.6348 53.0603L60.4786 51.9041C60.3079 51.7211 60.2011 51.4877 60.1741 51.239C60.147 50.9903 60.2012 50.7394 60.3286 50.5241C60.9273 49.3703 61.4266 48.1676 61.8211 46.9291C61.8842 46.6877 62.0235 46.4731 62.2183 46.3173C62.4131 46.1614 62.653 46.0726 62.9023 46.0641H64.5273C64.8171 46.0636 65.0977 45.9625 65.3211 45.778C65.5446 45.5936 65.697 45.3372 65.7523 45.0528C66.4148 41.717 66.4148 38.2836 65.7523 34.9478C65.697 34.6634 65.5446 34.407 65.3211 34.2226C65.0977 34.0381 64.8171 33.937 64.5273 33.9366H62.9023C62.653 33.928 62.4131 33.8392 62.2183 33.6833C62.0235 33.5275 61.8842 33.3129 61.8211 33.0716C61.4263 31.8321 60.9266 30.6286 60.3273 29.4741C60.2005 29.2583 60.1468 29.0074 60.1743 28.7587C60.2018 28.51 60.309 28.2769 60.4798 28.0941L61.6348 26.9403C61.8399 26.7352 61.9673 26.4651 61.9951 26.1764C62.0229 25.8877 61.9495 25.5983 61.7873 25.3578C59.8908 22.5359 57.4642 20.1093 54.6423 18.2128C54.4018 18.0507 54.1124 17.9772 53.8237 18.005C53.535 18.0329 53.2649 18.1602 53.0598 18.3653L51.9036 19.5216C51.7207 19.6924 51.4874 19.7993 51.2386 19.8264C50.9898 19.8534 50.7389 19.7991 50.5236 19.6716C49.3698 19.0728 48.1671 18.5735 46.9286 18.1791C46.6872 18.116 46.4727 17.9766 46.3168 17.7818C46.161 17.587 46.0722 17.3471 46.0636 17.0978V15.4728C46.0631 15.1831 45.962 14.9025 45.7776 14.679C45.5931 14.4556 45.3367 14.3031 45.0523 14.2478C41.7162 13.5886 38.2834 13.5886 34.9473 14.2478C34.6629 14.3031 34.4066 14.4556 34.2221 14.679C34.0376 14.9025 33.9365 15.1831 33.9361 15.4728V17.0978C33.9275 17.3471 33.8387 17.587 33.6828 17.7818C33.527 17.9766 33.3124 18.116 33.0711 18.1791C31.8316 18.5738 30.6281 19.0735 29.4736 19.6728C29.2584 19.8007 29.0074 19.855 28.7587 19.8275C28.5099 19.8 28.2768 19.6922 28.0948 19.5203L26.9398 18.3653C26.7348 18.16 26.4648 18.0325 26.176 18.0047C25.8872 17.9769 25.5977 18.0504 25.3573 18.2128C22.5355 20.1093 20.1088 22.5359 18.2123 25.3578C18.0502 25.5983 17.9767 25.8877 18.0046 26.1764C18.0324 26.4651 18.1598 26.7352 18.3648 26.9403L19.5198 28.0941C19.6909 28.2773 19.798 28.511 19.8253 28.7602C19.8526 29.0093 19.7985 29.2607 19.6711 29.4765C19.0723 30.6303 18.573 31.833 18.1786 33.0716ZM20.5611 33.8278C20.9124 32.7254 21.3569 31.6548 21.8898 30.6278C22.2618 29.9405 22.404 29.1521 22.2955 28.3781C22.1871 27.6042 21.8338 26.8852 21.2873 26.3266L20.8773 25.9153C22.2934 23.9922 23.9917 22.2939 25.9148 20.8778L26.3261 21.2866C26.8842 21.8335 27.6028 22.1874 28.3766 22.2962C29.1504 22.4051 29.9387 22.2633 30.6261 21.8916C31.6539 21.3581 32.7253 20.9132 33.8286 20.5616C34.5753 20.337 35.2309 19.8799 35.6999 19.2569C36.1689 18.634 36.4268 17.8775 36.4361 17.0978V16.5253C38.798 16.1614 41.2017 16.1614 43.5636 16.5253V17.0978C43.5729 17.8777 43.831 18.6342 44.3003 19.2572C44.7695 19.8803 45.4253 20.3372 46.1723 20.5616C47.2748 20.9129 48.3453 21.3574 49.3723 21.8903C50.0593 22.2627 50.8476 22.4052 51.6215 22.2968C52.3954 22.1883 53.1142 21.8347 53.6723 21.2878L54.0848 20.8766C56.008 22.293 57.7063 23.9918 59.1223 25.9153L58.7123 26.3266C58.1657 26.8849 57.8122 27.6035 57.7036 28.3773C57.595 29.1511 57.7369 29.9393 58.1086 30.6265C58.642 31.6544 59.0869 32.7257 59.4386 33.8291C59.6631 34.5758 60.1202 35.2314 60.7432 35.7004C61.3662 36.1694 62.1226 36.4273 62.9023 36.4366H63.4748C63.8412 38.7983 63.8412 41.2023 63.4748 43.5641H62.9023C62.1224 43.5734 61.3659 43.8315 60.7429 44.3007C60.1199 44.77 59.6629 45.4258 59.4386 46.1728C59.0873 47.2752 58.6427 48.3458 58.1098 49.3728C57.7378 50.0599 57.5955 50.8481 57.704 51.6219C57.8124 52.3957 58.1658 53.1144 58.7123 53.6728L59.1236 54.0853C57.7067 56.0082 56.008 57.7064 54.0848 59.1228L53.6736 58.7141C53.1152 58.1671 52.3965 57.8132 51.6226 57.7041C50.8486 57.5951 50.0601 57.7365 49.3723 58.1078C48.3459 58.6426 47.2752 59.088 46.1723 59.439C45.4253 59.6634 44.7695 60.1203 44.3003 60.7434C43.831 61.3664 43.5729 62.1229 43.5636 62.9028V63.4753C41.2017 63.8392 38.798 63.8392 36.4361 63.4753V62.9028C36.4267 62.1229 36.1686 61.3664 35.6994 60.7434C35.2302 60.1203 34.5743 59.6634 33.8273 59.439C32.7244 59.088 31.6538 58.6426 30.6273 58.1078C29.9398 57.7368 29.1516 57.5955 28.378 57.7043C27.6044 57.8132 26.8858 58.1665 26.3273 58.7128L25.9148 59.124C23.992 57.7072 22.2937 56.0085 20.8773 54.0853L21.2861 53.6741C21.833 53.116 22.1869 52.3974 22.2958 51.6236C22.4046 50.8497 22.2628 50.0614 21.8911 49.3741C21.3576 48.3462 20.9127 47.2749 20.5611 46.1716C20.3365 45.4248 19.8795 44.7692 19.2565 44.3002C18.6335 43.8312 17.8771 43.5733 17.0973 43.5641H16.5248C16.1585 41.2023 16.1585 38.7983 16.5248 36.4366H17.0973C17.8772 36.4272 18.6338 36.1691 19.2568 35.6999C19.8798 35.2306 20.3367 34.5748 20.5611 33.8278Z" fill="#7A992B"/>
<path d="M73.9162 46.2464C74.1483 46.2391 74.3738 46.1671 74.5673 46.0386C74.7607 45.9101 74.9145 45.7301 75.0112 45.5189L78.5112 37.8989C78.5996 37.7053 78.6371 37.4923 78.6203 37.2802C78.6034 37.068 78.5327 36.8636 78.4149 36.6864C78.3007 36.5053 78.1401 36.358 77.9497 36.26C77.7593 36.1619 77.5462 36.1167 77.3324 36.1289L74.7624 36.2139C73.9376 28.4807 70.5518 21.2451 65.1432 15.6568C59.7345 10.0685 52.6133 6.44829 44.9112 5.37139C44.7071 4.21781 44.1036 3.17284 43.2063 2.41971C42.3089 1.66658 41.1752 1.25334 40.0037 1.25244C38.8322 1.25155 37.6978 1.66305 36.7993 2.41482C35.9008 3.16658 35.2957 4.21062 35.0899 5.36389C28.0726 6.35647 21.5218 9.45555 16.3037 14.2514C11.0856 19.0472 7.44599 25.3138 5.86615 32.2226L8.30615 32.7776C9.76677 26.3879 13.1253 20.589 17.9409 16.1424C22.7566 11.6957 28.8042 8.8091 35.2899 7.86139C35.6204 8.84839 36.2526 9.70664 37.0972 10.3149C37.9418 10.9232 38.9562 11.2509 39.997 11.2516C41.0379 11.2523 42.0527 10.926 42.8981 10.3188C43.7435 9.71161 44.3768 8.8542 44.7087 7.86764C51.7984 8.89192 58.3484 12.238 63.3335 17.3821C68.3186 22.5262 71.4574 29.178 72.2587 36.2964L69.8362 36.3776C69.6234 36.3848 69.416 36.4462 69.2336 36.556C69.0512 36.6658 68.8999 36.8204 68.7939 37.005C68.688 37.1897 68.631 37.3983 68.6284 37.6112C68.6257 37.8241 68.6774 38.0341 68.7787 38.2214L72.7762 45.5939C72.8834 45.7918 73.0421 45.957 73.2355 46.072C73.4289 46.1871 73.6498 46.2478 73.8749 46.2476L73.9162 46.2464ZM39.9999 8.75014C39.5054 8.75014 39.0221 8.60352 38.611 8.32882C38.1999 8.05411 37.8794 7.66367 37.6902 7.20685C37.501 6.75004 37.4515 6.24737 37.5479 5.76242C37.6444 5.27747 37.8825 4.83201 38.2321 4.48238C38.5818 4.13275 39.0272 3.89464 39.5122 3.79818C39.9971 3.70172 40.4998 3.75123 40.9566 3.94044C41.4134 4.12966 41.8039 4.45009 42.0786 4.86122C42.3533 5.27234 42.4999 5.75569 42.4999 6.25014C42.4989 6.91288 42.2352 7.54819 41.7666 8.01681C41.2979 8.48544 40.6626 8.74915 39.9999 8.75014ZM71.9412 38.8089L75.3937 38.6939L73.7812 42.2051L71.9412 38.8089ZM1.7899 46.0126C1.90582 46.1715 2.05761 46.3006 2.2329 46.3897C2.40819 46.4788 2.60203 46.5252 2.79865 46.5251C2.83115 46.5251 2.8624 46.5251 2.8949 46.5226L5.5974 46.3151C6.918 53.5334 10.4772 60.1529 15.7705 65.2351C21.0639 70.3172 27.8226 73.6043 35.0886 74.6301C35.2924 75.7844 35.8961 76.83 36.7939 77.5835C37.6917 78.3371 38.8262 78.7503 39.9983 78.7507C41.1704 78.7512 42.3052 78.3388 43.2036 77.586C44.102 76.8332 44.7065 75.788 44.9112 74.6339C51.5571 73.7136 57.7963 70.8947 62.8794 66.5155C67.9626 62.1363 71.6738 56.383 73.5674 49.9464L71.1699 49.2364C69.4191 55.1886 65.994 60.5121 61.3027 64.5724C56.6114 68.6327 50.8517 71.2588 44.7099 72.1376C44.3793 71.1507 43.747 70.2925 42.9023 69.6843C42.0576 69.0761 41.0432 68.7486 40.0023 68.7481C38.9615 68.7475 37.9467 69.074 37.1014 69.6813C36.256 70.2886 35.6228 71.146 35.2912 72.1326C28.618 71.1601 22.4139 68.1323 17.5413 63.4703C12.6687 58.8083 9.36992 52.7438 8.10365 46.1201L10.3724 45.9451C10.5845 45.9285 10.7888 45.858 10.966 45.7403C11.1432 45.6226 11.2874 45.4617 11.3851 45.2727C11.4827 45.0837 11.5305 44.8729 11.5239 44.6603C11.5173 44.4476 11.4565 44.2402 11.3474 44.0576L7.03365 36.8664C6.91569 36.6658 6.7433 36.5027 6.53644 36.3961C6.32958 36.2894 6.09674 36.2436 5.8649 36.2639C5.63368 36.2819 5.41203 36.3639 5.22481 36.5008C5.03759 36.6377 4.89219 36.824 4.8049 37.0389L1.6424 44.8039C1.5619 45.0012 1.53319 45.2159 1.55901 45.4274C1.58483 45.639 1.66431 45.8405 1.7899 46.0126ZM39.9999 71.2501C40.4944 71.2501 40.9777 71.3968 41.3888 71.6715C41.7999 71.9462 42.1204 72.3366 42.3096 72.7934C42.4988 73.2503 42.5483 73.7529 42.4519 74.2379C42.3554 74.7228 42.1173 75.1683 41.7677 75.5179C41.418 75.8675 40.9726 76.1056 40.4876 76.2021C40.0027 76.2986 39.5 76.2491 39.0432 76.0598C38.5864 75.8706 38.1959 75.5502 37.9212 75.1391C37.6465 74.7279 37.4999 74.2446 37.4999 73.7501C37.5009 73.0874 37.7646 72.4521 38.2332 71.9835C38.7019 71.5148 39.3372 71.2511 39.9999 71.2501ZM6.17615 40.2976L8.16365 43.6101L4.71865 43.8751L6.17615 40.2976Z" fill="#7A992B"/>
</svg>
