<svg width="80" height="80" viewBox="0 0 80 80" fill="none" xmlns="http://www.w3.org/2000/svg">
<path fill-rule="evenodd" clip-rule="evenodd" d="M16.2743 13.3397V34.8221C16.2743 35.5146 15.7119 36.077 15.0194 36.077C14.3267 36.077 13.7645 35.5146 13.7645 34.8221V5.08042C13.7645 2.89062 15.557 1.09814 17.7466 1.09814H74.9234C77.1135 1.09814 78.9021 2.89014 78.9021 5.08042V49.4975C78.9021 51.6829 77.114 53.4762 74.9234 53.4762H58.8602C58.1676 53.4762 57.6053 52.9138 57.6053 52.2213C57.6053 51.5286 58.1676 50.9664 58.8602 50.9664H74.9234C75.7322 50.9664 76.3923 50.3043 76.3923 49.4975V13.3397H16.2743ZM76.3923 10.8299V5.08042C76.3923 4.27116 75.7327 3.60795 74.9234 3.60795H17.7466C16.937 3.60795 16.2743 4.27069 16.2743 5.08042V10.8299H76.3923ZM28.5449 8.80983C27.668 8.80983 26.9523 8.09752 26.9523 7.22065C26.9523 6.34379 27.668 5.62803 28.5449 5.62803C29.4218 5.62803 30.1341 6.34379 30.1341 7.22065C30.1341 8.09752 29.4218 8.80983 28.5449 8.80983ZM22.4318 8.80983C21.5548 8.80983 20.839 8.09752 20.839 7.22065C20.839 6.34379 21.5548 5.62803 22.4318 5.62803C23.3087 5.62803 24.0244 6.34379 24.0244 7.22065C24.0244 8.09752 23.3087 8.80983 22.4318 8.80983ZM34.6545 8.80983C33.7777 8.80983 33.0618 8.09752 33.0618 7.22065C33.0618 6.34379 33.7777 5.62803 34.6545 5.62803C35.5314 5.62803 36.2472 6.34379 36.2472 7.22065C36.2472 8.09752 35.5314 8.80983 34.6545 8.80983ZM4.08073 35.432C2.35383 34.8966 1.09814 33.2858 1.09814 31.3838C1.09814 29.0451 2.99681 27.1463 5.33563 27.1463C7.6743 27.1463 9.57297 29.0451 9.57297 31.3838C9.57297 33.2858 8.31728 34.8966 6.59054 35.432V47.9523H7.15854V43.0164C7.15854 39.873 9.7234 37.3082 12.8668 37.3082H45.4622C48.6056 37.3082 51.1705 39.873 51.1705 43.0164V47.9523H53.7981C55.1242 47.9523 56.2007 49.0288 56.2007 50.3549V59.5377C56.2007 60.6544 55.4373 61.5941 54.4042 61.8632V73.0302C54.4042 73.5155 54.3086 73.996 54.1229 74.4443C53.9372 74.8926 53.665 75.3 53.3219 75.6431C52.9787 75.9863 52.5714 76.2585 52.1231 76.4442C51.6747 76.6299 51.1942 76.7254 50.709 76.7254H37.3818C36.8803 77.9995 35.6384 78.9021 34.1872 78.9021H30.2458C28.3518 78.9021 26.8142 77.3645 26.8142 75.4705C26.8142 73.5766 28.3518 72.039 30.2458 72.039H34.1872C35.6384 72.039 36.8803 72.9416 37.3818 74.2156H50.709C51.0234 74.2156 51.3249 74.0907 51.5472 73.8684C51.7695 73.6461 51.8944 73.3446 51.8944 73.0302V61.9403H51.1705V65.3239C51.1705 68.4679 48.6062 71.0255 45.4622 71.0255H12.8668C9.72277 71.0255 7.15854 68.4679 7.15854 65.3239V61.9403H4.53093C3.20497 61.9403 2.12826 60.8638 2.12826 59.5377V50.3549C2.12826 49.1827 2.96952 48.2054 4.08073 47.9945V35.432ZM7.15854 50.4621H4.63807V59.4305H7.15854V50.4621ZM51.1705 50.4621V59.4305H53.6909V50.4621H51.1705ZM5.33563 29.6561C4.38207 29.6561 3.60795 30.4302 3.60795 31.3838C3.60795 32.3374 4.38207 33.1115 5.33563 33.1115C6.28905 33.1115 7.06316 32.3374 7.06316 31.3838C7.06316 30.4302 6.28905 29.6561 5.33563 29.6561ZM48.6607 65.3239V43.0164C48.6607 41.2552 47.2236 39.818 45.4622 39.818H12.8668C11.1055 39.818 9.66834 41.2552 9.66834 43.0164V65.3239C9.66834 67.0848 11.106 68.5157 12.8668 68.5157H45.4622C47.223 68.5157 48.6607 67.0848 48.6607 65.3239ZM37.0062 44.5366C39.4685 44.5366 41.4674 46.5356 41.4674 48.9978C41.4674 51.46 39.4685 53.4589 37.0062 53.4589C34.5441 53.4589 32.545 51.46 32.545 48.9978C32.545 46.5356 34.5441 44.5366 37.0062 44.5366ZM37.0062 47.0464C35.9294 47.0464 35.0549 47.9209 35.0549 48.9978C35.0549 50.0748 35.9294 50.9491 37.0062 50.9491C38.0832 50.9491 38.9576 50.0748 38.9576 48.9978C38.9576 47.9209 38.0832 47.0464 37.0062 47.0464ZM36.6963 57.97C36.5284 62.1601 33.0828 65.4707 28.889 65.4707C24.6955 65.4707 21.2498 62.1601 21.082 57.97C21.0753 57.8011 21.1028 57.6326 21.1628 57.4746C21.2228 57.3166 21.314 57.1724 21.4311 57.0505C21.5482 56.9286 21.6887 56.8317 21.8442 56.7654C21.9997 56.6991 22.1669 56.665 22.336 56.6649H35.4423C35.6113 56.6649 35.7786 56.6991 35.9341 56.7653C36.0896 56.8315 36.2301 56.9285 36.3472 57.0504C36.4643 57.1723 36.5556 57.3166 36.6156 57.4746C36.6756 57.6326 36.703 57.8011 36.6963 57.97ZM33.9722 59.1747L23.8061 59.1745C24.4605 61.3717 26.4953 62.9609 28.889 62.9609C31.2829 62.9609 33.3178 61.3717 33.9722 59.1747ZM22.0942 44.5366C24.5563 44.5366 26.5554 46.5356 26.5554 48.9978C26.5554 51.46 24.5563 53.4589 22.0942 53.4589C19.632 53.4589 17.633 51.46 17.633 48.9978C17.633 46.5356 19.632 44.5366 22.0942 44.5366ZM22.0942 47.0464C21.0172 47.0464 20.1429 47.9209 20.1429 48.9978C20.1429 50.0748 21.0172 50.9491 22.0942 50.9491C23.1712 50.9491 24.0456 50.0748 24.0456 48.9978C24.0456 47.9209 23.1712 47.0464 22.0942 47.0464ZM35.109 75.4705C35.1088 75.2261 35.0117 74.9917 34.8389 74.8189C34.666 74.6461 34.4317 74.5489 34.1872 74.5488H30.2458C29.737 74.5488 29.324 74.9618 29.324 75.4705C29.324 75.9792 29.737 76.3923 30.2458 76.3923H34.1872C34.4317 76.3921 34.666 76.295 34.8389 76.1222C35.0117 75.9493 35.1088 75.715 35.109 75.4705ZM74.2793 32.9104C74.2793 35.0122 72.5653 36.7223 70.4635 36.7223H59.4294L54.7904 41.5516C54.617 41.7322 54.3935 41.8568 54.1487 41.9093C53.9039 41.9619 53.649 41.94 53.4167 41.8466C53.1845 41.7531 52.9855 41.5923 52.8454 41.3848C52.7052 41.1773 52.6304 40.9327 52.6304 40.6823V36.7223H51.7196C49.6178 36.7223 47.9038 35.0122 47.9038 32.9104V20.0826C47.9038 17.9813 49.6183 16.2668 51.7196 16.2668H70.4635C72.5648 16.2668 74.2793 17.9813 74.2793 20.0826V32.9104ZM71.7695 32.9104V20.0826C71.7695 19.3634 71.1827 18.7766 70.4635 18.7766H51.7196C51.0004 18.7766 50.4136 19.3634 50.4136 20.0826V32.9104C50.4136 33.6291 51.0009 34.2125 51.7196 34.2125H53.8853C54.2181 34.2125 54.5373 34.3447 54.7726 34.5801C55.008 34.8154 55.1402 35.1346 55.1402 35.4674V37.5645L57.9899 34.5981C58.107 34.4762 58.2475 34.3792 58.403 34.3129C58.5585 34.2467 58.7258 34.2125 58.8949 34.2125H70.4635C71.1822 34.2125 71.7695 33.6291 71.7695 32.9104ZM61.2479 30.4221C61.9839 30.4221 62.5814 31.0196 62.5814 31.7554C62.5814 32.4914 61.9839 33.0889 61.2479 33.0889C60.5121 33.0889 59.9146 32.4914 59.9146 31.7554C59.9146 31.0196 60.5121 30.4221 61.2479 30.4221ZM62.5643 28.6304C62.5237 29.3217 61.9295 29.85 61.2381 29.8094C60.5466 29.7687 60.0183 29.1744 60.0589 28.4831C60.1289 27.2931 60.7301 26.4384 61.4878 25.7041C61.804 25.3978 62.1471 25.1152 62.4445 24.8155C62.6611 24.597 62.8856 24.3913 62.8856 24.0699C62.8856 23.079 62.0825 22.2759 61.0916 22.2759C60.1007 22.2759 59.2975 23.079 59.2975 24.0699C59.2975 24.7625 58.7352 25.3248 58.0426 25.3248C57.3501 25.3248 56.7877 24.7625 56.7877 24.0699C56.7877 21.693 58.7146 19.7661 61.0916 19.7661C63.4685 19.7661 65.3954 21.693 65.3954 24.0699C65.3954 25.1841 64.8299 26.0136 64.0454 26.7599C63.7411 27.0494 63.4032 27.3276 63.1038 27.6368C62.8401 27.9091 62.5896 28.2015 62.5643 28.6304Z" fill="#7A992B"/>
</svg>
