<svg width="80" height="80" viewBox="0 0 80 80" fill="none" xmlns="http://www.w3.org/2000/svg">
<path d="M76.4115 40.929C74.2099 38.7805 72.6046 36.0965 71.7531 33.1404C72.7819 23.6441 68.9498 15.8637 61.218 11.7698C56.8215 9.44165 51.4351 8.54665 46.0501 9.24696C41.542 9.83927 37.2345 11.4765 33.4711 14.0282C31.9469 13.9682 26.4242 13.7646 25.8948 13.7749C20.0625 13.8884 14.7625 16.1912 11.3537 20.0929C8.06327 23.8585 6.65061 28.8637 7.26342 34.5773C6.53916 37.0719 5.18129 39.3366 3.32202 41.1507C1.66358 42.7981 1.07608 44.3365 1.57577 45.7232C2.2953 47.7198 5.00842 48.5371 7.45952 48.8607C7.42936 49.1073 7.38514 49.3935 7.34795 49.6342C7.0428 51.6082 6.53217 54.9121 8.77405 57.3882C10.8342 59.6631 14.6308 60.6446 20.3781 60.3826C21.9626 61.6092 22.8276 63.5004 23.0187 66.1507C23.0385 66.4266 23.162 66.6847 23.3644 66.8731C23.5668 67.0616 23.8331 67.1663 24.1097 67.1663H24.1133C26.2119 67.1591 27.4292 67.1549 28.5837 67.1499C28.561 67.9982 28.5167 68.8591 28.4506 69.7327C28.4391 69.8827 28.4586 70.0334 28.508 70.1754C28.5573 70.3175 28.6354 70.4478 28.7374 70.5583C28.8394 70.6688 28.963 70.7571 29.1007 70.8176C29.2383 70.8782 29.387 70.9097 29.5373 70.9102L52.2676 70.9884H52.2714C52.5479 70.9884 52.8142 70.8836 53.0166 70.6952C53.2191 70.5067 53.3426 70.2486 53.3623 69.9727C53.5919 66.7934 54.6422 64.5293 56.5698 63.0665C63.2573 63.3801 67.6658 62.2554 70.0397 59.6338C72.5986 56.8079 72.0106 53.0046 71.6594 50.7323C71.6062 50.3885 71.5414 49.9698 71.508 49.6424C74.3625 49.2882 77.5798 48.371 78.4069 46.0762C78.964 44.529 78.2926 42.7977 76.4115 40.929ZM21.329 58.3698C21.13 58.2329 20.8912 58.1659 20.65 58.179C15.4592 58.4602 12.0094 57.7009 10.3956 55.9199C8.85311 54.2168 9.23264 51.761 9.50967 49.9684C9.70952 48.6757 9.85342 47.742 9.2178 47.0995C9.03632 46.9164 8.79607 46.8033 8.53936 46.7799C5.49889 46.5046 3.88467 45.6784 3.63311 44.9816C3.45483 44.4868 3.90311 43.6562 4.86295 42.7026C7.04573 40.5709 8.62181 37.8967 9.42936 34.9545C9.46594 34.82 9.47654 34.6798 9.46061 34.5413C8.86202 29.3668 10.0856 24.8682 13.0012 21.5316C16.0053 18.0932 20.72 16.0629 25.9373 15.9615H25.9658C26.3442 15.9615 28.7026 16.0415 30.7305 16.1143C30.693 16.1465 30.6547 16.1781 30.6172 16.2104C30.5957 16.2291 30.5748 16.2485 30.5547 16.2687C27.9609 18.8873 26.2256 21.477 25.1225 24.0737C25.0796 24.1495 25.0461 24.2303 25.0226 24.3141C24.2212 26.2791 23.7296 28.3566 23.5655 30.4724C23.546 30.5543 23.536 30.6382 23.5358 30.7224C23.5358 30.7506 23.538 30.7782 23.54 30.8059C23.3601 33.4495 23.6247 36.1318 24.1087 38.8896C24.1143 38.943 24.1238 38.9959 24.137 39.0479C24.552 41.3748 25.1194 43.7557 25.7055 46.2127C27.0287 51.761 28.4958 57.9173 28.5961 64.9627C27.6292 64.967 26.6222 64.9707 25.0925 64.976C24.6781 62.0229 23.4147 59.8038 21.329 58.3698ZM76.349 45.3335C75.9672 46.3927 73.6581 47.264 70.4659 47.5532C70.2091 47.5765 69.9689 47.6898 69.7875 47.8731C69.11 48.5573 69.2719 49.6093 69.4976 51.0652C69.8269 53.1946 70.2776 56.111 68.4183 58.1645C66.4964 60.2868 62.4198 61.194 56.3009 60.8616C56.0597 60.8487 55.821 60.9157 55.6219 61.0524C53.1945 62.7215 51.7378 65.3238 51.2834 68.7966L30.7092 68.7262C30.7587 67.8265 30.7855 66.9415 30.7897 66.0712C30.7897 66.0624 30.7909 66.054 30.7909 66.0452C30.7909 66.0365 30.79 66.0324 30.7898 66.0259C30.8175 61.1548 30.2009 56.7198 29.3855 52.617H43.1019C43.5185 52.6175 43.9178 52.7832 44.2124 53.0778C44.507 53.3724 44.6727 53.7718 44.6731 54.1884V54.1981C43.5655 54.4657 42.5944 55.1303 41.9439 56.0659C41.2934 57.0015 41.0085 58.1432 41.1433 59.2748C41.2781 60.4063 41.8231 61.4491 42.6752 62.2058C43.5273 62.9624 44.6273 63.3803 45.7669 63.3803C46.9064 63.3803 48.0064 62.9624 48.8585 62.2058C49.7106 61.4491 50.2556 60.4063 50.3904 59.2748C50.5252 58.1432 50.2404 57.0015 49.5898 56.0659C48.9393 55.1303 47.9683 54.4657 46.8606 54.1981V54.1884C46.8595 53.1918 46.4631 52.2364 45.7585 51.5317C45.0538 50.827 44.0984 50.4306 43.1019 50.4295H28.9278C28.6342 49.0876 28.3275 47.7812 28.0242 46.5065H52.365C52.7816 46.5069 53.181 46.6727 53.4756 46.9673C53.7702 47.2618 53.9359 47.6613 53.9364 48.0779V51.2888C52.8287 51.5565 51.8577 52.2211 51.2072 53.1567C50.5566 54.0923 50.2718 55.234 50.4066 56.3655C50.5414 57.4971 51.0864 58.5399 51.9385 59.2965C52.7906 60.0532 53.8906 60.4711 55.0301 60.4711C56.1697 60.4711 57.2697 60.0532 58.1218 59.2965C58.9739 58.5399 59.5189 57.4971 59.6537 56.3655C59.7885 55.234 59.5036 54.0923 58.8531 53.1567C58.2026 52.2211 57.2315 51.5565 56.1239 51.2888V48.0779C56.1228 47.0813 55.7264 46.1259 55.0217 45.4212C54.317 44.7165 53.3616 44.3201 52.365 44.319H27.5037C27.1436 42.7957 26.8045 41.3176 26.5183 39.8759H50.5058C50.7734 40.9835 51.438 41.9546 52.3736 42.6051C53.3092 43.2556 54.4509 43.5405 55.5825 43.4057C56.714 43.2709 57.7568 42.7258 58.5135 41.8737C59.2701 41.0216 59.688 39.9217 59.688 38.7821C59.688 37.6426 59.2701 36.5426 58.5135 35.6905C57.7568 34.8384 56.714 34.2933 55.5825 34.1586C54.4509 34.0238 53.3092 34.3086 52.3736 34.9591C51.438 35.6097 50.7734 36.5807 50.5058 37.6884H26.1251C25.7948 35.7488 25.6483 33.7824 25.6876 31.8152H52.365C53.3615 31.8141 54.317 31.4178 55.0216 30.7131C55.7263 30.0084 56.1227 29.053 56.1239 28.0565V24.8451C57.2315 24.5774 58.2026 23.9128 58.8531 22.9772C59.5036 22.0416 59.7885 20.8999 59.6537 19.7684C59.5189 18.6368 58.9739 17.594 58.1218 16.8374C57.2697 16.0808 56.1697 15.6629 55.0301 15.6629C53.8906 15.6629 52.7906 16.0808 51.9385 16.8374C51.0864 17.594 50.5414 18.6368 50.4066 19.7684C50.2718 20.8999 50.5566 22.0416 51.2072 22.9772C51.8577 23.9128 52.8287 24.5774 53.9364 24.8451V28.0565C53.9359 28.4731 53.7702 28.8725 53.4756 29.167C53.181 29.4616 52.7816 29.6273 52.365 29.6277H25.8659C26.0446 28.2882 26.371 26.9725 26.8392 25.7048H43.1019C44.0984 25.7037 45.0539 25.3073 45.7586 24.6026C46.4633 23.8979 46.8596 22.9424 46.8608 21.9459V21.9362C47.9684 21.6685 48.9395 21.0039 49.59 20.0683C50.2405 19.1327 50.5254 17.991 50.3906 16.8595C50.2558 15.7279 49.7107 14.6851 48.8586 13.9285C48.0065 13.1718 46.9066 12.754 45.767 12.754C44.6275 12.754 43.5275 13.1718 42.6754 13.9285C41.8233 14.6851 41.2782 15.7279 41.1435 16.8595C41.0087 17.991 41.2935 19.1327 41.944 20.0683C42.5946 21.0039 43.5656 21.6685 44.6733 21.9362V21.9459C44.6728 22.3625 44.5071 22.7619 44.2125 23.0565C43.9179 23.3511 43.5185 23.5168 43.1019 23.5173H27.8173C28.8092 21.6295 30.1951 19.7454 32.0787 17.8381C40.1384 10.9034 51.6939 9.2029 60.1944 13.7029C67.1448 17.3831 70.5569 24.4543 69.5561 33.1037C69.5401 33.2421 69.5508 33.3823 69.5873 33.5168C70.5216 36.9207 72.3448 40.0146 74.87 42.4809C76.0605 43.6635 76.5856 44.6766 76.349 45.3335ZM45.7669 56.2545C46.2552 56.2543 46.7325 56.399 47.1386 56.6701C47.5447 56.9413 47.8613 57.3268 48.0482 57.7779C48.2352 58.229 48.2842 58.7254 48.1891 59.2044C48.0939 59.6833 47.8588 60.1233 47.5136 60.4686C47.1684 60.8139 46.7285 61.0491 46.2496 61.1445C45.7706 61.2398 45.2742 61.1909 44.8231 61.0041C44.3719 60.8173 43.9863 60.5009 43.715 60.0949C43.4437 59.6889 43.2989 59.2115 43.2989 58.7232C43.2994 58.0688 43.5596 57.4413 44.0223 56.9784C44.485 56.5156 45.1124 56.2552 45.7669 56.2545ZM55.0287 53.3456H55.0317C55.6863 53.3459 56.314 53.6063 56.7767 54.0694C57.2394 54.5325 57.4992 55.1604 57.499 55.815C57.4988 56.4697 57.2386 57.0974 56.7756 57.5602C56.3127 58.0231 55.6848 58.2831 55.0302 58.2831C54.3756 58.2831 53.7478 58.0231 53.2848 57.5602C52.8219 57.0974 52.5617 56.4697 52.5615 55.815C52.5613 55.1604 52.8211 54.5325 53.2838 54.0694C53.7464 53.6063 54.3741 53.3459 55.0287 53.3456ZM52.5626 38.7821C52.5626 38.2938 52.7074 37.8165 52.9787 37.4106C53.25 37.0046 53.6355 36.6881 54.0866 36.5013C54.5377 36.3144 55.0341 36.2655 55.513 36.3608C55.9919 36.4561 56.4318 36.6912 56.7771 37.0364C57.1223 37.3817 57.3574 37.8216 57.4527 38.3005C57.548 38.7794 57.4991 39.2758 57.3122 39.7269C57.1254 40.178 56.8089 40.5635 56.403 40.8348C55.997 41.1061 55.5197 41.2509 55.0314 41.2509C54.3768 41.2503 53.7492 40.9901 53.2863 40.5272C52.8235 40.0643 52.5632 39.4367 52.5626 38.7821ZM55.0314 22.7887C54.5431 22.7887 54.0657 22.6439 53.6597 22.3726C53.2537 22.1013 52.9373 21.7156 52.7505 21.2645C52.5637 20.8133 52.5148 20.3169 52.6101 19.838C52.7055 19.3591 52.9407 18.9192 53.286 18.574C53.6313 18.2288 54.0713 17.9937 54.5502 17.8985C55.0292 17.8034 55.5256 17.8524 55.9767 18.0393C56.4278 18.2263 56.8133 18.5428 57.0845 18.9489C57.3556 19.355 57.5003 19.8324 57.5001 20.3207C57.4994 20.9754 57.2389 21.603 56.7757 22.0657C56.3126 22.5285 55.6848 22.7885 55.0301 22.7887H55.0314ZM45.7681 19.8796C45.28 19.8795 44.8029 19.7346 44.3972 19.4633C43.9914 19.192 43.6752 18.8065 43.4886 18.3556C43.3019 17.9046 43.2531 17.4084 43.3484 16.9297C43.4438 16.451 43.6789 16.0113 44.0241 15.6663C44.3692 15.3212 44.809 15.0862 45.2877 14.991C45.7664 14.8959 46.2626 14.9448 46.7135 15.1316C47.1644 15.3184 47.5498 15.6348 47.821 16.0406C48.0921 16.4464 48.2369 16.9236 48.2369 17.4116C48.2361 18.0663 47.9756 18.6939 47.5125 19.1567C47.0494 19.6194 46.4215 19.8794 45.7669 19.8796H45.7681Z" fill="#7A992B"/>
</svg>
